<?xml version="1.0" encoding="utf-8"?>
<!-- Generator: Adobe Illustrator 27.9.1, SVG Export Plug-In . SVG Version: 6.00 Build 0)  -->
<svg version="1.1" id="Layer_2_00000141440194738158636410000013620263822595386022_"
	 xmlns="http://www.w3.org/2000/svg" xmlns:xlink="http://www.w3.org/1999/xlink" x="0px" y="0px" viewBox="0 0 1566.3 1545.8"
	 style="enable-background:new 0 0 1566.3 1545.8;" xml:space="preserve">
<style type="text/css">
	.st0{fill:#010101;}
	.st1{fill:#FFFFFF;}
	.st2{fill:#231F20;}
	.st3{fill:none;stroke:#FFFFFF;stroke-width:10;}
</style>
<g id="Layer_1-2">
	<g>
		<path class="st0" d="M370.1,759.9l78.1,151c9.5,18.4,34.2,22.2,48.8,7.6l72.9-72.9c14.7-14.7,10.8-39.3-7.6-48.8l-151-78.1
			C384.9,705,356.4,733.4,370.1,759.9L370.1,759.9z"/>
		<path class="st0" d="M406.3,1034.6l-29,50.2l-11.4,19.7c-1.7-2.3-3.5-4.6-5.1-6.9c-10-13.5-19.3-27.4-27.9-41.9
			c-1.9-3.1-3.7-6.2-5.5-9.4c-14.2-24.7-26.4-50.7-36.4-77.8l24.9,5.4l36.5,8l7.7,1.7l26.3,5.8c3.8,0.8,7.2,2.3,10.2,4.3
			C409.6,1002.2,414.7,1020,406.3,1034.6L406.3,1034.6z"/>
		<path class="st0" d="M1211.4,756.6l-78.1,151c-9.5,18.4-34.2,22.2-48.8,7.6l-72.9-72.9c-14.7-14.7-10.8-39.3,7.6-48.8l151-78.1
			C1196.7,701.6,1225.1,730.1,1211.4,756.6L1211.4,756.6z"/>
		<path class="st0" d="M1275.3,965.3c-8.5,23.5-18.6,46.1-30.2,67.9c-2.6,4.8-5.2,9.5-7.9,14.2l0,0c-7.5,13.1-15.6,25.9-24.2,38.2
			c-3.8,5.4-7.6,10.8-11.6,16l-10.9-18.9l-29.8-51.6c-9.7-16.8-1.5-37.9,16.3-44.2c1.2-0.4,2.4-0.8,3.7-1l29.6-6.5l11.5-2.5
			l30.2-6.6L1275.3,965.3z"/>
		<g>
			<path class="st1" d="M641.4,1412.9c-2.9,5.1-6.7,9.8-11.1,13.8L641.4,1412.9z"/>
			<path class="st1" d="M1228.5,1021.9c-5.1-13.7-10.9-27.2-17.4-40.6c-0.3-0.6-0.6-1.1-0.8-1.7c-17.6-35.8-38.5-67.4-64.1-96.9
				c-6-6.9-12.3-13.7-18.9-20.4c-29.8-30.4-60.8-54.9-95.6-75.3c-7.4-4.3-15-8.5-22.7-12.5c-36.4-17.6-75.4-31-116.4-39.5
				c-34-7.1-69.3-10.8-105.5-10.9h-0.6c-0.9,0-1.7,0-2.6,0c-2.8,0-5.5,0-8.2,0.1c-0.7,0-1.3,0-1.9,0h-0.3
				c-31.7,0.8-62.6,4.4-92.5,10.6c-44.6,9.2-86.9,24.3-126,44.1c-4.3,2.4-8.7,4.8-12.9,7.4c-19.4,11.5-38.4,24.5-56.4,38.7
				c-13.2,10.5-37.1,33.7-54.7,52.7c-6.2,6.7-11.6,12.8-15.5,17.7c-22.2,27.9-40.7,57.3-55.5,88.2c-7,14.5-13.1,29.5-18.5,44.8l0,0
				c-3.1,9-6,18.1-8.6,27.3c8.6,14.4,18,28.4,27.9,41.9c1.7,2.3,3.4,4.6,5.1,6.9c85,111.2,213.5,187.6,359.9,203.5
				c9.8,1.1,19.6,1.9,29.5,2.4c5.2,0.3,10.4,0.5,15.6,0.6c3.5,0.1,7,0.1,10.5,0.1c8.2,0,16.3-0.1,24.3-0.5c4.8-0.2,9.6-0.5,14.3-0.8
				c10.3-0.7,20.5-1.8,30.7-3.1c143-18.6,267.9-94.9,350.6-204.9c4-5.3,7.8-10.6,11.6-16c8.6-12.4,16.6-25.1,24.2-38.2l0,0
				C1234.6,1038.9,1231.7,1030.3,1228.5,1021.9L1228.5,1021.9z M630.3,1426.8c4.5-4,8.2-8.7,11.1-13.8L630.3,1426.8z"/>
			<path class="st1" d="M818.5,1289.2c-1.8-23.5-3.6-47.9-5.5-72.8c-8.2-108.7-15.8-205.1-20.4-262.3c-0.1-1.2-0.2-2.4-0.3-3.5v0
				c-2.6-32.4-4.3-51.2-4.5-51.2c-0.2,0-0.9,8.2-2.2,23.1v0.1c-0.7,8.2-1.6,18.5-2.5,30.5c-4.7,57-12.2,153.9-20.5,263.3
				c-1.9,25.1-3.8,49.7-5.6,73.4c-0.5,6.9-1,13.7-1.6,20.4c5.2,0.3,10.4,0.5,15.6,0.6c3.5,0.1,7,0.1,10.5,0.1
				c8.2,0,16.3-0.1,24.3-0.5c4.8-0.2,9.6-0.5,14.3-0.8C819.6,1302.9,819.1,1296.1,818.5,1289.2L818.5,1289.2z"/>
			<ellipse class="st1" cx="786.8" cy="709.9" rx="113.6" ry="68.3"/>
		</g>
		<g>
			<path d="M630.3,1426.8c4.5-4,8.2-8.7,11.1-13.8L630.3,1426.8z M630.3,1426.8c4.5-4,8.2-8.7,11.1-13.8L630.3,1426.8z
				 M630.3,1426.8c4.5-4,8.2-8.7,11.1-13.8L630.3,1426.8z M630.3,1426.8c4.5-4,8.2-8.7,11.1-13.8L630.3,1426.8z M630.3,1426.8
				c4.5-4,8.2-8.7,11.1-13.8L630.3,1426.8z M630.3,1426.8c4.5-4,8.2-8.7,11.1-13.8L630.3,1426.8z M630.3,1426.8
				c4.5-4,8.2-8.7,11.1-13.8L630.3,1426.8z M630.3,1426.8c4.5-4,8.2-8.7,11.1-13.8L630.3,1426.8z M630.3,1426.8
				c4.5-4,8.2-8.7,11.1-13.8L630.3,1426.8z M630.3,1426.8c4.5-4,8.2-8.7,11.1-13.8L630.3,1426.8z M630.3,1426.8
				c4.5-4,8.2-8.7,11.1-13.8L630.3,1426.8z M630.3,1426.8c4.5-4,8.2-8.7,11.1-13.8L630.3,1426.8z M630.3,1426.8
				c4.5-4,8.2-8.7,11.1-13.8L630.3,1426.8z M630.3,1426.8c4.5-4,8.2-8.7,11.1-13.8L630.3,1426.8z M630.3,1426.8
				c4.5-4,8.2-8.7,11.1-13.8L630.3,1426.8z M630.3,1426.8c4.5-4,8.2-8.7,11.1-13.8L630.3,1426.8z M630.3,1426.8
				c4.5-4,8.2-8.7,11.1-13.8L630.3,1426.8z M630.3,1426.8c4.5-4,8.2-8.7,11.1-13.8L630.3,1426.8z M630.3,1426.8
				c4.5-4,8.2-8.7,11.1-13.8L630.3,1426.8z M630.3,1426.8c4.5-4,8.2-8.7,11.1-13.8L630.3,1426.8z M1235.6,1007.9
				c-3.9-9.6-8.1-19.1-12.7-28.5c-0.4-0.8-0.8-1.5-1.1-2.3c-19.1-38.8-42-72.7-70.4-104.3c-4.6-5.1-9.3-10.1-14.2-15.1
				c-29.9-30.5-60.9-55.2-95.5-75.8c-8.3-4.9-16.7-9.6-25.4-14.1c-6.6-3.4-13.3-6.6-20.1-9.8c-14.9-6.8-46.8-19.3-49.4-19.3
				c-0.7,0-1.7-1.5-2-3.3c-2.2-9.8-5.7-21.8-8.9-30c-9.6-24.6-29.3-50.4-51.2-67l-7.3-5.5l0.4-1.1l-0.3-0.2l-3.6-1.9l-11.2-6
				l-0.3-0.2c-0.1,0-0.1,0-0.2,0c-18.8-8.2-29.8-12-43.7-14.5c-2.1-0.4-4.3-0.8-6.7-1.1c-18.3-2.7-38-2-56.4,1.8
				c-11.1,2.3-21.8,5.7-31.5,10.2c-4.9,2.2-9.3,3.7-9.8,3.2l-0.3,0.2l-14.6,8l-0.6,0.3c0,0.2-0.3,0.7-0.9,1.3h0
				c-1.7,1.8-5.5,5.3-9.9,8.8c-16.7,13.5-30.1,29.9-39.9,48.7c-7.1,13.8-10,21.3-13.5,35.6c-1.6,6.5-3.1,11.9-3.2,12.1
				c-0.2,0.1-5.4,2-11.6,4.1c-22.4,7.7-45.2,17.9-67.6,30.2c-5.8,3.2-11.6,6.5-17.4,10c-18.4,11.1-36.4,23.6-53.5,37.1
				c-12.9,10.3-35.8,32.4-53.5,51.3c-7.3,7.8-13.7,15.1-18.2,20.8c-22.8,28.6-41.7,58.7-56.9,90.4c-5.8,12.2-11.1,24.5-15.8,37.2
				c-3.3,8.9-6.4,18-9.2,27.2c1.8,3.2,3.6,6.3,5.5,9.4c8.6,14.4,18,28.4,27.9,41.9c0.4-1.8,0.7-3.5,1.1-5.3
				c1.6-7.3,3.4-14.5,5.4-21.8c7.2-26.4,17.1-52.2,29.3-76.8c14.5-29.3,32.2-56.9,52.4-81.5c11.3-13.8,23.4-26.6,36.2-38.3
				c28.1-25.7,58.4-47.3,90-64.6c45.2-24.6,93.1-40.2,141.5-45.6h0c1.1-0.1,2.3-0.2,3.4-0.4c2.3-0.2,8.9-0.5,14.7-0.6l10.5-0.2v12.4
				c0,6.8-0.3,14.8-0.7,17.7l-0.7,5.4l-9.5,2.5c-33.9,9.1-61.8,32.5-77.1,64.8c-8.8,18.7-10.8,28.2-10.7,51.3
				c0.1,21.6,1.6,29.6,8.8,47c13.2,31.6,43.2,57.8,78.2,68.2c1.4,0.4,2.2,1.8,2.2,4.1c0,4.2-4.3,123.7-9,251.5
				c-0.3,6.8-0.5,13.7-0.8,20.5c9.8,1.1,19.6,1.9,29.5,2.4c5.2,0.3,10.4,0.5,15.6,0.6c0.2-6.7,0.5-13.5,0.8-20.5
				c1.3-36,2.8-74.7,4.2-114.8c3.2-86.6,6.2-165.4,8.4-223.1c0.4-10.7,0.8-20.7,1.2-29.8v-0.1c1.6-41.9,2.7-66.9,2.8-66.9
				c0.2,0,1.7,36.4,3.9,95v0c0,1.1,0.1,2.3,0.1,3.4c2.2,57.6,5.2,135.7,8.3,221.5c1.5,39.9,2.9,78.5,4.2,114.4
				c0.3,6.9,0.5,13.8,0.8,20.5c4.8-0.2,9.6-0.5,14.3-0.8c10.3-0.7,20.5-1.8,30.7-3.1c-0.3-6.9-0.5-13.7-0.8-20.6
				c-4.7-129.1-8.9-249.4-8.7-251c0.3-2.4,1.7-3.3,8.1-5.5c33.6-11.3,61.5-38.2,73.9-71.1c8.2-21.9,9.9-50.6,4-72.3
				c-11.2-41.5-44.1-74.7-85-85.6l-9.5-2.5l-0.7-5.4c-0.4-3-0.7-11-0.7-17.9v-12.5l15.9,0.8c3,0.2,6.4,0.4,9.8,0.7
				c6.7,0.5,13.7,1.3,18,2c43.2,6.6,87.7,22.5,129,45.2c40.8,22.4,78.6,51.5,109.2,84.9c5.4,5.9,10.6,12,15.7,18.1
				c18.6,22.8,34.6,47.4,47.9,73.3c12,23.3,21.7,47.7,29.2,72.8c2.5,8.5,4.8,17.1,6.8,25.8c8.6-12.4,16.6-25.1,24.2-38.2l0,0
				c2.7-4.7,5.3-9.4,7.9-14.2C1242.2,1024.7,1239,1016.3,1235.6,1007.9L1235.6,1007.9z M789.2,716.1h-0.6c-0.9,0-1.8,0-2.7,0
				c-2.7,0-5.5,0.1-8.4,0.1c-0.7,0-1.3,0-2,0h-0.3c-40.7,0.6-55.1,1.8-80.8,6.3c-5.8,1-10.8,1.6-11.2,1.3c-1.1-1.1,5-13.5,11.1-22.6
				c3.6-5.4,7.5-10.4,11.9-15c1.3-1.4,2.7-2.8,4-4.1c3.2-3.1,6.7-6,10.2-8.7c0.1-0.1,0.3-0.2,0.4-0.3c10.6-7.9,22.5-13.9,35.3-17.6
				c4.5-1.3,9-2.3,13.7-3c1.5-0.2,3.3-0.4,5.2-0.5c6.2-0.4,14.4-0.3,22.1,0.2c7.5,0.5,14.6,1.4,19.4,2.5c0.3,0.1,0.6,0.1,0.9,0.2
				c17.1,4.5,32.4,12.8,45.3,24.2c1.8,1.6,3.5,3.2,5.2,4.9c5.2,5.2,9.9,11,14.1,17.3c5.7,8.5,12.2,21.5,11.2,22.5
				c-0.3,0.3-8.8-0.8-18.9-2.4C846.5,717,827.6,715.8,789.2,716.1L789.2,716.1z M630.3,1426.8c4.5-4,8.2-8.7,11.1-13.8L630.3,1426.8
				z M630.3,1426.8c4.5-4,8.2-8.7,11.1-13.8L630.3,1426.8z M630.3,1426.8c4.5-4,8.2-8.7,11.1-13.8L630.3,1426.8z M630.3,1426.8
				c4.5-4,8.2-8.7,11.1-13.8L630.3,1426.8z M630.3,1426.8c4.5-4,8.2-8.7,11.1-13.8L630.3,1426.8z M630.3,1426.8
				c4.5-4,8.2-8.7,11.1-13.8L630.3,1426.8z M630.3,1426.8c4.5-4,8.2-8.7,11.1-13.8L630.3,1426.8z M630.3,1426.8
				c4.5-4,8.2-8.7,11.1-13.8L630.3,1426.8z M630.3,1426.8c4.5-4,8.2-8.7,11.1-13.8L630.3,1426.8z M630.3,1426.8
				c4.5-4,8.2-8.7,11.1-13.8L630.3,1426.8z M630.3,1426.8c4.5-4,8.2-8.7,11.1-13.8L630.3,1426.8z M630.3,1426.8
				c4.5-4,8.2-8.7,11.1-13.8L630.3,1426.8z M630.3,1426.8c4.5-4,8.2-8.7,11.1-13.8L630.3,1426.8z M630.3,1426.8
				c4.5-4,8.2-8.7,11.1-13.8L630.3,1426.8z M630.3,1426.8c4.5-4,8.2-8.7,11.1-13.8L630.3,1426.8z M726.6,1287.4
				c-0.3,6.8-0.5,13.7-0.8,20.5c9.8,1.1,19.6,1.9,29.5,2.4c0.5-6.7,1-13.5,1.6-20.4C746.7,1289.3,736.6,1288.5,726.6,1287.4z
				 M630.3,1426.8c4.5-4,8.2-8.7,11.1-13.8L630.3,1426.8z M630.3,1426.8c4.5-4,8.2-8.7,11.1-13.8L630.3,1426.8z M630.3,1426.8
				c4.5-4,8.2-8.7,11.1-13.8L630.3,1426.8z M630.3,1426.8c4.5-4,8.2-8.7,11.1-13.8L630.3,1426.8z M630.3,1426.8
				c4.5-4,8.2-8.7,11.1-13.8L630.3,1426.8z"/>
			<g>
				<path d="M532.4,920.7c-28,6.8-47.1,34.8-42.8,62.8c2.5,16.5,11.6,30.4,25.7,39.6c9.8,6.4,19.7,8.8,33.5,8.1
					c10-0.5,12.3-1,20.5-4.9c12.3-5.9,21-14.5,26.9-26.8c3.9-8.1,4.5-10.5,4.9-20.4c0.7-13.9-1.7-23.7-8.1-33.5
					C579.8,925,555.6,915.1,532.4,920.7L532.4,920.7L532.4,920.7z"/>
				<path d="M618.2,1092.3c-28.9,4.6-54.7,26.3-63.8,53.8c-3.5,10.6-4.3,32.1-1.7,43.5c6.4,27.3,30,51,57.8,58.1
					c27.3,7,55.1-0.7,75.5-20.9c8.1-8,10.6-11.5,15.2-21c6.8-14.1,8.5-22.5,7.8-39.1c-0.8-21-7.6-36.6-22.5-51.6
					c-9.3-9.3-19.9-15.8-32.5-19.8C643.8,1092.1,628.1,1090.7,618.2,1092.3L618.2,1092.3L618.2,1092.3z"/>
				<path d="M641.4,1412.9c-2.9,5.1-6.7,9.8-11.1,13.8L641.4,1412.9z"/>
				<path d="M1038,920.8c-19.5,4.2-36.5,20.2-41.7,39.3c-1.5,5.6-2,10.6-1.6,18.9c0.4,9.9,1,12.3,4.8,20.2
					c9,18.7,23.4,29.2,43.9,32.1c34.9,4.9,66.8-25.7,63.2-60.7c-2-19.8-13.6-36.5-31.2-45.2C1062.3,919,1052.1,917.8,1038,920.8
					L1038,920.8L1038,920.8z"/>
				<path d="M933.4,1092.3c-28.9,4.6-54.7,26.3-63.8,53.8c-3.5,10.6-4.3,32.1-1.7,43.5c6.4,27.3,30,51,57.8,58.1
					c27.4,7,55.2-0.7,75.5-20.9c17.2-17.1,23.9-34.3,23-59.2c-0.7-21.8-7.4-37.2-22.5-52.4c-9.3-9.3-19.9-15.8-32.5-19.8
					C958.9,1092.1,943.2,1090.7,933.4,1092.3L933.4,1092.3L933.4,1092.3z"/>
			</g>
			<g>
				<path d="M713.9,624.7c0-1-0.3-2-0.7-3c-0.8-1.8-2.1-5.4-3.5-9.2c-6.9-20.1-20.5-43.1-35.8-60.7c-24.5-28.2-63.4-49.8-101.2-56.2
					c-9.3-1.6-10.2-2-14.3-6.7c-7.3-8.5-17-11.4-26.5-8c-5,1.8-11,7.5-13,12.4c-2,4.9-2,13.7,0,18.6c3.6,8.7,15.5,15.1,24.6,13.4
					c6.3-1.2,10.2-3.5,15-9.1l1.3-1.5c1.9-2.2,4.8-3.2,7.7-2.7l3.9,0.7c40.3,7.2,79.4,33.4,104,69.7c8.3,12.3,19.9,36.5,22.5,46.2
					c0.5,2,1.8,3.8,3.6,4.9l0,0c5.6,3.5,12.8-0.7,12.5-7.3L713.9,624.7L713.9,624.7z"/>
				<path d="M875,633.8c1.6-1,2.8-2.5,3.5-4.2l2.5-6.9c17.3-48,54.7-86.3,100.1-102.6c9.8-3.5,26.6-7.8,30.7-7.8
					c1.6,0,3.6,1.5,5.4,4.2c3.5,5,13.1,10.2,19.1,10.2c6,0,14.2-4.4,18.6-10c1-1.3,3.6-5.4,3.6-13.3s-4.7-14.5-4.7-14.5
					c-4.5-5.6-11.6-8.8-17.4-8.8c-5.9,0-15.6,5.1-19.3,10.5c-3,4.3-3.7,4.6-12.5,5.9c-54.5,8-105.1,46.4-129.9,98.6
					c-3.2,6.7-7,16.1-8.6,20.8c-1,3-2,5.5-2.9,7c-0.7,1.1-1,2.4-1.1,3.8l0,0c-0.3,6.7,7,10.9,12.7,7.4L875,633.8L875,633.8z"/>
			</g>
		</g>
		<g>
			<path class="st2" d="M831.1,981.2c-2.2,0-4.4-0.5-6.3-1.6l-37.9-19.9l-37.9,19.9c-2,1-4.2,1.6-6.3,1.6c-4,0-7.8-1.8-10.4-4.9
				c-2.6-3-3.7-7.1-3-11l7.2-42.2l-30.7-29.9c-3.7-3.6-5-9-3.4-13.9s5.8-8.5,11-9.2l42.4-6.2l19-38.4c2.3-4.7,7-7.6,12.2-7.6
				s9.9,2.9,12.2,7.6l19,38.4l42.4,6.2c5.2,0.8,9.4,4.3,11,9.2s0.3,10.3-3.4,13.9L837.2,923l7.2,42.2c0.7,4-0.4,8-3,11
				C838.9,979.4,835.1,981.2,831.1,981.2L831.1,981.2z"/>
			<path class="st1" d="M786.8,825.3c2.2,0,4.3,1.1,5.5,3.4l19.3,39.1c0.9,1.8,2.6,3,4.6,3.3l43.1,6.3c5,0.7,7,6.9,3.4,10.4
				l-31.2,30.4c-1.4,1.4-2.1,3.4-1.8,5.4l7.4,43c0.7,3.9-2.5,7.1-6,7.1c-0.9,0-1.9-0.2-2.8-0.7l-38.6-20.3c-0.9-0.5-1.9-0.7-2.8-0.7
				s-2,0.2-2.8,0.7L745.4,973c-0.9,0.5-1.9,0.7-2.8,0.7c-3.5,0-6.7-3.2-6-7.1l7.4-43c0.3-2-0.3-4-1.8-5.4L711,887.7
				c-3.6-3.5-1.6-9.7,3.4-10.4l43.1-6.3c2-0.3,3.7-1.5,4.6-3.3l19.3-39.1C782.5,826.4,784.6,825.3,786.8,825.3 M786.8,810.3
				c-8.1,0-15.3,4.5-18.9,11.8l-17.2,34.9l-38.5,5.6c-8,1.2-14.5,6.7-17,14.4c-2.5,7.7-0.5,16,5.3,21.6l27.9,27.2l-6.6,38.3
				c-1,6.2,0.6,12.4,4.6,17.1c4,4.8,9.9,7.5,16.2,7.5c3.4,0,6.8-0.8,9.8-2.4l34.4-18.1l34.4,18.1c3,1.6,6.4,2.4,9.8,2.4
				c6.2,0,12.1-2.8,16.2-7.5c4-4.8,5.7-11,4.6-17.1l-6.6-38.3l27.9-27.2c5.8-5.7,7.8-13.9,5.3-21.6s-9-13.2-17-14.4l-38.5-5.6
				L805.7,822C802.1,814.8,794.9,810.3,786.8,810.3L786.8,810.3L786.8,810.3z"/>
		</g>
		<g>
			<g>
				<ellipse class="st2" cx="734.9" cy="672.8" rx="25.7" ry="31.1"/>
				<ellipse class="st3" cx="734.9" cy="672.8" rx="25.7" ry="31.1"/>
			</g>
			<g>
				<ellipse class="st2" cx="837.8" cy="672.8" rx="25.7" ry="31.1"/>
				<ellipse class="st3" cx="837.8" cy="672.8" rx="25.7" ry="31.1"/>
			</g>
		</g>
	</g>
</g>
<g id="Layer_2-2">
	<g>
		<path d="M253.5,598.5c10.1-50.5,17.2-102.9,31.3-153.4c33.4-119.2,107-206.5,218.7-260.9c11.7-5.7,24.4-9.2,36.8-13.2
			c9.5-3.1,19.4-5.2,30.8-8.2c-1.3,3.9-2.1,6.4-3,8.9c-13.6,38.9-27.7,77.7-40.5,116.9c-6.2,19.2-16.2,32.7-33.9,44.2
			c-141.1,91.6-224.3,221.3-247.1,388c-30.3,221.6,86.2,444.6,285.5,546.5c56,28.6,116.1,47.4,178.5,57.9c5.3,0.9,10.7,2,19.1,3.6
			c-5,10.4-7.7,21-14.2,28.5c-8.1,9.3-18.2,18.1-29.3,23.5c-21.9,10.7-44.3,21.2-67.7,27.5c-16.5,4.4-35.3,4-52.4,1.7
			c-37.8-5.2-73.2,1.3-106.9,17.5c-24.2,11.6-47.5,24.9-72.6,38.3c-3-43,12.4-79.5,36.2-113.1c23.9-33.6,53.6-59.5,96.7-65.5
			c-9.5-15.9-27.3-24.9-45.8-19.3c-19.5,5.9-39.3,13.5-56.5,24.2c-34.2,21.4-70.6,34-110.8,34c-47.9,0-93.8,4.9-129.1,46.7
			c-5.1-31-3.9-58.5,3-85.7c8.9-35.4,24.2-67.4,51.3-92.7c15.9-14.9,33.8-21.2,56.6-17.5c17.5,2.8,36-0.1,53.9-1.5
			c5.2-0.4,10.2-4.4,14.4-9.6c-3,0-6.2-0.4-9.1,0.1c-49.9,7.9-96.6-1.2-139.7-27.3c-20.6-12.4-40.5-25.9-60.6-39
			c-33.9-22.1-69.8-37.5-115.1-35.1c29.6-34.7,60.8-61.4,101.4-76.2c42.6-15.5,81.6-5.2,119.1,17.2l1.9-2.4c-2.9-3.4-5.3-7.9-8.9-10
			c-16.3-9.6-32.1-20.9-49.7-27.2c-46-16.4-82.8-44-112.6-82.5C63,857.2,35.5,842.5,0,837.4c20.2-22.6,43.6-36.1,70.4-43.9
			c27.5-8,55-7.5,82,2.7c26.6,10,46.8,28.7,64.5,50.7c-3.2-20.2-12.5-37-24.7-52c-7.9-9.8-16.2-20.1-26.5-27
			c-37.1-25.1-52-62.3-58.1-103.8c-11.3-76.1,10.6-145.8,44.9-215.3C204.9,488.3,249.6,530.5,253.5,598.5L253.5,598.5z"/>
		<path d="M1387.6,1370.8c-23.3-25.7-52.1-40.1-86.3-42.9c-18.1-1.4-36.2-1.9-54.4-2.7c-32.4-1.4-61.4-12.2-89.4-28.2
			c-20.3-11.6-41.9-21.6-64.1-28.9c-18.1-5.9-34.6,1.8-48,18.6c44.3,6.3,74.4,32.1,98.4,66c23.7,33.4,38.9,69.8,36.2,114.3
			c-5-2.9-8.8-5-12.5-7.2c-36.9-22.3-74.1-44.6-117.9-49.6c-20.7-2.4-42,0-62.9,1.7c-18.5,1.5-36.2,0.1-53-8.2
			c-19.2-9.5-38.9-18.2-57.1-29.4c-16-9.9-25.2-25.7-27.4-46.5c6.6-1.1,13.1-2,19.5-3.2c240.5-46.1,392.6-212.4,440.5-408.6
			c55.6-228-42.9-465.1-243.6-587.8c-11.2-6.9-18.3-15.2-22.2-27.4c-10-31.3-20.1-62.5-30.7-93.6c-4.9-14.3-11.1-28-17.7-44.2
			c11.8,3.1,22.1,5.7,32.4,8.6c79.4,22,136.8,74.1,186.8,136.4c47.3,59,69.9,128.1,82.7,201.2c5.3,30.2,9.5,60.5,15.2,91.5
			c4.6-69.7,49.5-111.8,100.4-150.9c1.9,2.1,3.2,3.1,3.9,4.4c29.5,58.9,48.3,120.4,45,187.1c-1.4,28-6.2,55.8-20.4,80.1
			c-8.7,14.9-20.3,29.1-33.4,40.2c-24,20.3-44,42.9-55.5,72.4c-1.5,3.8-2.5,7.7-2.7,12.9c35.3-45.1,79.6-67.2,136.9-55.8
			c30.9,6.2,57.2,21.1,80.1,45.4c-6.2,1.6-10.9,3-15.6,4.1c-25.1,5.6-45.9,18.5-63,37.6c-6.5,7.2-12.8,14.6-19.1,22
			c-21.2,24.7-45.9,44.1-76.6,56.4c-22.2,8.9-43.4,20.4-64.6,31.6c-6.1,3.2-10.8,9.2-16.2,14c0.8,1,1.6,1.9,2.4,2.9
			c2.1-0.8,4.3-1.3,6.2-2.5c42.5-25.7,86.2-29.3,131.2-6.9c31.9,15.9,58,38.8,82.2,67.6c-9.6,0.6-17.7,0.8-25.7,1.6
			c-30,3.1-56.9,14.9-82.1,30.9c-21.7,13.8-43,28.3-64.9,41.7c-43.8,26.8-91.1,36.5-141.9,28.2c-2.8-0.5-5.8-0.1-8.8-0.1
			c-0.4,1.1-0.8,2.2-1.3,3.2c8.4,3,16.7,7.9,25.3,8.7c15,1.3,30.6,2.1,45.3-0.7c21.3-4,38.4,1.9,53.5,15.7
			c34.7,31.6,51.8,72.4,57.5,117.9c2.4,19.3,0.4,39.2,0.4,58.8C1389.6,1369.8,1388.6,1370.3,1387.6,1370.8L1387.6,1370.8z"/>
		<path d="M784.5,267.2c288.9,0.4,523.3,235.9,523,525.2c-0.3,289.2-235.7,523.7-524.9,522.9c-288.7-0.8-523.1-235.8-522.8-524.2
			C260,502.5,496,266.8,784.5,267.2L784.5,267.2z M1287.4,791.4c0-278.5-225.8-506.8-501.6-507.1c-277.3-0.3-504.6,228-504.7,506.9
			c-0.1,278,224.8,503.5,502.4,503.6C1062.3,1295,1287.4,1070,1287.4,791.4L1287.4,791.4z"/>
		<path d="M763.1,51.3C757,28.8,769,14.7,782.3,0c14.3,14.1,25.5,28.5,20.8,47.6c11-1.5,22.6-5.1,33.9-4.2c12.9,1,21,11.1,26.8,22.4
			c-10.5,5.5-21.2,9.6-30.2,16.2c-8.4,6.2-15,15-24.2,24.5c33.8,0.2,40.3,8.7,35.9,42.2c21.4-23.9,45.7-40.1,81.7-35.8
			c-4,3.4-5.9,5.3-8.1,6.8c-19.3,13.6-32.5,31.6-39.5,54.1c-1.9,6-4,12-5.5,18.1c-6.5,25.8-23.4,38.9-49.4,41.4
			c-15.7,1.5-31.1,4.2-41.9,19c-10.4-14.4-25.3-17.5-40.6-18.8c-27.2-2.3-43.6-15.9-51.3-42.6c-11.3-39.3-12-39.1-51.6-78.1
			c34.1-4.3,58.2,11.2,78.1,33c1.9-9.9,1.1-22.1,6.7-29.6c5.1-6.9,17.1-8.8,27.1-13.3c-8.6-18.4-27.9-28.4-49-35.6
			C713.2,41.2,734.1,35.7,763.1,51.3L763.1,51.3z"/>
		<path d="M819.4,1446c15.3,43-8.9,71.1-34.9,99.8c-25-28.9-50.2-56.4-33.8-101c-24.7,18.9-49.2,28.8-77.5,16.6
			c-19-8.2-32.1-22.3-40.8-41.5c10.3-4,19.8-7.4,29-11.4c24.4-10.7,44.4-26.7,60.6-48.1c8.3-11,19.2-20.1,29.5-29.4
			c2-1.8,7-1.7,10.1-0.8c14.4,4.1,28.1,3.1,42-2.3c3.9-1.5,10.3-0.1,14.2,2.3c13.3,8.2,23.8,18.9,32.5,32.4
			c16.7,25.6,42.1,40.7,70.4,51.1c5.1,1.9,10.3,3.7,15.4,5.5C921.7,1466.7,871.5,1478.6,819.4,1446L819.4,1446z"/>
	</g>
</g>
</svg>
