<?xml version="1.0" encoding="UTF-8"?><svg id="Layer_2" xmlns="http://www.w3.org/2000/svg" viewBox="0 0 622.28 82.72"><defs><style>.cls-1{fill:#000;stroke-width:0px;}</style></defs><g id="Layer_1-2"><path class="cls-1" d="M98.27,0c13.1.1,25.4,3.36,37.25,8.6,2.89,1.28,5.8,3.36,8.73,3.42,2.7.06,5.44-2.11,8.17-3.29,12.52-5.4,25.65-6.73,39.12-5.94,14.16.82,26.86,5.95,38.91,13.04,1.43.84,3.02,1.52,4.26,2.59,2.71,2.32,5.16,1.9,8.15.33,5.08-2.66,10.66-3.97,16.42-3.36,3.44.36,6.88,1.21,10.16,2.32,2.12.72,3.18.39,4.61-1.29,1.91-2.24,4.11-4.44,6.63-5.91,4.39-2.56,9.19-2.99,13.8-.33,1.74,1,2.91.98,4.29-.54.99-1.08,2.27-1.97,3.55-2.72,3.87-2.26,5.09-1.96,7.69,1.83.8,1.16,1.02,1.3,1.79-.13,1.91-3.56,3.34-3.98,6.75-2.06,1.72.97,3.25,2.3,4.73,3.62,1.12.99,2,1.23,3.52.62,8.54-3.48,15.87-1.46,21.52,6.1,1.29,1.72,2.29,1.92,4.07,1.25,5.02-1.9,10.18-3.05,15.6-2.96,4.61.07,9.02.93,12.8,3.55,2.24,1.55,3.77,1.02,5.8-.2,9.02-5.42,18.42-10.03,28.68-12.64,14.56-3.7,29.22-5.07,43.86-.64,4.74,1.44,9.3,3.59,13.78,5.73,2.14,1.03,3.85,1.22,6.04.21,7.73-3.56,15.76-6.25,24.13-7.94,18.97-3.81,37.49-1.62,55.59,4.48,20.94,7.06,37.03,20.61,49.83,38.31,4.69,6.49,8.66,13.4,11.83,20.76.72,1.67,1.32,3.41,1.89,5.14.14.42-.03.95-.05,1.42-.35-.22-.8-.36-1.04-.66-.83-1.04-1.57-2.14-2.38-3.2-7.86-10.34-15.82-20.62-26.09-28.74-4.15-3.28-8.74-6.07-13.33-8.73-1.39-.8-3.52-.74-5.24-.51-10.66,1.39-20.8,4.56-30.37,9.41-6.97,3.53-13.79,7.38-20.66,11.11-17.57,9.53-35.37,18.55-54.56,24.49-12,3.71-24.27,5.98-36.81,6.14-16.21.22-31.76-3.18-46.46-10.03-2.76-1.29-5.16-1.29-8.09-.8-9.83,1.65-19.7,3.36-29.63,4.14-13.1,1.03-26.27,1.66-39.41,1.65-17.81-.02-35.62-.81-53.27-3.62-4.27-.68-8.54-1.45-12.73-2.49-2.4-.6-4.45-.57-6.71.53-17.52,8.49-36.06,11.48-55.37,9.82-12.51-1.07-24.57-4.25-36.36-8.5-13.96-5.04-27.29-11.48-40.46-18.29-11.23-5.8-22.48-11.58-33.83-17.14-6.6-3.23-13.71-5.05-20.92-6.49-4.67-.93-8.79-.18-12.83,2.38-7.7,4.88-14.18,11.09-19.76,18.16-5.14,6.52-9.73,13.47-14.58,20.22-.31.43-.82.71-1.23,1.06,0-.48-.12-.99.02-1.43.34-1.11.72-2.22,1.19-3.28C11.48,45.68,26.62,26.96,48.26,13.8c11.13-6.76,23.36-10.4,36.12-12.41,4.59-.72,9.26-.95,13.89-1.4ZM524.74,14.12c-11-.15-21.51,2.09-31.4,6.84-8.24,3.96-16.4,8.08-24.47,12.37-17.45,9.27-34.39,19.57-53.23,26.02-.55.19-.95.81-1.42,1.23.39.29.75.66,1.18.87,5.41,2.73,11.11,4.34,17.18,4.74,10.63.71,20.84-1.39,30.91-4.48,14.19-4.35,27.49-10.88,40.98-16.92,18.32-8.21,36.2-17.63,56.34-21.03.53-.09.96-.71,1.44-1.08-.41-.28-.78-.63-1.22-.83-11.56-5.09-23.66-7.68-36.3-7.75ZM87.75,14.06c-7.86-.32-18.71,3.16-29.22,8.08-.51.24-.85.83-1.26,1.25.57.24,1.13.62,1.72.71,17.8,2.62,34.47,8.54,50.36,16.89,11.63,6.11,23.47,11.82,35.84,16.34,11.9,4.35,24.03,7.83,36.67,9.27,8.01.91,15.57-.55,22.54-4.67.8-.48,1.4-1.3,2.1-1.96-.8-.47-1.54-1.13-2.41-1.39-11.35-3.48-22.01-8.5-32.35-14.25-10.9-6.06-21.75-12.22-32.7-18.19-4.37-2.38-8.76-5.02-13.48-6.43-11.01-3.29-22.31-5.33-37.81-5.63ZM439.89,13.96c-14.52.59-28.51,3.65-40.87,11.41-12.8,8.04-25.04,16.97-37.45,25.63-2.3,1.6-4.23,3.74-6.3,5.67-.32.3-.45.81-.67,1.22.55.21,1.09.53,1.65.6.65.08,1.32-.07,1.99-.11,10.35-.68,20.36-3.12,30.32-5.83,16.94-4.61,32.8-11.96,48.66-19.26,7.69-3.54,15.04-7.82,22.52-11.8.86-.46,1.56-1.2,2.34-1.8-.92-.65-1.77-1.46-2.78-1.92-6.16-2.8-12.62-4.13-19.42-3.8ZM182.75,14.06c-7.18-.2-14.45,1.27-21.29,4.63-.64.32-1.08,1.06-1.61,1.61.47.43.88.96,1.42,1.26,3.07,1.66,6.22,3.17,9.25,4.89,23.91,13.51,49.63,22.35,76.09,29.16,6.07,1.56,12.44,1.93,18.69,2.77.49.07,1.06-.44,1.59-.69-.32-.37-.58-.8-.96-1.09-7.04-5.28-14.02-10.65-21.16-15.8-10.52-7.58-21.35-14.7-33.2-20.12-9.01-4.12-18.37-6.79-28.82-6.63ZM325.71,35.72c.11-8.04-2.12-13.15-7.47-16.61-2.51-1.62-4.09-.91-4.65,1.98-.43,2.27-.53,4.62-1.01,6.88-.16.76-1.03,1.38-1.57,2.06-.63-.64-1.65-1.19-1.81-1.92-.44-2.1-.43-4.28-.76-6.41-.58-3.66-2.41-4.46-5.54-2.34-4.76,3.22-7.22,7.9-7.13,13.51.17,10.54,4.73,19.11,12.77,25.89,1.5,1.26,2.79,1.33,4.37.04,7.87-6.46,12.03-14.79,12.8-23.07ZM259.15,24.76c-1.77.55-4.67,1.21-7.38,2.35-2.5,1.05-2.49,1.81-.34,3.31,2.86,2,5.82,3.87,8.68,5.88,9.67,6.8,19.14,13.84,27.54,22.21.37.37,1.01.48,1.53.71-.07-.47-.08-.95-.21-1.41-1.95-7.05-3.84-14.12-7.7-20.44-4.77-7.79-11.7-12.02-22.11-12.62ZM362.53,25.23c-10,.75-17.48,4.38-22.49,12.35-3.86,6.15-5.7,13.04-7.28,20.02-.08.37.25.84.39,1.27.3-.13.64-.21.89-.41.51-.42.98-.89,1.45-1.36,7.13-7.01,14.77-13.41,22.93-19.18,3.67-2.59,7.44-5.02,11.12-7.6.73-.51,1.25-1.34,1.87-2.02-.79-.55-1.51-1.36-2.39-1.61-2.38-.67-4.83-1.1-6.5-1.47ZM291.89,18.42c-.56-.47-1.08-1.13-1.76-1.43-2.92-1.3-6.42,0-8.57,3.01-.98,1.37-1.14,2.46.17,3.89,1.86,2.03,3.4,4.37,5.08,6.57.91-2.47,1.78-4.96,2.75-7.41.42-1.06,1.06-2.03,1.59-3.05.22-.43.42-.88.74-1.58ZM333.96,16.81c-1.42.17-1.92.2-2.41.29-1.72.34-2.02,1.07-1.14,2.8.75,1.48,1.63,2.9,2.25,4.42.73,1.81,1.23,3.7,1.82,5.56,1.45-1.44,2.94-2.85,4.35-4.33,2.73-2.87,2.75-4.34-.33-6.59-1.54-1.12-3.49-1.67-4.54-2.15Z"/></g></svg>