<?xml version="1.0" encoding="UTF-8"?><svg id="Layer_2" xmlns="http://www.w3.org/2000/svg" viewBox="0 0 228.92 602.86"><defs><style>.cls-1{fill:#000;stroke-width:0px;}</style></defs><g id="Layer_1-2"><path class="cls-1" d="M60.71,125.81c-.23,13.38,2.74,27.8,8.49,41.68,4.02,9.68,9.79,18.11,17.52,25.26,4.76,4.41,10.3,6.09,16.53,5.48,8.82-.85,16.26-4.68,22.1-11.4,3.27-3.77,5.26-8.08,4.81-13.25-.07-.79.09-1.6.14-2.4.69.36,1.53.58,2.05,1.11,11.8,12.14,13.39,26.61,1.61,39.61-12.27,13.54-30.32,17.89-47.44,11.58-11.36-4.19-20.75-11.2-28.69-20.24-.99-1.13-1.9-2.32-2.9-3.44-.41-.46-.98-.78-1.48-1.16-.24.72-.77,1.47-.68,2.14.98,7.41,1.21,15.04,3.25,22.15,6.87,23.96,20.95,42.89,41.76,56.71,6.16,4.09,12.79,7.4,20.08,8.65,21.19,3.64,38.86-3.49,52.79-19.29,8.28-9.4,8.77-21.25,7.04-33.18-.24-1.65-.67-3.27-.91-4.91-.08-.57.15-1.18.23-1.78.6.21,1.35.27,1.79.67,1.85,1.66,3.89,3.22,5.38,5.18,12.48,16.45,14.47,34.3,6.55,53.24-2.75,6.58-7.33,11.91-13.12,16.09-21.61,15.58-44.7,18.82-69.4,8.17-9.88-4.26-18.64-10.3-26.84-17.2-.89-.75-1.72-1.58-2.66-2.27-.3-.23-.83-.15-1.26-.21.09.3.15.61.27.9.13.3.31.59.49.87,11.76,18.61,23.85,36.98,39.02,53.08,14.31,15.18,31.02,26.65,50.91,33.33,6.01,2.02,12.09,2.39,18.24,1.32,2.42-.42,4.86-1.26,7.04-2.39,1.34-.69,2.2-2.29,3.28-3.49-1.28-.51-2.53-1.25-3.86-1.5-10.23-1.98-19.13-18.16-9.76-29.35,5.18-6.19,11.65-9.87,19.68-10.62,4.11-.38,7.9.69,11.36,3.02,12.53,8.46,17.56,22.18,13.38,36.7-5.34,18.59-20.9,31.04-40.17,32.02-14.79.75-28.79-2.44-42.16-8.67-.96-.45-2.06-.61-3.1-.9.46,1.02.8,2.13,1.41,3.06,3.72,5.73,7.53,11.4,11.26,17.12,14.92,22.84,24.43,47.91,27.8,74.82,4.89,39.07-9.61,70.9-39.72,95.63-11.09,9.11-24.52,13.41-38.75,14.65-26.14,2.28-50.27-4.05-72.43-17.91-34.25-21.41-39.57-67.82-21.33-96.69,5.85-9.25,13.51-15.99,24.72-17.83,12.18-2,26.01,4.29,32.04,15.02,4.91,8.73,4.48,17.75-.69,26.15-5.18,8.42-13.1,12.57-23.07,12.4-4.47-.08-4.82.13-3.82,4.48,1.76,7.65,6.26,13.54,12.26,18.35,11.06,8.86,23.94,10.59,37.38,8.55,36.11-5.49,57.5-36.87,50.45-73.56-5.73-29.83-17.38-57.39-33.11-83.14-13.8-22.6-28.58-44.6-42.93-66.87-14.01-21.75-26.79-44.13-35.89-68.47-13.23-35.4-16.66-71.86-12-109.2,3.11-24.9,8.57-49.23,18.41-72.41,8.84-20.84,20.64-39.8,38.64-53.88C105.35,1.82,141.82-6.7,182.14,5.46c10.63,3.21,20.16,8.74,28.35,16.36,30.45,28.33,11.35,68.75-13.11,79.92-17.35,7.92-40.63.72-50.55-15.62-5.67-9.34-4.29-18.62.63-27.54,4.88-8.84,12.77-13.42,22.89-13.7,2.24-.06,4.68.56,6.73,1.49,2.33,1.07,3.35.04,3.44-1.79.11-2.24-.03-4.72-.87-6.75-2.47-5.96-7.5-9.19-13.37-11.2-7.9-2.71-16.07-2.71-24.23-1.81-9.33,1.03-18.24,3.7-26.96,7.16-21.49,8.52-36.25,23.7-45.05,44.93-6.28,15.13-9.38,30.87-9.33,48.9Z"/></g></svg>