<?xml version="1.0" encoding="UTF-8"?><svg id="Layer_2" xmlns="http://www.w3.org/2000/svg" xmlns:xlink="http://www.w3.org/1999/xlink" viewBox="0 0 970 490"><defs><style>.cls-1{fill:url(#linear-gradient);stroke-width:0px;}.cls-2{fill:#e5e5e5;stroke:#231f20;stroke-miterlimit:10;stroke-width:5px;}</style><linearGradient id="linear-gradient" x1="302.45" y1="-71.19" x2="667.55" y2="561.19" gradientUnits="userSpaceOnUse"><stop offset="0" stop-color="#666766"/><stop offset="1" stop-color="#000"/></linearGradient></defs><g id="Layer_1-2"><rect class="cls-2" x="5" y="5" width="960" height="480" rx="240" ry="240"/><path class="cls-1" d="M725,490H245c-65.44,0-126.97-25.48-173.24-71.76S0,310.44,0,245,25.48,118.03,71.76,71.76,179.56,0,245,0h480c65.44,0,126.97,25.48,173.24,71.76s71.76,107.8,71.76,173.24-25.48,126.97-71.76,173.24-107.8,71.76-173.24,71.76ZM245,10C115.42,10,10,115.42,10,245s105.42,235,235,235h480c129.58,0,235-105.42,235-235S854.58,10,725,10H245Z"/></g></svg>