<?xml version="1.0" encoding="UTF-8"?><svg id="Layer_2" xmlns="http://www.w3.org/2000/svg" xmlns:xlink="http://www.w3.org/1999/xlink" viewBox="0 0 1018.11 1071.21"><defs><style>.cls-1{font-family:VarieteeTheatre, 'Varieté Theatre';font-size:100px;}.cls-1,.cls-2{fill:#fff8e8;}.cls-3{fill:none;}.cls-3,.cls-4,.cls-2,.cls-5{stroke-width:0px;}.cls-4{fill:#231a23;}.cls-5{fill:#352c3e;}.cls-6{clip-path:url(#clippath);}</style><clipPath id="clippath"><rect class="cls-3" x="247.24" y="244" width="689.56" height="686.02"/></clipPath></defs><g id="Layer_1-2"><rect class="cls-4" x="18.11" y="16.85" width="1000" height="1000"/><rect class="cls-2" x="200.82" y="197.07" width="780" height="780"/><rect class="cls-5" x="490.92" y="544.03" width="54.37" height="1000" transform="translate(1562.14 525.92) rotate(90)"/><g class="cls-6"><g id="_Grid_Repeat_"><rect class="cls-4" x="239.74" y="236.5" width="60" height="60"/></g><g id="_Grid_Repeat_-2"><rect class="cls-4" x="309.74" y="236.5" width="60" height="60"/></g><g id="_Grid_Repeat_-3"><rect class="cls-4" x="379.74" y="236.5" width="60" height="60"/></g><g id="_Grid_Repeat_-4"><rect class="cls-4" x="449.74" y="236.5" width="60" height="60"/></g><g id="_Grid_Repeat_-5"><rect class="cls-4" x="519.74" y="236.5" width="60" height="60"/></g><g id="_Grid_Repeat_-6"><rect class="cls-4" x="589.74" y="236.5" width="60" height="60"/></g><g id="_Grid_Repeat_-7"><rect class="cls-4" x="659.74" y="236.5" width="60" height="60"/></g><g id="_Grid_Repeat_-8"><rect class="cls-4" x="729.74" y="236.5" width="60" height="60"/></g><g id="_Grid_Repeat_-9"><rect class="cls-4" x="799.74" y="236.5" width="60" height="60"/></g><g id="_Grid_Repeat_-10"><rect class="cls-4" x="869.74" y="236.5" width="60" height="60"/></g><g id="_Grid_Repeat_-11"><rect class="cls-4" x="239.74" y="306.5" width="60" height="60"/></g><g id="_Grid_Repeat_-12"><rect class="cls-4" x="309.74" y="306.5" width="60" height="60"/></g><g id="_Grid_Repeat_-13"><rect class="cls-4" x="379.74" y="306.5" width="60" height="60"/></g><g id="_Grid_Repeat_-14"><rect class="cls-4" x="449.74" y="306.5" width="60" height="60"/></g><g id="_Grid_Repeat_-15"><rect class="cls-4" x="519.74" y="306.5" width="60" height="60"/></g><g id="_Grid_Repeat_-16"><rect class="cls-4" x="589.74" y="306.5" width="60" height="60"/></g><g id="_Grid_Repeat_-17"><rect class="cls-4" x="659.74" y="306.5" width="60" height="60"/></g><g id="_Grid_Repeat_-18"><rect class="cls-4" x="729.74" y="306.5" width="60" height="60"/></g><g id="_Grid_Repeat_-19"><rect class="cls-4" x="799.74" y="306.5" width="60" height="60"/></g><g id="_Grid_Repeat_-20"><rect class="cls-4" x="869.74" y="306.5" width="60" height="60"/></g><g id="_Grid_Repeat_-21"><rect class="cls-4" x="239.74" y="376.5" width="60" height="60"/></g><g id="_Grid_Repeat_-22"><rect class="cls-4" x="309.74" y="376.5" width="60" height="60"/></g><g id="_Grid_Repeat_-23"><rect class="cls-4" x="379.74" y="376.5" width="60" height="60"/></g><g id="_Grid_Repeat_-24"><rect class="cls-4" x="449.74" y="376.5" width="60" height="60"/></g><g id="_Grid_Repeat_-25"><rect class="cls-4" x="519.74" y="376.5" width="60" height="60"/></g><g id="_Grid_Repeat_-26"><rect class="cls-4" x="589.74" y="376.5" width="60" height="60"/></g><g id="_Grid_Repeat_-27"><rect class="cls-4" x="659.74" y="376.5" width="60" height="60"/></g><g id="_Grid_Repeat_-28"><rect class="cls-4" x="729.74" y="376.5" width="60" height="60"/></g><g id="_Grid_Repeat_-29"><rect class="cls-4" x="799.74" y="376.5" width="60" height="60"/></g><g id="_Grid_Repeat_-30"><rect class="cls-4" x="869.74" y="376.5" width="60" height="60"/></g><g id="_Grid_Repeat_-31"><rect class="cls-4" x="239.74" y="446.5" width="60" height="60"/></g><g id="_Grid_Repeat_-32"><rect class="cls-4" x="309.74" y="446.5" width="60" height="60"/></g><g id="_Grid_Repeat_-33"><rect class="cls-4" x="379.74" y="446.5" width="60" height="60"/></g><g id="_Grid_Repeat_-34"><rect class="cls-4" x="449.74" y="446.5" width="60" height="60"/></g><g id="_Grid_Repeat_-35"><rect class="cls-4" x="519.74" y="446.5" width="60" height="60"/></g><g id="_Grid_Repeat_-36"><rect class="cls-4" x="589.74" y="446.5" width="60" height="60"/></g><g id="_Grid_Repeat_-37"><rect class="cls-4" x="659.74" y="446.5" width="60" height="60"/></g><g id="_Grid_Repeat_-38"><rect class="cls-4" x="729.74" y="446.5" width="60" height="60"/></g><g id="_Grid_Repeat_-39"><rect class="cls-4" x="799.74" y="446.5" width="60" height="60"/></g><g id="_Grid_Repeat_-40"><rect class="cls-4" x="869.74" y="446.5" width="60" height="60"/></g><g id="_Grid_Repeat_-41"><rect class="cls-4" x="239.74" y="516.5" width="60" height="60"/></g><g id="_Grid_Repeat_-42"><rect class="cls-4" x="309.74" y="516.5" width="60" height="60"/></g><g id="_Grid_Repeat_-43"><rect class="cls-4" x="379.74" y="516.5" width="60" height="60"/></g><g id="_Grid_Repeat_-44"><rect class="cls-4" x="449.74" y="516.5" width="60" height="60"/></g><g id="_Grid_Repeat_-45"><rect class="cls-4" x="519.74" y="516.5" width="60" height="60"/></g><g id="_Grid_Repeat_-46"><rect class="cls-4" x="589.74" y="516.5" width="60" height="60"/></g><g id="_Grid_Repeat_-47"><rect class="cls-4" x="659.74" y="516.5" width="60" height="60"/></g><g id="_Grid_Repeat_-48"><rect class="cls-4" x="729.74" y="516.5" width="60" height="60"/></g><g id="_Grid_Repeat_-49"><rect class="cls-4" x="799.74" y="516.5" width="60" height="60"/></g><g id="_Grid_Repeat_-50"><rect class="cls-4" x="869.74" y="516.5" width="60" height="60"/></g><g id="_Grid_Repeat_-51"><rect class="cls-4" x="239.74" y="586.5" width="60" height="60"/></g><g id="_Grid_Repeat_-52"><rect class="cls-4" x="309.74" y="586.5" width="60" height="60"/></g><g id="_Grid_Repeat_-53"><rect class="cls-4" x="379.74" y="586.5" width="60" height="60"/></g><g id="_Grid_Repeat_-54"><rect class="cls-4" x="449.74" y="586.5" width="60" height="60"/></g><g id="_Grid_Repeat_-55"><rect class="cls-4" x="519.74" y="586.5" width="60" height="60"/></g><g id="_Grid_Repeat_-56"><rect class="cls-4" x="589.74" y="586.5" width="60" height="60"/></g><g id="_Grid_Repeat_-57"><rect class="cls-4" x="659.74" y="586.5" width="60" height="60"/></g><g id="_Grid_Repeat_-58"><rect class="cls-4" x="729.74" y="586.5" width="60" height="60"/></g><g id="_Grid_Repeat_-59"><rect class="cls-4" x="799.74" y="586.5" width="60" height="60"/></g><g id="_Grid_Repeat_-60"><rect class="cls-4" x="869.74" y="586.5" width="60" height="60"/></g><g id="_Grid_Repeat_-61"><rect class="cls-4" x="239.74" y="656.5" width="60" height="60"/></g><g id="_Grid_Repeat_-62"><rect class="cls-4" x="309.74" y="656.5" width="60" height="60"/></g><g id="_Grid_Repeat_-63"><rect class="cls-4" x="379.74" y="656.5" width="60" height="60"/></g><g id="_Grid_Repeat_-64"><rect class="cls-4" x="449.74" y="656.5" width="60" height="60"/></g><g id="_Grid_Repeat_-65"><rect class="cls-4" x="519.74" y="656.5" width="60" height="60"/></g><g id="_Grid_Repeat_-66"><rect class="cls-4" x="589.74" y="656.5" width="60" height="60"/></g><g id="_Grid_Repeat_-67"><rect class="cls-4" x="659.74" y="656.5" width="60" height="60"/></g><g id="_Grid_Repeat_-68"><rect class="cls-4" x="729.74" y="656.5" width="60" height="60"/></g><g id="_Grid_Repeat_-69"><rect class="cls-4" x="799.74" y="656.5" width="60" height="60"/></g><g id="_Grid_Repeat_-70"><rect class="cls-4" x="869.74" y="656.5" width="60" height="60"/></g><g id="_Grid_Repeat_-71"><rect class="cls-4" x="239.74" y="726.5" width="60" height="60"/></g><g id="_Grid_Repeat_-72"><rect class="cls-4" x="309.74" y="726.5" width="60" height="60"/></g><g id="_Grid_Repeat_-73"><rect class="cls-4" x="379.74" y="726.5" width="60" height="60"/></g><g id="_Grid_Repeat_-74"><rect class="cls-4" x="449.74" y="726.5" width="60" height="60"/></g><g id="_Grid_Repeat_-75"><rect class="cls-4" x="519.74" y="726.5" width="60" height="60"/></g><g id="_Grid_Repeat_-76"><rect class="cls-4" x="589.74" y="726.5" width="60" height="60"/></g><g id="_Grid_Repeat_-77"><rect class="cls-4" x="659.74" y="726.5" width="60" height="60"/></g><g id="_Grid_Repeat_-78"><rect class="cls-4" x="729.74" y="726.5" width="60" height="60"/></g><g id="_Grid_Repeat_-79"><rect class="cls-4" x="799.74" y="726.5" width="60" height="60"/></g><g id="_Grid_Repeat_-80"><rect class="cls-4" x="869.74" y="726.5" width="60" height="60"/></g><g id="_Grid_Repeat_-81"><rect class="cls-4" x="239.74" y="796.5" width="60" height="60"/></g><g id="_Grid_Repeat_-82"><rect class="cls-4" x="309.74" y="796.5" width="60" height="60"/></g><g id="_Grid_Repeat_-83"><rect class="cls-4" x="379.74" y="796.5" width="60" height="60"/></g><g id="_Grid_Repeat_-84"><rect class="cls-4" x="449.74" y="796.5" width="60" height="60"/></g><g id="_Grid_Repeat_-85"><rect class="cls-4" x="519.74" y="796.5" width="60" height="60"/></g><g id="_Grid_Repeat_-86"><rect class="cls-4" x="589.74" y="796.5" width="60" height="60"/></g><g id="_Grid_Repeat_-87"><rect class="cls-4" x="659.74" y="796.5" width="60" height="60"/></g><g id="_Grid_Repeat_-88"><rect class="cls-4" x="729.74" y="796.5" width="60" height="60"/></g><g id="_Grid_Repeat_-89"><rect class="cls-4" x="799.74" y="796.5" width="60" height="60"/></g><g id="_Grid_Repeat_-90"><rect class="cls-4" x="869.74" y="796.5" width="60" height="60"/></g><g id="_Grid_Repeat_-91"><rect class="cls-4" x="239.74" y="866.5" width="60" height="60"/></g><g id="_Grid_Repeat_-92"><rect class="cls-4" x="309.74" y="866.5" width="60" height="60"/></g><g id="_Grid_Repeat_-93"><rect class="cls-4" x="379.74" y="866.5" width="60" height="60"/></g><g id="_Grid_Repeat_-94"><rect class="cls-4" x="449.74" y="866.5" width="60" height="60"/></g><g id="_Grid_Repeat_-95"><rect class="cls-4" x="519.74" y="866.5" width="60" height="60"/></g><g id="_Grid_Repeat_-96"><rect class="cls-4" x="589.74" y="866.5" width="60" height="60"/></g><g id="_Grid_Repeat_-97"><rect class="cls-4" x="659.74" y="866.5" width="60" height="60"/></g><g id="_Grid_Repeat_-98"><rect class="cls-4" x="729.74" y="866.5" width="60" height="60"/></g><g id="_Grid_Repeat_-99"><rect class="cls-4" x="799.74" y="866.5" width="60" height="60"/></g><g id="_Grid_Repeat_-100"><rect class="cls-4" x="869.74" y="866.5" width="60" height="60"/></g></g><text class="cls-1" transform="translate(74.71 160.95) rotate(-13)"><tspan x="0" y="0">C</tspan></text></g></svg>