<?xml version="1.0" encoding="UTF-8"?><svg xmlns="http://www.w3.org/2000/svg" xmlns:xlink="http://www.w3.org/1999/xlink" viewBox="0 0 406.11 716.33"><defs><style>.cls-1{fill:#251f27;}.cls-1,.cls-2,.cls-3,.cls-4,.cls-5,.cls-6,.cls-7,.cls-8,.cls-9,.cls-10,.cls-11,.cls-12,.cls-13{stroke-width:0px;}.cls-2,.cls-14{fill:#231f20;}.cls-3{fill:#deb027;}.cls-4{fill:#aa672e;}.cls-5{mix-blend-mode:overlay;}.cls-5,.cls-15{fill:#f2f1f2;}.cls-16{clip-path:url(#clippath-2);}.cls-6{fill:#0c0b0c;}.cls-17{isolation:isolate;}.cls-15{stroke:#e0e1e1;stroke-miterlimit:10;stroke-width:8px;}.cls-7,.cls-18{fill:none;}.cls-19{clip-path:url(#clippath-1);}.cls-20{clip-path:url(#clippath-4);}.cls-8{fill:#010101;}.cls-9{fill:#eae179;}.cls-18{stroke:#fff;stroke-width:.64px;}.cls-10{fill:#ca905f;}.cls-21{clip-path:url(#clippath);}.cls-11{fill:#fff;}.cls-12{fill:#a36a2b;}.cls-13{fill:#170f2a;}.cls-14{filter:url(#drop-shadow-1);font-family:Parchment-Regular, Parchment;font-size:70px;}</style><clipPath id="clippath"><rect class="cls-7" y="478.56" width="405.67" height="158.04"/></clipPath><clipPath id="clippath-1"><rect class="cls-7" x="13.89" y="508.48" width="99.49" height="98.19"/></clipPath><clipPath id="clippath-2"><rect class="cls-7" x="13.89" y="508.48" width="99.49" height="98.19"/></clipPath><clipPath id="clippath-4"><rect class="cls-7" x="13.89" y="508.48" width="99.49" height="98.19"/></clipPath><filter id="drop-shadow-1" filterUnits="userSpaceOnUse"><feOffset dx="0" dy="2"/><feGaussianBlur result="blur" stdDeviation="0"/><feFlood flood-color="#f2f1f2" flood-opacity="1"/><feComposite in2="blur" operator="in"/><feComposite in="SourceGraphic"/></filter></defs><g class="cls-17"><g id="Layer_2"><g id="Layer_7"><rect class="cls-15" x="4.45" y="185.94" width="397.65" height="526.39"/><rect class="cls-6" x="23.28" y="208.45" width="360" height="480.21"/><rect class="cls-3" y="478.56" width="405.67" height="158.04"/><g class="cls-21"><polygon class="cls-9" points="143.88 258.32 -17.2 347.49 -20.52 531.58 137.25 626.49 298.33 537.31 301.64 353.23 143.88 258.32"/></g><rect class="cls-12" y="478.49" width="405.67" height="15.29"/><g class="cls-19"><g class="cls-16"><path class="cls-8" d="M37.4,556.75l4.96,9.59c.6,1.17,2.17,1.41,3.1.48l4.63-4.63c.93-.93.69-2.5-.48-3.1l-9.59-4.96c-1.68-.87-3.49.94-2.62,2.62"/><path class="cls-8" d="M39.7,574.2l-1.84,3.19-.72,1.25c-.11-.14-.22-.29-.33-.44-.63-.86-1.23-1.74-1.77-2.66-.12-.2-.24-.4-.35-.6-.9-1.57-1.68-3.22-2.31-4.94l1.58.35,2.32.51.49.11,1.67.37c.24.05.46.15.65.27.83.54,1.15,1.67.62,2.6"/><path class="cls-8" d="M90.84,556.54l-4.96,9.59c-.6,1.17-2.17,1.41-3.1.48l-4.63-4.63c-.93-.93-.69-2.5.48-3.1l9.59-4.96c1.68-.87,3.49.94,2.62,2.62"/><path class="cls-8" d="M94.9,569.8c-.54,1.49-1.18,2.93-1.92,4.31-.16.3-.33.61-.5.9h0c-.48.83-.99,1.64-1.53,2.43-.24.34-.49.68-.74,1.02l-.69-1.2-1.89-3.28c-.62-1.07-.09-2.41,1.04-2.8.07-.03.15-.05.23-.07l1.88-.41.73-.16,1.92-.42,1.48-.32Z"/><path class="cls-11" d="M54.64,598.23c-.19.32-.42.62-.71.88l.71-.88Z"/><path class="cls-11" d="M91.93,573.39c-.32-.87-.69-1.73-1.1-2.58-.02-.04-.03-.07-.05-.11-1.12-2.28-2.44-4.28-4.07-6.15-.38-.44-.78-.87-1.2-1.3-1.89-1.93-3.86-3.49-6.07-4.79-.47-.28-.95-.54-1.44-.79-2.31-1.12-4.79-1.97-7.39-2.51-2.16-.45-4.4-.69-6.7-.69h-.04c-.06,0-.11,0-.17,0-.17,0-.35,0-.52,0-.04,0-.08,0-.12,0h-.02c-2.01.05-3.98.28-5.88.67-2.83.59-5.52,1.54-8,2.8-.28.15-.55.31-.82.47-1.23.73-2.44,1.55-3.58,2.46-.84.67-2.35,2.14-3.47,3.35-.39.42-.73.81-.98,1.13-1.41,1.77-2.59,3.64-3.53,5.6-.44.92-.83,1.87-1.18,2.84h0c-.2.57-.38,1.15-.55,1.73.55.92,1.14,1.8,1.77,2.66.11.15.22.29.33.44,5.4,7.06,13.56,11.91,22.86,12.92.62.07,1.24.12,1.87.15.33.02.66.03.99.04.22,0,.44,0,.66,0,.52,0,1.03,0,1.55-.03.3-.01.61-.03.91-.05.66-.05,1.31-.11,1.95-.2,9.08-1.18,17.02-6.03,22.27-13.01.25-.33.5-.67.74-1.02.55-.79,1.06-1.59,1.53-2.43h0c-.17-.55-.35-1.09-.55-1.63M53.93,599.11c.28-.25.52-.55.71-.88l-.71.88Z"/><path class="cls-11" d="M65.89,590.38c-.11-1.49-.23-3.04-.35-4.62-.52-6.91-1-13.03-1.3-16.66,0-.08-.01-.15-.02-.22h0c-.17-2.06-.27-3.25-.29-3.25-.01,0-.06.52-.14,1.47h0c-.05.53-.1,1.18-.16,1.95-.3,3.62-.78,9.78-1.3,16.72-.12,1.59-.24,3.16-.35,4.66-.03.44-.07.87-.1,1.3.33.02.66.03.99.04.22,0,.44,0,.66,0,.52,0,1.03,0,1.55-.03.3-.01.61-.03.91-.05-.03-.43-.07-.86-.1-1.3"/><path class="cls-11" d="M71.09,553.58c0-2.4-3.23-4.34-7.21-4.34s-7.21,1.94-7.21,4.34,3.23,4.34,7.21,4.34,7.21-1.94,7.21-4.34"/><path class="cls-2" d="M53.93,599.11c.28-.25.52-.55.71-.88l-.71.88ZM53.93,599.11c.28-.25.52-.55.71-.88l-.71.88ZM53.93,599.11c.28-.25.52-.55.71-.88l-.71.88ZM53.93,599.11c.28-.25.52-.55.71-.88l-.71.88ZM53.93,599.11c.28-.25.52-.55.71-.88l-.71.88ZM53.93,599.11c.28-.25.52-.55.71-.88l-.71.88ZM53.93,599.11c.28-.25.52-.55.71-.88l-.71.88ZM53.93,599.11c.28-.25.52-.55.71-.88l-.71.88ZM53.93,599.11c.28-.25.52-.55.71-.88l-.71.88ZM53.93,599.11c.28-.25.52-.55.71-.88l-.71.88ZM53.93,599.11c.28-.25.52-.55.71-.88l-.71.88ZM53.93,599.11c.28-.25.52-.55.71-.88l-.71.88ZM53.93,599.11c.28-.25.52-.55.71-.88l-.71.88ZM53.93,599.11c.28-.25.52-.55.71-.88l-.71.88ZM53.93,599.11c.28-.25.52-.55.71-.88l-.71.88ZM53.93,599.11c.28-.25.52-.55.71-.88l-.71.88ZM53.93,599.11c.28-.25.52-.55.71-.88l-.71.88ZM53.93,599.11c.28-.25.52-.55.71-.88l-.71.88ZM53.93,599.11c.28-.25.52-.55.71-.88l-.71.88ZM53.93,599.11c.28-.25.52-.55.71-.88l-.71.88ZM92.38,572.5c-.25-.61-.52-1.21-.81-1.81-.02-.05-.05-.1-.07-.15-1.21-2.46-2.67-4.62-4.47-6.63-.29-.32-.59-.64-.9-.96-1.9-1.94-3.87-3.51-6.07-4.81-.53-.31-1.06-.61-1.62-.9-.42-.21-.84-.42-1.28-.62-.94-.43-2.97-1.23-3.14-1.23-.05,0-.11-.1-.13-.21-.14-.62-.36-1.39-.56-1.91-.61-1.56-1.86-3.2-3.25-4.26l-.46-.35.03-.07h-.02s-.23-.13-.23-.13l-.71-.38h-.02s0,0-.01-.01c-1.19-.52-1.9-.76-2.77-.92-.14-.02-.28-.05-.42-.07-1.17-.17-2.41-.13-3.58.11-.7.15-1.38.36-2,.65-.31.14-.59.24-.62.21h-.02s-.93.52-.93.52l-.04.02s-.02.04-.06.08h0c-.11.12-.35.33-.63.56-1.06.86-1.91,1.9-2.53,3.09-.45.87-.63,1.35-.86,2.26-.1.41-.19.76-.21.77-.01,0-.34.12-.74.26-1.42.49-2.87,1.14-4.3,1.92-.37.2-.74.42-1.11.64-1.17.71-2.31,1.5-3.4,2.36-.82.65-2.27,2.06-3.4,3.26-.46.5-.87.96-1.16,1.32-1.45,1.82-2.65,3.73-3.61,5.74-.37.77-.7,1.56-1,2.36-.21.57-.41,1.14-.58,1.73.11.2.23.4.35.6.55.92,1.14,1.8,1.77,2.66.02-.11.05-.22.07-.34.1-.46.21-.92.34-1.38.46-1.68,1.09-3.32,1.86-4.88.92-1.86,2.04-3.61,3.33-5.18.72-.88,1.49-1.69,2.3-2.44,1.78-1.63,3.71-3.01,5.72-4.1,2.87-1.56,5.91-2.55,8.99-2.9h0c.07,0,.14-.02.22-.02.15-.02.57-.03.93-.04h.67s0,.77,0,.77c0,.43-.02.94-.05,1.13l-.05.34-.6.16c-2.16.58-3.92,2.06-4.9,4.12-.56,1.19-.69,1.79-.68,3.26,0,1.37.1,1.88.56,2.98.84,2.01,2.74,3.67,4.97,4.33.09.03.14.12.14.26,0,.27-.28,7.86-.57,15.98-.02.43-.03.87-.05,1.3.62.07,1.24.12,1.87.15.33.02.66.03.99.04.02-.43.03-.86.05-1.3.09-2.29.18-4.75.27-7.29.2-5.5.39-10.51.53-14.17.03-.68.05-1.31.07-1.89h0c.1-2.67.17-4.25.18-4.25.01,0,.1,2.31.25,6.03h0c0,.07,0,.15,0,.22.14,3.66.33,8.62.53,14.07.09,2.54.18,4.99.27,7.27.02.44.03.87.05,1.3.3-.01.61-.03.91-.05.66-.05,1.31-.11,1.95-.2-.02-.44-.03-.87-.05-1.31-.3-8.2-.56-15.84-.55-15.94.02-.15.11-.21.52-.35,2.13-.72,3.91-2.42,4.69-4.52.52-1.39.63-3.22.26-4.59-.71-2.63-2.8-4.74-5.4-5.44l-.6-.16-.05-.34c-.03-.19-.05-.7-.05-1.14v-.8l1.01.05c.19,0,.4.02.62.04.43.03.87.08,1.15.12,2.74.42,5.57,1.43,8.19,2.87,2.59,1.42,5,3.27,6.94,5.39.34.38.68.76.99,1.15,1.18,1.45,2.2,3.01,3.05,4.66.76,1.48,1.38,3.03,1.85,4.63.16.54.3,1.09.43,1.64.55-.79,1.06-1.59,1.53-2.43h0c.17-.3.34-.6.5-.91-.18-.54-.38-1.08-.6-1.61M64.03,553.97h-.04c-.06,0-.11,0-.17,0-.17,0-.35,0-.53,0-.04,0-.08,0-.13,0h-.02c-2.58.04-3.5.11-5.13.4-.37.07-.69.1-.71.08-.07-.07.32-.86.7-1.43.23-.34.48-.66.75-.95.08-.09.17-.18.26-.26.21-.2.42-.38.65-.56,0,0,.02-.01.03-.02.67-.5,1.43-.88,2.25-1.12.28-.08.57-.15.87-.19.1-.02.21-.03.33-.03.4-.03.91-.02,1.41.01.47.03.93.09,1.23.16.02,0,.04,0,.06.01,1.09.29,2.06.81,2.88,1.54.11.1.22.2.33.31.33.33.63.7.9,1.1.36.54.77,1.37.71,1.43-.02.02-.56-.05-1.2-.15-1.78-.28-2.98-.36-5.42-.34M53.93,599.11c.28-.25.52-.55.71-.88l-.71.88ZM53.93,599.11c.28-.25.52-.55.71-.88l-.71.88ZM53.93,599.11c.28-.25.52-.55.71-.88l-.71.88ZM53.93,599.11c.28-.25.52-.55.71-.88l-.71.88ZM53.93,599.11c.28-.25.52-.55.71-.88l-.71.88ZM53.93,599.11c.28-.25.52-.55.71-.88l-.71.88ZM53.93,599.11c.28-.25.52-.55.71-.88l-.71.88ZM53.93,599.11c.28-.25.52-.55.71-.88l-.71.88ZM53.93,599.11c.28-.25.52-.55.71-.88l-.71.88ZM53.93,599.11c.28-.25.52-.55.71-.88l-.71.88ZM53.93,599.11c.28-.25.52-.55.71-.88l-.71.88ZM53.93,599.11c.28-.25.52-.55.71-.88l-.71.88ZM53.93,599.11c.28-.25.52-.55.71-.88l-.71.88ZM53.93,599.11c.28-.25.52-.55.71-.88l-.71.88ZM53.93,599.11c.28-.25.52-.55.71-.88l-.71.88ZM60.05,590.26c-.02.43-.03.87-.05,1.3.62.07,1.24.12,1.87.15.03-.43.07-.86.1-1.3-.65-.03-1.29-.08-1.92-.15M53.93,599.11c.28-.25.52-.55.71-.88l-.71.88ZM53.93,599.11c.28-.25.52-.55.71-.88l-.71.88ZM53.93,599.11c.28-.25.52-.55.71-.88l-.71.88ZM53.93,599.11c.28-.25.52-.55.71-.88l-.71.88ZM53.93,599.11c.28-.25.52-.55.71-.88l-.71.88Z"/><path class="cls-2" d="M47.71,566.96c-1.78.43-2.99,2.21-2.72,3.99.16,1.05.74,1.93,1.64,2.52.62.41,1.25.56,2.13.52.63-.03.78-.07,1.3-.31.78-.37,1.33-.92,1.71-1.7.25-.52.28-.67.31-1.3.04-.88-.11-1.5-.52-2.13-.85-1.31-2.39-1.94-3.86-1.58"/><path class="cls-2" d="M53.16,577.86c-1.83.29-3.47,1.67-4.05,3.42-.22.67-.28,2.04-.11,2.76.41,1.73,1.9,3.24,3.67,3.69,1.74.44,3.5-.05,4.8-1.33.51-.51.68-.73.96-1.33.43-.89.54-1.43.5-2.48-.05-1.34-.49-2.32-1.43-3.28-.59-.59-1.26-1-2.06-1.26-.65-.21-1.65-.29-2.28-.19"/><path class="cls-2" d="M54.64,598.23c-.19.32-.42.62-.71.88l.71-.88Z"/><path class="cls-2" d="M79.83,566.97c-1.24.27-2.32,1.29-2.65,2.5-.1.36-.12.68-.1,1.2.03.63.06.78.3,1.28.57,1.19,1.48,1.86,2.79,2.04,2.22.31,4.24-1.63,4.02-3.86-.13-1.26-.86-2.32-1.99-2.87-.84-.41-1.48-.49-2.38-.3"/><path class="cls-2" d="M73.18,577.86c-1.83.29-3.47,1.67-4.05,3.42-.22.67-.28,2.04-.11,2.76.41,1.73,1.9,3.24,3.67,3.69,1.74.44,3.51-.04,4.8-1.33,1.09-1.09,1.52-2.18,1.46-3.76-.05-1.38-.47-2.36-1.43-3.33-.59-.59-1.26-1-2.06-1.26-.65-.21-1.65-.29-2.28-.19"/><path class="cls-2" d="M59.24,548.17c0-.07-.02-.13-.04-.19-.05-.12-.14-.34-.22-.59-.44-1.28-1.31-2.74-2.27-3.86-1.56-1.79-4.02-3.16-6.43-3.57-.59-.1-.65-.13-.91-.43-.46-.54-1.08-.72-1.68-.51-.32.12-.7.47-.83.79-.13.31-.13.87,0,1.18.23.55.99.96,1.56.85.4-.08.64-.22.95-.58l.08-.09c.12-.14.31-.21.49-.17l.25.04c2.56.46,5.04,2.12,6.6,4.43.53.78,1.26,2.32,1.43,2.93.03.13.12.24.23.31.36.22.81-.05.8-.46v-.09Z"/><path class="cls-2" d="M69.47,548.74c.1-.06.18-.16.22-.27l.16-.44c1.1-3.05,3.47-5.48,6.36-6.52.62-.22,1.69-.49,1.95-.49.1,0,.23.1.34.27.22.32.83.65,1.21.65s.9-.28,1.18-.64c.06-.08.23-.34.23-.84s-.3-.92-.3-.92c-.28-.35-.73-.56-1.11-.56s-.99.33-1.23.67c-.19.27-.23.29-.8.38-3.46.51-6.67,2.95-8.25,6.27-.2.43-.45,1.02-.55,1.32-.06.19-.13.35-.18.44-.04.07-.06.15-.07.24-.02.42.45.69.81.47h.02Z"/><path class="cls-2" d="M66.68,570.81c-.14,0-.28-.03-.4-.1l-2.41-1.27-2.41,1.27c-.12.07-.26.1-.4.1-.25,0-.5-.11-.66-.31-.16-.19-.23-.45-.19-.7l.46-2.68-1.95-1.9c-.24-.23-.32-.57-.22-.89.1-.31.37-.54.7-.59l2.69-.39,1.2-2.44c.15-.3.44-.48.77-.48s.63.18.77.48l1.2,2.44,2.69.39c.33.05.59.27.7.59.1.31.02.65-.22.89l-1.95,1.9.46,2.68c.04.25-.03.51-.19.7-.17.2-.41.31-.66.31"/><path class="cls-11" d="M63.87,560.9c.14,0,.28.07.35.22l1.23,2.48c.06.11.17.19.29.21l2.74.4c.32.05.44.44.21.66l-1.98,1.93c-.09.09-.13.22-.11.34l.47,2.73c.04.25-.16.45-.38.45-.06,0-.12-.01-.18-.05l-2.45-1.29c-.06-.03-.12-.04-.18-.04s-.12.01-.18.04l-2.45,1.29c-.06.03-.12.05-.18.05-.23,0-.42-.2-.38-.45l.47-2.73c.02-.13-.02-.25-.11-.34l-1.98-1.93c-.23-.22-.1-.61.21-.66l2.74-.4c.13-.02.24-.1.29-.21l1.23-2.48c.07-.14.21-.22.35-.22M63.87,559.95c-.51,0-.97.29-1.2.75l-1.09,2.22-2.45.36c-.51.07-.92.42-1.08.91-.16.49-.03,1.01.34,1.37l1.77,1.73-.42,2.44c-.07.39.04.79.29,1.09.26.3.63.48,1.03.48.22,0,.43-.05.62-.15l2.19-1.15,2.19,1.15c.19.1.41.15.62.15.4,0,.77-.17,1.03-.48.25-.3.36-.7.29-1.09l-.42-2.44,1.77-1.73c.37-.36.5-.88.34-1.37-.16-.49-.57-.84-1.08-.91l-2.45-.36-1.09-2.22c-.23-.46-.69-.75-1.2-.75"/><path class="cls-2" d="M62.21,551.21c0,1.09-.73,1.98-1.63,1.98s-1.63-.89-1.63-1.98.73-1.98,1.63-1.98,1.63.89,1.63,1.98"/><path class="cls-18" d="M62.21,551.21c0,1.09-.73,1.98-1.63,1.98s-1.63-.89-1.63-1.98.73-1.98,1.63-1.98,1.63.89,1.63,1.98Z"/><path class="cls-2" d="M68.75,551.21c0,1.09-.73,1.98-1.63,1.98s-1.63-.89-1.63-1.98.73-1.98,1.63-1.98,1.63.89,1.63,1.98"/><path class="cls-18" d="M68.75,551.21c0,1.09-.73,1.98-1.63,1.98s-1.63-.89-1.63-1.98.73-1.98,1.63-1.98,1.63.89,1.63,1.98Z"/></g><g class="cls-20"><path class="cls-2" d="M30,546.5c.64-3.2,1.09-6.54,1.99-9.74,2.12-7.57,6.8-13.12,13.89-16.57.74-.36,1.55-.59,2.34-.84.61-.19,1.23-.33,1.95-.52-.08.25-.13.41-.19.57-.86,2.47-1.76,4.93-2.57,7.42-.4,1.22-1.03,2.08-2.15,2.81-8.96,5.82-14.25,14.06-15.7,24.65-1.93,14.08,5.47,28.24,18.14,34.71,3.56,1.82,7.38,3.01,11.34,3.68.34.06.68.13,1.21.23-.32.66-.49,1.34-.9,1.81-.51.59-1.16,1.15-1.86,1.49-1.39.68-2.82,1.35-4.3,1.75-1.05.28-2.24.26-3.33.1-2.4-.33-4.65.08-6.79,1.11-1.54.74-3.02,1.58-4.61,2.43-.19-2.73.79-5.05,2.3-7.18,1.52-2.14,3.41-3.78,6.14-4.16-.61-1.01-1.74-1.58-2.91-1.23-1.24.38-2.5.86-3.59,1.54-2.18,1.36-4.48,2.16-7.04,2.16-3.04,0-5.96.31-8.2,2.96-.32-1.97-.25-3.72.19-5.45.57-2.25,1.54-4.28,3.26-5.89,1.01-.94,2.15-1.35,3.6-1.11,1.11.18,2.28,0,3.42-.09.33-.03.65-.28.92-.61-.19,0-.39-.03-.58,0-3.17.5-6.13-.08-8.87-1.73-1.31-.79-2.57-1.64-3.85-2.48-2.15-1.4-4.44-2.38-7.31-2.23,1.88-2.2,3.86-3.9,6.44-4.84,2.7-.99,5.19-.33,7.56,1.09.04-.05.08-.1.12-.15-.19-.22-.33-.5-.57-.64-1.04-.61-2.04-1.33-3.16-1.73-2.92-1.04-5.26-2.8-7.15-5.24-1.28-1.66-3.04-2.59-5.29-2.92,1.28-1.44,2.77-2.29,4.47-2.79,1.75-.51,3.49-.47,5.21.17,1.69.64,2.97,1.82,4.1,3.22-.2-1.28-.79-2.35-1.57-3.3-.5-.62-1.03-1.27-1.68-1.71-2.35-1.59-3.3-3.96-3.69-6.59-.72-4.83.67-9.26,2.85-13.68,3.33,2.5,6.17,5.19,6.41,9.51"/><path class="cls-2" d="M102.03,595.56c-1.48-1.63-3.31-2.55-5.48-2.72-1.15-.09-2.3-.12-3.45-.17-2.06-.09-3.9-.78-5.68-1.79-1.29-.74-2.66-1.37-4.07-1.83-1.15-.38-2.2.11-3.05,1.18,2.81.4,4.72,2.04,6.25,4.19,1.5,2.12,2.47,4.43,2.3,7.26-.32-.18-.56-.32-.79-.46-2.34-1.42-4.71-2.83-7.49-3.15-1.31-.15-2.67,0-4,.11-1.18.1-2.3,0-3.37-.52-1.22-.6-2.47-1.16-3.63-1.87-1.02-.63-1.6-1.63-1.74-2.95.42-.07.83-.13,1.24-.21,15.28-2.93,24.94-13.49,27.98-25.96,3.53-14.48-2.73-29.54-15.47-37.34-.71-.44-1.17-.97-1.41-1.74-.64-1.99-1.28-3.97-1.95-5.95-.31-.91-.71-1.78-1.12-2.81.75.2,1.41.36,2.06.54,5.04,1.4,8.69,4.71,11.87,8.66,3.01,3.74,4.44,8.14,5.25,12.78.34,1.92.6,3.84.96,5.81.29-4.42,3.14-7.1,6.38-9.59.12.13.21.2.25.28,1.87,3.74,3.07,7.65,2.86,11.89-.09,1.78-.39,3.54-1.3,5.09-.55.95-1.29,1.85-2.12,2.56-1.53,1.29-2.79,2.73-3.53,4.6-.09.24-.16.49-.17.82,2.24-2.86,5.06-4.27,8.69-3.54,1.96.39,3.64,1.34,5.09,2.88-.4.1-.69.19-.99.26-1.6.36-2.92,1.18-4,2.39-.41.46-.81.93-1.21,1.4-1.35,1.57-2.92,2.8-4.87,3.58-1.41.57-2.76,1.3-4.1,2.01-.39.2-.69.59-1.03.89.05.06.1.12.15.18.13-.05.27-.08.39-.16,2.7-1.63,5.47-1.86,8.34-.44,2.03,1.01,3.68,2.47,5.22,4.29-.61.04-1.12.05-1.63.1-1.91.2-3.61.95-5.21,1.96-1.38.88-2.73,1.8-4.12,2.65-2.78,1.7-5.79,2.32-9.02,1.79-.18-.03-.37,0-.56,0-.03.07-.05.14-.08.21.54.19,1.06.5,1.61.55.95.08,1.95.13,2.88-.04,1.35-.25,2.44.12,3.4,1,2.2,2.01,3.29,4.6,3.65,7.49.15,1.23.03,2.49.03,3.73-.06.03-.13.07-.19.1"/><path class="cls-2" d="M63.72,525.45c18.35.03,33.24,14.98,33.22,33.36-.02,18.37-14.97,33.27-33.34,33.21-18.34-.05-33.23-14.98-33.21-33.3.02-18.34,15.01-33.31,33.33-33.28M95.67,558.75c0-17.69-14.34-32.19-31.86-32.21-17.61-.02-32.05,14.48-32.06,32.2,0,17.66,14.28,31.98,31.91,31.99,17.7,0,32.01-14.28,32-31.98"/><path class="cls-2" d="M62.36,511.74c-.39-1.43.38-2.32,1.22-3.26.91.89,1.62,1.81,1.32,3.02.7-.1,1.44-.33,2.15-.27.82.07,1.33.7,1.7,1.43-.67.35-1.35.61-1.92,1.03-.54.39-.95.95-1.54,1.56,2.15.01,2.56.55,2.28,2.68,1.36-1.52,2.9-2.55,5.19-2.27-.25.21-.37.33-.51.43-1.23.86-2.06,2.01-2.51,3.44-.12.38-.25.76-.35,1.15-.41,1.64-1.48,2.47-3.14,2.63-1,.09-1.97.27-2.66,1.21-.66-.92-1.61-1.11-2.58-1.2-1.73-.15-2.77-1.01-3.26-2.7-.72-2.5-.76-2.48-3.28-4.96,2.16-.28,3.69.71,4.96,2.1.12-.63.07-1.4.42-1.88.33-.44,1.09-.56,1.72-.85-.55-1.17-1.77-1.8-3.12-2.26.71-1.66,2.03-2.01,3.88-1.02"/><path class="cls-2" d="M65.94,600.33c.97,2.73-.57,4.52-2.21,6.34-1.59-1.84-3.19-3.58-2.15-6.42-1.57,1.2-3.12,1.83-4.92,1.06-1.21-.52-2.04-1.42-2.6-2.63.65-.25,1.26-.47,1.84-.72,1.55-.68,2.82-1.69,3.85-3.06.53-.7,1.22-1.27,1.87-1.87.13-.12.44-.11.64-.05.91.26,1.78.2,2.67-.15.25-.1.65,0,.9.14.85.52,1.51,1.2,2.07,2.06,1.06,1.63,2.68,2.58,4.47,3.25.32.12.65.23.98.35-.91,3.02-4.1,3.77-7.41,1.7"/></g></g><rect class="cls-1" x="23.28" y="208.45" width="360" height="219.18"/><rect class="cls-6" x="73.28" y="87" width="260" height="260"/><rect class="cls-15" x="51.65" y="10.9" width="305.3" height="305.3"/><rect class="cls-1" x="73.28" y="32.45" width="260" height="260"/><rect class="cls-4" x="117.04" y="64.88" width="174" height="174"/><rect class="cls-10" x="117.04" width="174" height="174"/><rect class="cls-1" x="140.56" y="324.34" width="124.54" height="56.99"/><rect class="cls-12" y="621.31" width="405.67" height="15.29"/><text class="cls-14" transform="translate(117.15 580.71)"><tspan x="0" y="0">Olympia Black</tspan></text><rect class="cls-5" x="53.28" y="387.44" width="80.52" height="80.52"/><rect class="cls-5" x="73.28" y="32.45" width="43.76" height="206.44"/><rect class="cls-13" x="160.28" y="645.92" width="203.81" height="23.98"/></g></g></g></svg>