<?xml version="1.0" encoding="UTF-8"?><svg id="Layer_2" xmlns="http://www.w3.org/2000/svg" xmlns:xlink="http://www.w3.org/1999/xlink" viewBox="0 0 967.72 500"><defs><style>.cls-1{fill:#bd2226;}.cls-1,.cls-2,.cls-3,.cls-4,.cls-5,.cls-6,.cls-7,.cls-8,.cls-9,.cls-10,.cls-11{stroke-width:0px;}.cls-2{fill:#231f20;}.cls-12{clip-path:url(#clippath-2);}.cls-13{stroke:#e0e1e1;stroke-miterlimit:10;stroke-width:8px;}.cls-13,.cls-8{fill:#f2f1f2;}.cls-3{fill:#94cbea;}.cls-4,.cls-14{fill:none;}.cls-15{letter-spacing:0em;}.cls-16{clip-path:url(#clippath-1);}.cls-17{clip-path:url(#clippath-4);}.cls-18{letter-spacing:-.02em;}.cls-5{fill:#010101;}.cls-14{stroke:#fff;stroke-width:1.05px;}.cls-6{fill:#cbe1e0;}.cls-6,.cls-10{opacity:.2;}.cls-19{letter-spacing:0em;}.cls-7{fill:#363040;}.cls-20{font-family:ArcherPro-Bold, ArcherPro;font-weight:700;}.cls-21,.cls-22{fill:#484967;font-size:30px;}.cls-23{clip-path:url(#clippath);}.cls-24{font-family:FuturaNowScript-Bd, 'Futura Now Script';}.cls-22{filter:url(#drop-shadow-1);}.cls-25{letter-spacing:0em;}.cls-26{letter-spacing:0em;}.cls-9{fill:#fff;}.cls-10{fill:#a6bfc8;}.cls-27{letter-spacing:-.01em;}.cls-11{fill:#e8d924;}</style><clipPath id="clippath"><rect class="cls-4" width="967.72" height="500"/></clipPath><filter id="drop-shadow-1" filterUnits="userSpaceOnUse"><feOffset dx="0" dy="2"/><feGaussianBlur result="blur" stdDeviation="0"/><feFlood flood-color="#f2f1f2" flood-opacity="1"/><feComposite in2="blur" operator="in"/><feComposite in="SourceGraphic"/></filter><clipPath id="clippath-1"><rect class="cls-4" x="582.22" y="17.67" width="164.07" height="161.92"/></clipPath><clipPath id="clippath-2"><rect class="cls-4" x="582.22" y="17.67" width="164.07" height="161.92"/></clipPath><clipPath id="clippath-4"><rect class="cls-4" x="582.22" y="17.67" width="164.07" height="161.92"/></clipPath></defs><g id="Layer_1-2"><g class="cls-23"><rect class="cls-13" width="967.72" height="500"/><rect class="cls-6" x="-19.94" y="222.1" width="1151.59" height="442.63" transform="translate(-104.59 179.96) rotate(-16.83)"/><rect class="cls-10" x="-27.21" y="437.52" width="1248.68" height="209.95" transform="translate(-136.33 206.48) rotate(-17.64)"/></g><text class="cls-21" transform="translate(45.75 80.23)"><tspan class="cls-20"><tspan class="cls-15" x="0" y="0">L</tspan><tspan x="16.26" y="0">o</tspan><tspan class="cls-18" x="32.28" y="0">r</tspan><tspan x="44.88" y="0">em </tspan><tspan class="cls-26" x="91.56" y="0">i</tspan><tspan x="100.41" y="0">p</tspan><tspan class="cls-25" x="117.21" y="0">s</tspan><tspan x="130.74" y="0">um</tspan></tspan><tspan class="cls-24"><tspan x="0" y="36">Morbi scelerisque odio</tspan></tspan><tspan class="cls-20"><tspan class="cls-27" x="0" y="72">N</tspan><tspan x="21.93" y="72">ul</tspan><tspan class="cls-25" x="47.76" y="72">l</tspan><tspan x="56.4" y="72">a </tspan><tspan class="cls-19" x="78.27" y="72">h</tspan><tspan x="95.04" y="72">e</tspan><tspan class="cls-25" x="110.04" y="72">n</tspan><tspan x="126.96" y="72">d</tspan><tspan class="cls-18" x="143.79" y="72">r</tspan><tspan x="156.39" y="72">erit </tspan><tspan class="cls-26" x="211.26" y="72">f</tspan><tspan x="221.22" y="72">el</tspan><tspan class="cls-25" x="245.07" y="72">i</tspan><tspan x="254.01" y="72">s et li</tspan><tspan class="cls-25" x="325.02" y="72">g</tspan><tspan x="341.52" y="72">u</tspan><tspan class="cls-19" x="358.5" y="72">la</tspan><tspan x="382.2" y="72">x</tspan></tspan></text><text class="cls-22" transform="translate(397.46 259.19)"><tspan class="cls-20"><tspan class="cls-15" x="0" y="0">L</tspan><tspan x="16.26" y="0">o</tspan><tspan class="cls-18" x="32.28" y="0">r</tspan><tspan x="44.88" y="0">em </tspan><tspan class="cls-26" x="91.56" y="0">i</tspan><tspan x="100.41" y="0">p</tspan><tspan class="cls-25" x="117.21" y="0">s</tspan><tspan x="130.74" y="0">um</tspan></tspan><tspan class="cls-24"><tspan x="-60.21" y="36">Morbi scelerisque odio</tspan></tspan><tspan class="cls-20"><tspan class="cls-27" x="-63.81" y="72">N</tspan><tspan x="-41.88" y="72">ul</tspan><tspan class="cls-25" x="-16.05" y="72">l</tspan><tspan x="-7.41" y="72">a </tspan><tspan class="cls-19" x="14.46" y="72">h</tspan><tspan x="31.23" y="72">e</tspan><tspan class="cls-25" x="46.23" y="72">n</tspan><tspan x="63.15" y="72">d</tspan><tspan class="cls-18" x="79.98" y="72">r</tspan><tspan x="92.58" y="72">erit </tspan><tspan class="cls-26" x="147.45" y="72">f</tspan><tspan x="157.41" y="72">el</tspan><tspan class="cls-25" x="181.26" y="72">i</tspan><tspan x="190.2" y="72">s et </tspan></tspan></text><g id="Layer_4"><g id="Layer_3"><path class="cls-8" d="M935.41,134.56c-76.49-53.73-152.99,53.73-229.48,0,0,4.07,0,8.14,0,12.21,76.49,53.73,152.99-53.73,229.48,0v-12.21Z"/><path class="cls-8" d="M935.41,111.49c-76.49-53.73-152.99,53.73-229.48,0,0,4.07,0,8.14,0,12.21,76.49,53.73,152.99-53.73,229.48,0v-12.21Z"/><path class="cls-8" d="M935.41,88.42c-76.49-53.73-152.99,53.73-229.48,0,0,4.07,0,8.14,0,12.21,76.49,53.73,152.99-53.73,229.48,0v-12.21Z"/><path class="cls-8" d="M935.41,65.36c-76.49-53.73-152.99,53.73-229.48,0,0,4.07,0,8.14,0,12.21,76.49,53.73,152.99-53.73,229.48,0v-12.21Z"/><path class="cls-7" d="M935.41,132.56c-76.49-53.73-152.99,53.73-229.48,0,0,4.07,0,8.14,0,12.21,76.49,53.73,152.99-53.73,229.48,0v-12.21Z"/><path class="cls-7" d="M935.41,109.49c-76.49-53.73-152.99,53.73-229.48,0,0,4.07,0,8.14,0,12.21,76.49,53.73,152.99-53.73,229.48,0v-12.21Z"/><path class="cls-7" d="M935.41,86.42c-76.49-53.73-152.99,53.73-229.48,0,0,4.07,0,8.14,0,12.21,76.49,53.73,152.99-53.73,229.48,0v-12.21Z"/><path class="cls-7" d="M935.41,63.36c-76.49-53.73-152.99,53.73-229.48,0,0,4.07,0,8.14,0,12.21,76.49,53.73,152.99-53.73,229.48,0v-12.21Z"/></g><g class="cls-16"><g class="cls-12"><path class="cls-5" d="M620.99,97.27l8.18,15.82c1,1.93,3.58,2.33,5.11.79l7.64-7.64c1.53-1.53,1.13-4.12-.79-5.11l-15.82-8.18c-2.78-1.44-5.76,1.54-4.32,4.32"/><path class="cls-5" d="M624.78,126.05l-3.03,5.25-1.19,2.06c-.18-.24-.36-.48-.54-.72-1.04-1.41-2.02-2.87-2.93-4.38-.2-.33-.39-.65-.58-.98-1.48-2.59-2.76-5.32-3.81-8.15l2.61.57,3.82.84.8.18,2.76.6c.4.09.76.24,1.07.45,1.37.89,1.9,2.76,1.02,4.29"/><path class="cls-5" d="M709.12,96.92l-8.18,15.82c-1,1.93-3.58,2.33-5.11.79l-7.64-7.64c-1.53-1.53-1.13-4.12.79-5.11l15.82-8.18c2.78-1.44,5.76,1.54,4.32,4.32"/><path class="cls-5" d="M715.81,118.79c-.89,2.46-1.95,4.83-3.16,7.11-.27.5-.54,1-.83,1.49h0c-.79,1.37-1.63,2.71-2.53,4-.39.57-.8,1.13-1.22,1.68l-1.14-1.98-3.12-5.41c-1.02-1.76-.15-3.97,1.71-4.62.12-.05.25-.08.38-.11l3.1-.68,1.2-.26,3.17-.69,2.44-.53Z"/><path class="cls-9" d="M649.41,165.68c-.31.54-.7,1.03-1.16,1.45l1.16-1.45Z"/><path class="cls-9" d="M710.91,124.71c-.53-1.44-1.14-2.85-1.82-4.25-.03-.06-.06-.12-.09-.18-1.84-3.75-4.03-7.06-6.72-10.15-.63-.73-1.29-1.44-1.98-2.14-3.12-3.19-6.37-5.75-10.01-7.89-.78-.46-1.57-.89-2.38-1.31-3.81-1.84-7.9-3.25-12.19-4.14-3.56-.74-7.26-1.14-11.05-1.14h-.06c-.09,0-.18,0-.27,0-.29,0-.57,0-.86.01-.07,0-.14,0-.2,0h-.03c-3.32.08-6.56.46-9.69,1.11-4.67.97-9.1,2.54-13.2,4.62-.45.25-.91.51-1.36.77-2.03,1.2-4.02,2.56-5.91,4.05-1.39,1.1-3.88,3.53-5.73,5.52-.65.7-1.21,1.34-1.62,1.86-2.33,2.92-4.27,6-5.82,9.24-.73,1.52-1.38,3.09-1.94,4.69h0c-.33.94-.63,1.89-.9,2.86.91,1.51,1.88,2.97,2.93,4.38.18.24.36.48.54.72,8.9,11.65,22.36,19.65,37.7,21.31,1.02.11,2.05.19,3.09.25.54.03,1.09.05,1.64.06.36,0,.73.01,1.1.01.85,0,1.7-.01,2.55-.05.5-.02,1-.05,1.5-.08,1.08-.08,2.15-.18,3.22-.32,14.97-1.94,28.07-9.94,36.73-21.46.42-.55.82-1.11,1.22-1.68.9-1.29,1.74-2.63,2.53-4h0c-.28-.9-.58-1.8-.91-2.68M648.25,167.12c.47-.42.86-.91,1.16-1.45l-1.16,1.45Z"/><path class="cls-9" d="M667.96,152.72c-.19-2.46-.38-5.02-.58-7.62-.86-11.39-1.65-21.48-2.14-27.47-.01-.12-.02-.25-.03-.37h0c-.28-3.39-.45-5.37-.47-5.37-.02,0-.1.86-.23,2.42h0c-.07.87-.16,1.95-.27,3.21-.49,5.97-1.28,16.12-2.15,27.58-.2,2.63-.39,5.2-.58,7.69-.05.72-.11,1.43-.16,2.14.54.03,1.09.05,1.64.06.36,0,.73.01,1.1.01.85,0,1.7-.01,2.55-.05.5-.02,1-.05,1.5-.08-.05-.7-.11-1.42-.16-2.14"/><path class="cls-9" d="M676.54,92.04c0-3.95-5.33-7.16-11.9-7.16s-11.9,3.2-11.9,7.16,5.33,7.16,11.9,7.16,11.9-3.2,11.9-7.16"/><path class="cls-2" d="M648.25,167.12c.47-.42.86-.91,1.16-1.45l-1.16,1.45ZM648.25,167.12c.47-.42.86-.91,1.16-1.45l-1.16,1.45ZM648.25,167.12c.47-.42.86-.91,1.16-1.45l-1.16,1.45ZM648.25,167.12c.47-.42.86-.91,1.16-1.45l-1.16,1.45ZM648.25,167.12c.47-.42.86-.91,1.16-1.45l-1.16,1.45ZM648.25,167.12c.47-.42.86-.91,1.16-1.45l-1.16,1.45ZM648.25,167.12c.47-.42.86-.91,1.16-1.45l-1.16,1.45ZM648.25,167.12c.47-.42.86-.91,1.16-1.45l-1.16,1.45ZM648.25,167.12c.47-.42.86-.91,1.16-1.45l-1.16,1.45ZM648.25,167.12c.47-.42.86-.91,1.16-1.45l-1.16,1.45ZM648.25,167.12c.47-.42.86-.91,1.16-1.45l-1.16,1.45ZM648.25,167.12c.47-.42.86-.91,1.16-1.45l-1.16,1.45ZM648.25,167.12c.47-.42.86-.91,1.16-1.45l-1.16,1.45ZM648.25,167.12c.47-.42.86-.91,1.16-1.45l-1.16,1.45ZM648.25,167.12c.47-.42.86-.91,1.16-1.45l-1.16,1.45ZM648.25,167.12c.47-.42.86-.91,1.16-1.45l-1.16,1.45ZM648.25,167.12c.47-.42.86-.91,1.16-1.45l-1.16,1.45ZM648.25,167.12c.47-.42.86-.91,1.16-1.45l-1.16,1.45ZM648.25,167.12c.47-.42.86-.91,1.16-1.45l-1.16,1.45ZM648.25,167.12c.47-.42.86-.91,1.16-1.45l-1.16,1.45ZM711.65,123.25c-.41-1-.85-2-1.33-2.98-.04-.08-.08-.16-.12-.24-2-4.06-4.4-7.62-7.38-10.93-.48-.53-.97-1.06-1.49-1.58-3.13-3.19-6.38-5.78-10.01-7.94-.87-.52-1.75-1.01-2.67-1.48-.69-.35-1.39-.7-2.11-1.03-1.56-.72-4.9-2.02-5.17-2.02-.07,0-.17-.16-.21-.35-.23-1.03-.6-2.29-.93-3.14-1-2.58-3.06-5.28-5.36-7.02l-.77-.58.04-.12-.03-.02-.38-.2-1.18-.63-.04-.02s-.01,0-.02,0c-1.97-.86-3.13-1.25-4.57-1.52-.22-.04-.46-.08-.7-.12-1.92-.29-3.98-.21-5.91.19-1.16.24-2.28.6-3.3,1.07-.51.24-.98.39-1.02.34l-.03.02-1.53.84-.06.03s-.03.07-.09.14h0c-.17.19-.57.55-1.04.93-1.75,1.41-3.16,3.13-4.18,5.1-.75,1.44-1.04,2.23-1.41,3.73-.17.68-.32,1.25-.34,1.26-.02.01-.56.21-1.22.43-2.34.8-4.73,1.87-7.09,3.16-.61.34-1.22.69-1.82,1.05-1.93,1.16-3.81,2.47-5.6,3.89-1.36,1.07-3.75,3.4-5.6,5.38-.77.82-1.44,1.58-1.91,2.17-2.39,3-4.37,6.15-5.96,9.47-.61,1.27-1.16,2.57-1.65,3.89-.35.94-.67,1.88-.96,2.85.19.33.38.66.58.98.91,1.51,1.88,2.97,2.93,4.38.04-.19.08-.37.12-.55.17-.76.35-1.52.56-2.28.76-2.77,1.8-5.47,3.07-8.05,1.52-3.07,3.37-5.96,5.49-8.54,1.19-1.44,2.46-2.79,3.8-4.02,2.94-2.69,6.11-4.96,9.43-6.76,4.73-2.58,9.75-4.21,14.82-4.78h0c.12-.01.24-.03.36-.04.24-.03.94-.05,1.54-.06l1.1-.02v1.3c0,.71-.03,1.55-.08,1.86l-.08.56-.99.27c-3.55.95-6.47,3.4-8.08,6.79-.93,1.96-1.14,2.95-1.13,5.37,0,2.27.17,3.1.92,4.92,1.38,3.31,4.52,6.05,8.19,7.14.15.04.23.19.23.43,0,.44-.45,12.95-.95,26.35-.03.71-.05,1.43-.08,2.15,1.02.11,2.05.19,3.09.25.54.03,1.09.05,1.64.06.03-.7.05-1.42.08-2.14.14-3.77.29-7.83.44-12.02.34-9.07.65-17.32.88-23.37.04-1.12.08-2.17.12-3.12h0c.17-4.4.28-7.01.3-7.01.02,0,.17,3.81.41,9.95h0c0,.12,0,.24.01.36.23,6.03.54,14.22.87,23.2.15,4.18.3,8.22.44,11.98.03.73.05,1.44.08,2.14.5-.02,1-.05,1.5-.08,1.08-.08,2.15-.18,3.22-.32-.03-.72-.05-1.44-.08-2.15-.49-13.52-.93-26.12-.91-26.29.03-.25.17-.35.85-.58,3.52-1.18,6.44-4,7.74-7.45.86-2.29,1.03-5.3.42-7.57-1.17-4.34-4.62-7.82-8.9-8.97l-.99-.27-.08-.56c-.04-.31-.08-1.15-.08-1.88v-1.31l1.66.08c.31.02.67.04,1.03.07.7.06,1.43.14,1.89.21,4.52.7,9.18,2.36,13.51,4.74,4.28,2.35,8.24,5.39,11.44,8.89.57.62,1.11,1.25,1.64,1.9,1.95,2.39,3.63,4.97,5.02,7.68,1.25,2.44,2.28,4.99,3.06,7.63.27.89.5,1.79.71,2.7.9-1.29,1.74-2.63,2.53-4h0c.28-.49.56-.99.83-1.49-.3-.89-.63-1.78-.99-2.66M664.89,92.69h-.06c-.09,0-.19,0-.28,0-.28,0-.58,0-.88.01-.07,0-.14,0-.21,0h-.03c-4.26.06-5.78.19-8.46.66-.6.11-1.13.17-1.17.14-.11-.11.52-1.41,1.16-2.37.38-.56.79-1.09,1.24-1.57.14-.15.28-.29.42-.43.34-.33.7-.63,1.07-.92.01-.01.03-.02.04-.03,1.11-.83,2.36-1.45,3.7-1.84.47-.14.94-.24,1.43-.32.16-.03.34-.05.55-.06.65-.05,1.5-.04,2.32.02.78.05,1.53.14,2.04.27.03,0,.06.01.09.02,1.79.48,3.39,1.34,4.74,2.53.19.16.37.33.54.51.54.55,1.04,1.15,1.48,1.81.59.89,1.27,2.25,1.17,2.35-.03.03-.92-.08-1.98-.25-2.94-.45-4.91-.59-8.93-.55M648.25,167.12c.47-.42.86-.91,1.16-1.45l-1.16,1.45ZM648.25,167.12c.47-.42.86-.91,1.16-1.45l-1.16,1.45ZM648.25,167.12c.47-.42.86-.91,1.16-1.45l-1.16,1.45ZM648.25,167.12c.47-.42.86-.91,1.16-1.45l-1.16,1.45ZM648.25,167.12c.47-.42.86-.91,1.16-1.45l-1.16,1.45ZM648.25,167.12c.47-.42.86-.91,1.16-1.45l-1.16,1.45ZM648.25,167.12c.47-.42.86-.91,1.16-1.45l-1.16,1.45ZM648.25,167.12c.47-.42.86-.91,1.16-1.45l-1.16,1.45ZM648.25,167.12c.47-.42.86-.91,1.16-1.45l-1.16,1.45ZM648.25,167.12c.47-.42.86-.91,1.16-1.45l-1.16,1.45ZM648.25,167.12c.47-.42.86-.91,1.16-1.45l-1.16,1.45ZM648.25,167.12c.47-.42.86-.91,1.16-1.45l-1.16,1.45ZM648.25,167.12c.47-.42.86-.91,1.16-1.45l-1.16,1.45ZM648.25,167.12c.47-.42.86-.91,1.16-1.45l-1.16,1.45ZM648.25,167.12c.47-.42.86-.91,1.16-1.45l-1.16,1.45ZM658.33,152.53c-.03.71-.05,1.43-.08,2.15,1.02.11,2.05.19,3.09.25.05-.7.11-1.42.16-2.14-1.07-.05-2.13-.14-3.17-.26M648.25,167.12c.47-.42.86-.91,1.16-1.45l-1.16,1.45ZM648.25,167.12c.47-.42.86-.91,1.16-1.45l-1.16,1.45ZM648.25,167.12c.47-.42.86-.91,1.16-1.45l-1.16,1.45ZM648.25,167.12c.47-.42.86-.91,1.16-1.45l-1.16,1.45ZM648.25,167.12c.47-.42.86-.91,1.16-1.45l-1.16,1.45Z"/><path class="cls-2" d="M637.99,114.11c-2.93.71-4.93,3.65-4.48,6.57.27,1.73,1.22,3.19,2.7,4.15,1.03.67,2.06.92,3.51.85,1.04-.05,1.29-.11,2.15-.51,1.29-.61,2.2-1.52,2.82-2.81.41-.85.47-1.1.51-2.14.07-1.45-.18-2.48-.85-3.5-1.4-2.15-3.94-3.19-6.36-2.61"/><path class="cls-2" d="M646.98,132.09c-3.03.48-5.73,2.76-6.68,5.63-.37,1.11-.45,3.37-.18,4.56.67,2.86,3.14,5.34,6.05,6.09,2.86.73,5.78-.08,7.91-2.19.85-.84,1.11-1.21,1.59-2.2.71-1.47.89-2.35.82-4.09-.09-2.2-.8-3.83-2.36-5.41-.97-.98-2.08-1.65-3.4-2.07-1.08-.34-2.72-.48-3.75-.32"/><path class="cls-2" d="M649.41,165.68c-.31.54-.7,1.03-1.16,1.45l1.16-1.45Z"/><path class="cls-2" d="M690.95,114.13c-2.05.44-3.82,2.12-4.36,4.12-.16.59-.2,1.11-.17,1.98.04,1.04.1,1.29.5,2.12.95,1.96,2.45,3.06,4.59,3.37,3.66.52,7-2.69,6.63-6.36-.21-2.08-1.42-3.82-3.27-4.73-1.38-.67-2.45-.81-3.92-.49"/><path class="cls-2" d="M680,132.09c-3.03.48-5.73,2.76-6.68,5.63-.37,1.11-.45,3.37-.18,4.56.67,2.86,3.14,5.34,6.05,6.09,2.87.73,5.78-.07,7.91-2.19,1.8-1.79,2.5-3.59,2.41-6.2-.08-2.28-.77-3.9-2.36-5.49-.97-.98-2.08-1.65-3.4-2.07-1.08-.34-2.72-.48-3.75-.32"/><path class="cls-2" d="M657,83.11c0-.11-.03-.21-.07-.31-.08-.19-.22-.56-.36-.97-.73-2.1-2.15-4.52-3.75-6.36-2.57-2.95-6.64-5.22-10.6-5.89-.98-.17-1.07-.21-1.49-.7-.76-.89-1.78-1.19-2.77-.84-.53.19-1.15.78-1.36,1.3-.21.51-.21,1.44,0,1.95.38.91,1.62,1.59,2.58,1.41.67-.12,1.06-.37,1.57-.96l.13-.15c.2-.23.5-.34.8-.29l.41.07c4.22.75,8.32,3.5,10.89,7.3.87,1.29,2.09,3.82,2.35,4.83.06.21.19.4.38.51.59.36,1.34-.08,1.31-.77v-.15Z"/><path class="cls-2" d="M673.87,84.06c.17-.1.29-.26.36-.45l.26-.72c1.82-5.03,5.73-9.04,10.49-10.75,1.03-.37,2.79-.82,3.21-.82.17,0,.38.16.56.44.36.53,1.37,1.06,2,1.06s1.49-.46,1.94-1.05c.1-.13.38-.56.38-1.39s-.5-1.52-.5-1.52c-.47-.59-1.21-.92-1.83-.92s-1.63.54-2.03,1.1c-.32.45-.38.48-1.31.62-5.71.84-11.01,4.86-13.6,10.33-.33.7-.74,1.69-.9,2.18-.1.31-.21.58-.3.73-.07.12-.11.25-.11.39-.03.7.74,1.15,1.33.78l.04-.02Z"/><path class="cls-2" d="M669.28,120.45c-.23,0-.46-.06-.66-.16l-3.97-2.09-3.97,2.09c-.21.11-.43.16-.66.16-.42,0-.82-.19-1.09-.51-.27-.32-.38-.74-.31-1.16l.76-4.42-3.21-3.13c-.39-.38-.53-.94-.36-1.46.17-.52.61-.89,1.15-.97l4.44-.65,1.99-4.03c.24-.49.73-.79,1.28-.79s1.04.3,1.28.79l1.99,4.03,4.44.65c.54.08.98.45,1.15.97.17.52.03,1.08-.36,1.46l-3.21,3.13.76,4.42c.07.41-.04.84-.31,1.16-.27.32-.67.51-1.09.51"/><path class="cls-9" d="M664.64,104.12c.23,0,.46.12.57.36l2.02,4.09c.09.19.27.32.48.35l4.52.66c.52.08.73.72.35,1.09l-3.27,3.19c-.15.15-.22.36-.18.56l.77,4.5c.07.41-.26.75-.63.75-.1,0-.2-.02-.3-.07l-4.04-2.12c-.09-.05-.19-.07-.3-.07s-.2.02-.3.07l-4.04,2.12c-.1.05-.2.07-.3.07-.37,0-.7-.33-.63-.75l.77-4.5c.04-.21-.03-.42-.18-.56l-3.27-3.19c-.38-.37-.17-1.01.35-1.09l4.52-.66c.21-.03.39-.16.48-.35l2.02-4.09c.12-.24.34-.36.57-.36M664.64,102.55c-.85,0-1.61.47-1.98,1.23l-1.8,3.65-4.03.59c-.84.12-1.52.7-1.78,1.5-.26.81-.05,1.67.56,2.27l2.92,2.84-.69,4.02c-.11.64.07,1.3.49,1.8.42.5,1.04.79,1.69.79.36,0,.71-.09,1.03-.26l3.61-1.9,3.61,1.9c.32.17.67.26,1.03.26.65,0,1.27-.29,1.69-.79.42-.5.6-1.15.49-1.8l-.69-4.02,2.92-2.85c.61-.59.82-1.46.56-2.26-.26-.81-.95-1.38-1.78-1.5l-4.03-.59-1.8-3.65c-.38-.76-1.13-1.23-1.98-1.23"/><path class="cls-2" d="M661.89,88.14c0,1.8-1.21,3.26-2.7,3.26s-2.7-1.46-2.7-3.26,1.21-3.26,2.7-3.26,2.7,1.46,2.7,3.26"/><path class="cls-14" d="M661.89,88.14c0,1.8-1.21,3.26-2.7,3.26s-2.7-1.46-2.7-3.26,1.21-3.26,2.7-3.26,2.7,1.46,2.7,3.26Z"/><path class="cls-2" d="M672.68,88.14c0,1.8-1.21,3.26-2.7,3.26s-2.7-1.46-2.7-3.26,1.21-3.26,2.7-3.26,2.7,1.46,2.7,3.26"/><path class="cls-14" d="M672.68,88.14c0,1.8-1.21,3.26-2.7,3.26s-2.7-1.46-2.7-3.26,1.21-3.26,2.7-3.26,2.7,1.46,2.7,3.26Z"/></g><g class="cls-17"><path class="cls-2" d="M608.78,80.37c1.06-5.28,1.8-10.78,3.28-16.06,3.5-12.49,11.21-21.64,22.91-27.33,1.22-.59,2.56-.96,3.86-1.38,1-.32,2.03-.54,3.22-.86-.14.4-.22.67-.31.93-1.42,4.08-2.91,8.14-4.24,12.24-.65,2.01-1.7,3.43-3.55,4.63-14.78,9.6-23.5,23.18-25.89,40.64-3.18,23.22,9.03,46.57,29.91,57.24,5.87,3,12.16,4.97,18.69,6.07.56.09,1.12.21,2,.38-.52,1.09-.81,2.2-1.48,2.98-.85.98-1.91,1.89-3.06,2.46-2.29,1.12-4.64,2.22-7.09,2.88-1.73.46-3.69.42-5.49.17-3.96-.55-7.67.14-11.2,1.83-2.53,1.21-4.97,2.61-7.61,4.01-.32-4.5,1.3-8.33,3.8-11.84,2.5-3.52,5.62-6.23,10.13-6.86-1-1.67-2.86-2.61-4.79-2.02-2.05.62-4.12,1.41-5.92,2.54-3.59,2.25-7.39,3.56-11.61,3.56-5.01,0-9.82.52-13.52,4.89-.53-3.25-.41-6.13.31-8.98.94-3.71,2.53-7.06,5.37-9.71,1.67-1.56,3.54-2.22,5.93-1.83,1.83.29,3.77,0,5.65-.16.55-.04,1.06-.46,1.51-1.01-.32,0-.65-.04-.96,0-5.23.83-10.11-.13-14.63-2.86-2.15-1.3-4.24-2.71-6.35-4.08-3.55-2.31-7.31-3.92-12.05-3.68,3.1-3.63,6.37-6.44,10.62-7.98,4.46-1.63,8.55-.54,12.48,1.8.07-.09.13-.17.2-.26-.31-.36-.55-.83-.94-1.05-1.71-1-3.37-2.19-5.21-2.84-4.82-1.72-8.68-4.61-11.79-8.64-2.12-2.74-5.01-4.27-8.72-4.81,2.12-2.37,4.56-3.78,7.37-4.6,2.88-.83,5.76-.78,8.59.28,2.79,1.05,4.9,3,6.76,5.31-.33-2.12-1.31-3.87-2.58-5.45-.83-1.02-1.7-2.1-2.77-2.83-3.88-2.63-5.45-6.53-6.09-10.87-1.18-7.97,1.11-15.27,4.71-22.55,5.49,4.13,10.17,8.56,10.58,15.68"/><path class="cls-2" d="M727.57,161.27c-2.44-2.69-5.46-4.2-9.04-4.49-1.89-.15-3.8-.2-5.69-.28-3.39-.14-6.43-1.28-9.37-2.96-2.13-1.21-4.39-2.26-6.71-3.02-1.9-.62-3.62.19-5.03,1.95,4.64.67,7.79,3.36,10.3,6.91,2.48,3.5,4.07,7.31,3.79,11.97-.53-.3-.92-.52-1.31-.75-3.86-2.34-7.77-4.67-12.35-5.2-2.16-.25-4.4,0-6.59.17-1.94.16-3.8.01-5.55-.85-2.01-1-4.08-1.91-5.98-3.08-1.67-1.03-2.64-2.69-2.87-4.87.69-.11,1.37-.21,2.04-.34,25.19-4.83,41.13-22.25,46.14-42.8,5.83-23.88-4.5-48.71-25.51-61.57-1.18-.72-1.92-1.6-2.33-2.87-1.05-3.27-2.1-6.55-3.22-9.8-.51-1.49-1.17-2.94-1.85-4.63,1.24.33,2.32.6,3.39.9,8.31,2.31,14.33,7.76,19.57,14.28,4.96,6.17,7.32,13.42,8.66,21.07.55,3.16.99,6.34,1.59,9.59.48-7.3,5.18-11.71,10.52-15.81.2.22.34.33.41.47,3.09,6.17,5.06,12.61,4.71,19.6-.15,2.94-.65,5.84-2.14,8.39-.91,1.56-2.13,3.05-3.5,4.22-2.52,2.13-4.6,4.5-5.81,7.59-.15.39-.26.8-.28,1.35,3.7-4.72,8.34-7.04,14.34-5.84,3.24.64,6,2.21,8.39,4.76-.65.17-1.14.32-1.64.43-2.63.59-4.81,1.94-6.6,3.94-.68.76-1.34,1.53-2,2.3-2.22,2.58-4.81,4.62-8.02,5.91-2.32.93-4.54,2.14-6.77,3.31-.64.34-1.13.97-1.69,1.46.08.1.17.2.25.3.22-.08.45-.14.65-.26,4.45-2.69,9.03-3.07,13.75-.72,3.34,1.66,6.08,4.07,8.61,7.08-1.01.06-1.85.08-2.69.17-3.15.32-5.96,1.56-8.59,3.24-2.27,1.45-4.5,2.96-6.8,4.37-4.58,2.81-9.54,3.82-14.87,2.96-.3-.05-.61,0-.92,0-.04.11-.09.23-.13.34.88.32,1.75.83,2.65.91,1.57.13,3.21.21,4.75-.07,2.23-.41,4.02.2,5.61,1.64,3.63,3.31,5.43,7.58,6.02,12.35.25,2.02.04,4.1.04,6.16-.11.05-.21.11-.32.16"/><path class="cls-2" d="M664.39,45.66c30.26.04,54.82,24.71,54.78,55.02-.03,30.3-24.69,54.86-54.98,54.77-30.24-.09-54.79-24.71-54.77-54.91.03-30.24,24.75-54.93,54.97-54.89M717.08,100.58c0-29.17-23.65-53.08-52.54-53.12-29.05-.03-52.86,23.88-52.87,53.09,0,29.13,23.55,52.74,52.63,52.76,29.19.01,52.78-23.55,52.78-52.73"/><path class="cls-2" d="M662.16,23.05c-.64-2.36.62-3.83,2.01-5.38,1.5,1.47,2.67,2.99,2.18,4.99,1.15-.16,2.37-.54,3.55-.44,1.35.11,2.2,1.16,2.81,2.35-1.1.57-2.23,1-3.16,1.69-.88.65-1.57,1.57-2.53,2.57,3.54.02,4.23.91,3.76,4.42,2.24-2.51,4.78-4.2,8.56-3.75-.42.35-.62.55-.84.71-2.02,1.42-3.4,3.31-4.14,5.67-.2.63-.41,1.26-.57,1.9-.68,2.71-2.45,4.08-5.18,4.33-1.65.15-3.25.44-4.39,1.99-1.09-1.51-2.65-1.84-4.25-1.97-2.85-.24-4.57-1.67-5.37-4.46-1.18-4.12-1.26-4.09-5.41-8.18,3.57-.45,6.09,1.18,8.19,3.46.2-1.03.12-2.32.7-3.1.54-.72,1.79-.92,2.84-1.39-.9-1.92-2.92-2.97-5.14-3.73,1.17-2.74,3.35-3.32,6.39-1.68"/><path class="cls-2" d="M668.05,169.14c1.61,4.51-.93,7.45-3.65,10.45-2.61-3.03-5.25-5.9-3.54-10.58-2.59,1.98-5.15,3.02-8.12,1.74-1.99-.86-3.36-2.34-4.28-4.34,1.08-.42,2.07-.77,3.04-1.19,2.56-1.12,4.66-2.79,6.35-5.04.87-1.15,2.01-2.1,3.09-3.08.21-.19.73-.18,1.06-.09,1.51.43,2.94.32,4.4-.24.41-.16,1.08,0,1.48.24,1.39.85,2.49,1.98,3.41,3.4,1.74,2.68,4.41,4.26,7.37,5.36.54.2,1.08.38,1.61.58-1.51,4.98-6.76,6.22-12.22,2.81"/></g></g></g><g id="Layer_5"><polygon class="cls-1" points="78.05 478.85 18.05 478.85 43.05 453.85 103.05 453.85 78.05 478.85"/><polygon class="cls-3" points="138.05 478.85 78.05 478.85 103.05 453.85 163.05 453.85 138.05 478.85"/><polygon class="cls-11" points="198.05 478.85 138.05 478.85 163.05 453.85 223.05 453.85 198.05 478.85"/></g></g></svg>