<?xml version="1.0" encoding="UTF-8"?><svg id="Layer_2" xmlns="http://www.w3.org/2000/svg" xmlns:xlink="http://www.w3.org/1999/xlink" viewBox="0 0 105 1073.29"><defs><style>.cls-1{fill:url(#linear-gradient);}.cls-1,.cls-2,.cls-3,.cls-4,.cls-5,.cls-6,.cls-7{stroke-width:0px;}.cls-2{fill:none;}.cls-3{fill:#90191c;}.cls-4{fill:url(#linear-gradient-2);}.cls-5{fill:url(#linear-gradient-3);}.cls-8{clip-path:url(#clippath);}.cls-6{fill:#fff;}.cls-7{fill:url(#linear-gradient-4);}</style><clipPath id="clippath"><polygon class="cls-2" points="0 0 0 0 105 0 105 1073.29 0 1073.29 0 0"/></clipPath><linearGradient id="linear-gradient" x1="37" y1="1064.92" x2="37" y2="3.93" gradientUnits="userSpaceOnUse"><stop offset="0" stop-color="#4e1218"/><stop offset=".35" stop-color="#401214"/><stop offset=".73" stop-color="#371212"/></linearGradient><linearGradient id="linear-gradient-2" x1="70" x2="70" y2="3.93" xlink:href="#linear-gradient"/><linearGradient id="linear-gradient-3" x1="98.5" x2="98.5" y2="3.28" xlink:href="#linear-gradient"/><linearGradient id="linear-gradient-4" x1="5" x2="5" y2="3.28" xlink:href="#linear-gradient"/></defs><g id="Layer_4"><g id="_Mirror_Repeat_"><g class="cls-8"><path class="cls-1" d="M50,1064.92h-26c.02-353.67.04-707.33.06-1061,8.63,0,17.25,0,25.88,0,.02,7.71.06,15.42.06,23.13,0,345.95,0,691.91,0,1037.86Z"/><path class="cls-4" d="M83,1064.92h-26c.02-353.67.04-707.33.06-1061,8.63,0,17.25,0,25.88,0,.02,8.26.06,16.52.06,24.79,0,345.4,0,690.81,0,1036.21Z"/><path class="cls-3" d="M24.06,3.93c-.02,356.45-.04,712.91-.06,1069.36h-14c0-1.67,0-3.33,0-5-.02-354.79-.04-709.58-.05-1064.36,4.71,0,9.41,0,14.12,0Z"/><path class="cls-5" d="M105,3.28v1061.64h-13c.02-353.67.04-707.33.06-1061,4.31-.21,8.63-.43,12.94-.64Z"/><path class="cls-7" d="M9.94,3.92c.02,352.01.04,704.03.05,1056.04,0,1.65,0,3.31,0,4.96H0V3.28c3.31.21,6.63.43,9.94.64Z"/><path class="cls-3" d="M92.06,3.93c-.02,356.45-.04,712.91-.06,1069.36h-9c0-348.13,0-696.25,0-1044.38,0-8.33-.04-16.66-.06-24.98,3.04,0,6.08,0,9.12,0Z"/><path class="cls-3" d="M57.06,3.93c-.02,356.45-.04,712.91-.06,1069.36h-7c0-348.68,0-697.36,0-1046.04,0-7.77-.04-15.54-.06-23.32,2.37,0,4.75,0,7.12,0Z"/><path class="cls-6" d="M57.06,3.93c-2.37,0-4.75,0-7.12,0-8.63,0-17.25,0-25.88,0-4.71,0-9.41,0-14.12,0-3.31-.21-6.63-.43-9.94-.64C.5,2.18,1,.12,1.5.11c34-.15,68-.15,102,0,.5,0,1,2.07,1.5,3.17-4.31.21-8.63.43-12.94.64-3.04,0-6.08,0-9.12,0-8.63,0-17.25,0-25.88,0Z"/></g></g></g></svg>