<?xml version="1.0" encoding="UTF-8"?><svg id="Layer_2" xmlns="http://www.w3.org/2000/svg" xmlns:xlink="http://www.w3.org/1999/xlink" viewBox="0 0 2574.19 382.62"><defs><style>.cls-1{clip-path:url(#clippath-11);}.cls-2{clip-path:url(#clippath-16);}.cls-3{fill:#479cd6;}.cls-3,.cls-4,.cls-5,.cls-6,.cls-7,.cls-8,.cls-9,.cls-10{stroke-width:0px;}.cls-4{fill:#000;}.cls-5{fill:#3152a4;}.cls-6{fill:#171043;}.cls-11{clip-path:url(#clippath-2);}.cls-12{clip-path:url(#clippath-13);}.cls-13{clip-path:url(#clippath-15);}.cls-14{clip-path:url(#clippath-6);}.cls-7{fill:#181222;}.cls-8{fill:none;}.cls-15{clip-path:url(#clippath-7);}.cls-16{clip-path:url(#clippath-1);}.cls-17{clip-path:url(#clippath-4);}.cls-18{clip-path:url(#clippath-12);}.cls-9{fill:#282a74;}.cls-19{clip-path:url(#clippath-9);}.cls-20{clip-path:url(#clippath);}.cls-21{clip-path:url(#clippath-3);}.cls-10{fill:#4081c3;}.cls-22{clip-path:url(#clippath-8);}.cls-23{clip-path:url(#clippath-14);}.cls-24{clip-path:url(#clippath-5);}.cls-25{clip-path:url(#clippath-10);}</style><clipPath id="clippath"><rect class="cls-8" width="2574.19" height="382.62"/></clipPath><clipPath id="clippath-1"><path class="cls-8" d="M52.81,0h195.57c28.59,0,51.81,23.22,51.81,51.81v248.38H1V51.81C1,23.22,24.22,0,52.81,0Z"/></clipPath><clipPath id="clippath-2"><path class="cls-8" d="M77.24,88.33h148.76c31.28,0,56.67,25.39,56.67,56.67v227.9H20.57v-227.9c0-31.28,25.39-56.67,56.67-56.67Z"/></clipPath><clipPath id="clippath-3"><path class="cls-8" d="M412.4,0h195.57c28.59,0,51.81,23.22,51.81,51.81v248.38h-299.19V51.81c0-28.59,23.22-51.81,51.81-51.81Z"/></clipPath><clipPath id="clippath-4"><path class="cls-8" d="M436.82,88.33h148.76c31.28,0,56.67,25.39,56.67,56.67v227.9h-262.1v-227.9c0-31.28,25.39-56.67,56.67-56.67Z"/></clipPath><clipPath id="clippath-5"><path class="cls-8" d="M771.98,0h195.57c28.59,0,51.81,23.22,51.81,51.81v248.38h-299.19V51.81c0-28.59,23.22-51.81,51.81-51.81Z"/></clipPath><clipPath id="clippath-6"><path class="cls-8" d="M796.41,88.33h148.76c31.28,0,56.67,25.39,56.67,56.67v227.9h-262.1v-227.9c0-31.28,25.39-56.67,56.67-56.67Z"/></clipPath><clipPath id="clippath-7"><path class="cls-8" d="M1131.57,0h195.57c28.59,0,51.81,23.22,51.81,51.81v248.38h-299.19V51.81c0-28.59,23.22-51.81,51.81-51.81Z"/></clipPath><clipPath id="clippath-8"><path class="cls-8" d="M1156,88.33h148.76c31.28,0,56.67,25.39,56.67,56.67v227.9h-262.1v-227.9c0-31.28,25.39-56.67,56.67-56.67Z"/></clipPath><clipPath id="clippath-9"><path class="cls-8" d="M1491.16,0h195.57c28.59,0,51.81,23.22,51.81,51.81v248.38h-299.19V51.81c0-28.59,23.22-51.81,51.81-51.81Z"/></clipPath><clipPath id="clippath-10"><path class="cls-8" d="M1515.58,88.33h148.76c31.28,0,56.67,25.39,56.67,56.67v227.9h-262.1v-227.9c0-31.28,25.39-56.67,56.67-56.67Z"/></clipPath><clipPath id="clippath-11"><path class="cls-8" d="M1850.74,0h195.57c28.59,0,51.81,23.22,51.81,51.81v248.38h-299.19V51.81c0-28.59,23.22-51.81,51.81-51.81Z"/></clipPath><clipPath id="clippath-12"><path class="cls-8" d="M1875.17,88.33h148.76c31.28,0,56.67,25.39,56.67,56.67v227.9h-262.1v-227.9c0-31.28,25.39-56.67,56.67-56.67Z"/></clipPath><clipPath id="clippath-13"><path class="cls-8" d="M2210.33,0h195.57c28.59,0,51.81,23.22,51.81,51.81v248.38h-299.19V51.81c0-28.59,23.22-51.81,51.81-51.81Z"/></clipPath><clipPath id="clippath-14"><path class="cls-8" d="M2234.76,88.33h148.76c31.28,0,56.67,25.39,56.67,56.67v227.9h-262.1v-227.9c0-31.28,25.39-56.67,56.67-56.67Z"/></clipPath><clipPath id="clippath-15"><path class="cls-8" d="M2569.92,0h195.57c28.59,0,51.81,23.22,51.81,51.81v248.38h-299.19V51.81c0-28.59,23.22-51.81,51.81-51.81Z"/></clipPath><clipPath id="clippath-16"><path class="cls-8" d="M2594.34,88.33h148.76c31.28,0,56.67,25.39,56.67,56.67v227.9h-262.1v-227.9c0-31.28,25.39-56.67,56.67-56.67Z"/></clipPath></defs><g id="Layer_4"><g class="cls-20"><path class="cls-5" d="M52.81,0h195.57c28.59,0,51.81,23.22,51.81,51.81v248.38H1V51.81C1,23.22,24.22,0,52.81,0Z"/><g class="cls-16"><rect class="cls-9" x="-4.71" y="10.43" width="27.43" height="114.29"/><rect class="cls-9" x="277.44" width="27.43" height="127.38"/><rect class="cls-10" x="45.14" y="-13.14" width="212" height="143"/><rect class="cls-3" x="45.71" y="-6.5" width="211.43" height="15"/></g><path class="cls-6" d="M72.38,63h155.43c39.95,0,72.38,32.43,72.38,72.38v227.81H0v-227.81C0,95.43,32.43,63,72.38,63Z"/><path class="cls-7" d="M77.24,88.33h148.76c31.28,0,56.67,25.39,56.67,56.67v227.9H20.57v-227.9c0-31.28,25.39-56.67,56.67-56.67Z"/><g class="cls-11"><path class="cls-4" d="M52,72.62h199.24c17.35,0,31.43,14.08,31.43,31.43H20.57c0-17.35,14.08-31.43,31.43-31.43Z"/></g><path class="cls-5" d="M412.4,0h195.57c28.59,0,51.81,23.22,51.81,51.81v248.38h-299.19V51.81c0-28.59,23.22-51.81,51.81-51.81Z"/><g class="cls-21"><rect class="cls-9" x="354.87" y="10.43" width="27.43" height="114.29"/><rect class="cls-9" x="637.03" width="27.43" height="127.38"/><rect class="cls-10" x="404.73" y="-13.14" width="212" height="143"/><rect class="cls-3" x="405.3" y="-6.5" width="211.43" height="15"/></g><path class="cls-6" d="M431.97,63h155.43c39.95,0,72.38,32.43,72.38,72.38v227.81h-300.19v-227.81c0-39.95,32.43-72.38,72.38-72.38Z"/><path class="cls-7" d="M436.82,88.33h148.76c31.28,0,56.67,25.39,56.67,56.67v227.9h-262.1v-227.9c0-31.28,25.39-56.67,56.67-56.67Z"/><g class="cls-17"><path class="cls-4" d="M411.59,72.62h199.24c17.35,0,31.43,14.08,31.43,31.43h-262.1c0-17.35,14.08-31.43,31.43-31.43Z"/></g><path class="cls-5" d="M771.98,0h195.57c28.59,0,51.81,23.22,51.81,51.81v248.38h-299.19V51.81c0-28.59,23.22-51.81,51.81-51.81Z"/><g class="cls-24"><rect class="cls-9" x="714.46" y="10.43" width="27.43" height="114.29"/><rect class="cls-9" x="996.62" width="27.43" height="127.38"/><rect class="cls-10" x="764.32" y="-13.14" width="212" height="143"/><rect class="cls-3" x="764.89" y="-6.5" width="211.43" height="15"/></g><path class="cls-6" d="M791.55,63h155.43c39.95,0,72.38,32.43,72.38,72.38v227.81h-300.19v-227.81c0-39.95,32.43-72.38,72.38-72.38Z"/><path class="cls-7" d="M796.41,88.33h148.76c31.28,0,56.67,25.39,56.67,56.67v227.9h-262.1v-227.9c0-31.28,25.39-56.67,56.67-56.67Z"/><g class="cls-14"><path class="cls-4" d="M771.17,72.62h199.24c17.35,0,31.43,14.08,31.43,31.43h-262.1c0-17.35,14.08-31.43,31.43-31.43Z"/></g><path class="cls-5" d="M1131.57,0h195.57c28.59,0,51.81,23.22,51.81,51.81v248.38h-299.19V51.81c0-28.59,23.22-51.81,51.81-51.81Z"/><g class="cls-15"><rect class="cls-9" x="1074.05" y="10.43" width="27.43" height="114.29"/><rect class="cls-9" x="1356.2" width="27.43" height="127.38"/><rect class="cls-10" x="1123.9" y="-13.14" width="212" height="143"/><rect class="cls-3" x="1124.47" y="-6.5" width="211.43" height="15"/></g><path class="cls-6" d="M1151.14,63h155.43c39.95,0,72.38,32.43,72.38,72.38v227.81h-300.19v-227.81c0-39.95,32.43-72.38,72.38-72.38Z"/><path class="cls-7" d="M1156,88.33h148.76c31.28,0,56.67,25.39,56.67,56.67v227.9h-262.1v-227.9c0-31.28,25.39-56.67,56.67-56.67Z"/><g class="cls-22"><path class="cls-4" d="M1130.76,72.62h199.24c17.35,0,31.43,14.08,31.43,31.43h-262.1c0-17.35,14.08-31.43,31.43-31.43Z"/></g><path class="cls-5" d="M1491.16,0h195.57c28.59,0,51.81,23.22,51.81,51.81v248.38h-299.19V51.81c0-28.59,23.22-51.81,51.81-51.81Z"/><g class="cls-19"><rect class="cls-9" x="1433.63" y="10.43" width="27.43" height="114.29"/><rect class="cls-9" x="1715.79" width="27.43" height="127.38"/><rect class="cls-10" x="1483.49" y="-13.14" width="212" height="143"/><rect class="cls-3" x="1484.06" y="-6.5" width="211.43" height="15"/></g><path class="cls-6" d="M1510.73,63h155.43c39.95,0,72.38,32.43,72.38,72.38v227.81h-300.19v-227.81c0-39.95,32.43-72.38,72.38-72.38Z"/><path class="cls-7" d="M1515.58,88.33h148.76c31.28,0,56.67,25.39,56.67,56.67v227.9h-262.1v-227.9c0-31.28,25.39-56.67,56.67-56.67Z"/><g class="cls-25"><path class="cls-4" d="M1490.35,72.62h199.24c17.35,0,31.43,14.08,31.43,31.43h-262.1c0-17.35,14.08-31.43,31.43-31.43Z"/></g><path class="cls-5" d="M1850.74,0h195.57c28.59,0,51.81,23.22,51.81,51.81v248.38h-299.19V51.81c0-28.59,23.22-51.81,51.81-51.81Z"/><g class="cls-1"><rect class="cls-9" x="1793.22" y="10.43" width="27.43" height="114.29"/><rect class="cls-9" x="2075.38" width="27.43" height="127.38"/><rect class="cls-10" x="1843.08" y="-13.14" width="212" height="143"/><rect class="cls-3" x="1843.65" y="-6.5" width="211.43" height="15"/></g><path class="cls-6" d="M1870.31,63h155.43c39.95,0,72.38,32.43,72.38,72.38v227.81h-300.19v-227.81c0-39.95,32.43-72.38,72.38-72.38Z"/><path class="cls-7" d="M1875.17,88.33h148.76c31.28,0,56.67,25.39,56.67,56.67v227.9h-262.1v-227.9c0-31.28,25.39-56.67,56.67-56.67Z"/><g class="cls-18"><path class="cls-4" d="M1849.93,72.62h199.24c17.35,0,31.43,14.08,31.43,31.43h-262.1c0-17.35,14.08-31.43,31.43-31.43Z"/></g><path class="cls-5" d="M2210.33,0h195.57c28.59,0,51.81,23.22,51.81,51.81v248.38h-299.19V51.81c0-28.59,23.22-51.81,51.81-51.81Z"/><g class="cls-12"><rect class="cls-9" x="2152.81" y="10.43" width="27.43" height="114.29"/><rect class="cls-9" x="2434.96" width="27.43" height="127.38"/><rect class="cls-10" x="2202.66" y="-13.14" width="212" height="143"/><rect class="cls-3" x="2203.23" y="-6.5" width="211.43" height="15"/></g><path class="cls-6" d="M2229.9,63h155.43c39.95,0,72.38,32.43,72.38,72.38v227.81h-300.19v-227.81c0-39.95,32.43-72.38,72.38-72.38Z"/><path class="cls-7" d="M2234.76,88.33h148.76c31.28,0,56.67,25.39,56.67,56.67v227.9h-262.1v-227.9c0-31.28,25.39-56.67,56.67-56.67Z"/><g class="cls-23"><path class="cls-4" d="M2209.52,72.62h199.24c17.35,0,31.43,14.08,31.43,31.43h-262.1c0-17.35,14.08-31.43,31.43-31.43Z"/></g><path class="cls-5" d="M2569.92,0h195.57c28.59,0,51.81,23.22,51.81,51.81v248.38h-299.19V51.81c0-28.59,23.22-51.81,51.81-51.81Z"/><g class="cls-13"><rect class="cls-9" x="2512.39" y="10.43" width="27.43" height="114.29"/><rect class="cls-10" x="2562.25" y="-13.14" width="212" height="143"/><rect class="cls-3" x="2562.82" y="-6.5" width="211.43" height="15"/></g><path class="cls-6" d="M2589.49,63h155.43c39.95,0,72.38,32.43,72.38,72.38v227.81h-300.19v-227.81c0-39.95,32.43-72.38,72.38-72.38Z"/><path class="cls-7" d="M2594.34,88.33h148.76c31.28,0,56.67,25.39,56.67,56.67v227.9h-262.1v-227.9c0-31.28,25.39-56.67,56.67-56.67Z"/><g class="cls-2"><path class="cls-4" d="M2569.11,72.62h199.24c17.35,0,31.43,14.08,31.43,31.43h-262.1c0-17.35,14.08-31.43,31.43-31.43Z"/></g></g></g></svg>