<?xml version="1.0" encoding="UTF-8"?><svg id="Layer_2" xmlns="http://www.w3.org/2000/svg" viewBox="0 0 450.77 450.77"><defs><style>.cls-1{fill:#b96a28;}.cls-1,.cls-2,.cls-3,.cls-4{stroke-width:0px;}.cls-2{fill:#f1f0f0;}.cls-3{fill:#f0da10;}.cls-4{fill:#efb21e;}</style></defs><g id="Layer_5"><circle class="cls-4" cx="225.38" cy="225.38" r="170"/><g id="_Radial_Repeat_"><rect class="cls-4" x="178.14" y="319.91" width="100" height="130" transform="translate(462.89 765.83) rotate(179.01)"/><rect class="cls-3" x="185.4" y="335.9" width="86.96" height="104" transform="translate(464.42 771.79) rotate(179.01)"/><rect class="cls-4" x="190.04" y="336.38" width="75.81" height="103.09" transform="translate(455.9 775.86) rotate(-180)"/><rect class="cls-3" x="198.71" y="336.38" width="57.9" height="103.09" transform="translate(455.33 775.86) rotate(180)"/><rect class="cls-2" x="215.95" y="336.38" width="24.38" height="103.09" transform="translate(456.28 775.86) rotate(180)"/></g><g id="_Radial_Repeat_-2"><rect class="cls-4" x="64.53" y="275.14" width="100" height="130" transform="translate(-39.43 664.34) rotate(-135.99)"/><rect class="cls-3" x="69.46" y="290.77" width="86.96" height="104" transform="translate(-43.99 667.77) rotate(-135.99)"/><rect class="cls-4" x="74.36" y="290.59" width="75.81" height="103.09" transform="translate(-50.29 663.44) rotate(-135)"/><rect class="cls-3" x="83.11" y="290.39" width="57.9" height="103.09" transform="translate(-50.49 662.95) rotate(-135)"/><rect class="cls-2" x="100.2" y="290.72" width="24.38" height="103.09" transform="translate(-50.15 663.77) rotate(-135)"/></g><g id="_Radial_Repeat_-3"><rect class="cls-4" x="15.85" y="163.14" width="100" height="130" transform="translate(-161.11 297.92) rotate(-90.99)"/><rect class="cls-3" x="19.39" y="176.88" width="86.96" height="104" transform="translate(-164.89 295.69) rotate(-90.99)"/><rect class="cls-4" x="24.93" y="176.4" width="75.81" height="103.09" transform="translate(-165.11 290.79) rotate(-90)"/><rect class="cls-3" x="33.89" y="176.12" width="57.9" height="103.09" transform="translate(-164.82 290.5) rotate(-90)"/><rect class="cls-2" x="50.65" y="176.59" width="24.38" height="103.09" transform="translate(-165.3 290.98) rotate(-90)"/></g><g id="_Radial_Repeat_-4"><rect class="cls-4" x="60.63" y="49.53" width="100" height="130" transform="translate(-48.6 114.52) rotate(-45.99)"/><rect class="cls-3" x="64.52" y="60.94" width="86.96" height="104" transform="translate(-48.26 112.14) rotate(-45.99)"/><rect class="cls-4" x="70.73" y="60.72" width="75.81" height="103.09" transform="translate(-47.56 109.7) rotate(-45)"/><rect class="cls-3" x="79.88" y="60.51" width="57.9" height="103.09" transform="translate(-47.36 109.78) rotate(-45)"/><rect class="cls-2" x="96.31" y="60.85" width="24.38" height="103.09" transform="translate(-47.7 109.64) rotate(-45)"/></g><g id="_Radial_Repeat_-5"><rect class="cls-4" x="172.63" y=".85" width="100" height="130" transform="translate(-1.1 3.86) rotate(-.99)"/><rect class="cls-3" x="178.41" y="10.87" width="86.96" height="104" transform="translate(-1.05 3.84) rotate(-.99)"/><rect class="cls-4" x="184.91" y="11.29" width="75.81" height="103.09"/><rect class="cls-3" x="194.15" y="11.29" width="57.9" height="103.09"/><rect class="cls-2" x="210.44" y="11.29" width="24.38" height="103.09"/></g><g id="_Radial_Repeat_-6"><rect class="cls-4" x="286.24" y="45.63" width="100" height="130" transform="translate(171.28 -202.55) rotate(44.01)"/><rect class="cls-3" x="294.35" y="56" width="86.96" height="104" transform="translate(169.89 -204.4) rotate(44.01)"/><rect class="cls-4" x="300.6" y="57.09" width="75.81" height="103.09" transform="translate(175.96 -207.54) rotate(45)"/><rect class="cls-3" x="309.76" y="57.29" width="57.9" height="103.09" transform="translate(176.16 -207.63) rotate(45)"/><rect class="cls-2" x="326.18" y="56.95" width="24.38" height="103.09" transform="translate(175.83 -207.49) rotate(45)"/></g><g id="_Radial_Repeat_-7"><rect class="cls-4" x="334.91" y="157.63" width="100" height="130" transform="translate(600.86 -166.07) rotate(89.01)"/><rect class="cls-3" x="344.42" y="169.89" width="86.96" height="104" transform="translate(603.06 -169.79) rotate(89.01)"/><rect class="cls-4" x="350.02" y="171.27" width="75.81" height="103.09" transform="translate(610.75 -165.11) rotate(90)"/><rect class="cls-3" x="358.98" y="171.56" width="57.9" height="103.09" transform="translate(611.03 -164.82) rotate(90)"/><rect class="cls-2" x="375.74" y="171.08" width="24.38" height="103.09" transform="translate(610.56 -165.3) rotate(90)"/></g><g id="_Radial_Repeat_-8"><rect class="cls-4" x="290.14" y="271.24" width="100" height="130" transform="translate(818.29 325.22) rotate(134.01)"/><rect class="cls-3" x="299.29" y="285.83" width="86.96" height="104" transform="translate(823.9 326.02) rotate(134.01)"/><rect class="cls-4" x="304.23" y="286.96" width="75.81" height="103.09" transform="translate(823.42 335.94) rotate(135)"/><rect class="cls-3" x="312.98" y="287.16" width="57.9" height="103.09" transform="translate(823.22 336.43) rotate(135)"/><rect class="cls-2" x="330.08" y="286.83" width="24.38" height="103.09" transform="translate(823.55 335.62) rotate(135)"/></g><circle class="cls-3" cx="225.38" cy="225.38" r="160"/><circle class="cls-1" cx="225.38" cy="225.38" r="140"/><circle class="cls-3" cx="225.38" cy="225.38" r="120"/><circle class="cls-1" cx="225.38" cy="225.38" r="100"/><circle class="cls-4" cx="225.38" cy="225.38" r="90"/><circle class="cls-1" cx="225.38" cy="225.38" r="60"/><circle class="cls-3" cx="225.38" cy="225.38" r="40"/></g></svg>