<?xml version="1.0" encoding="UTF-8"?><svg id="Layer_2" xmlns="http://www.w3.org/2000/svg" xmlns:xlink="http://www.w3.org/1999/xlink" viewBox="0 0 1279.24 1080.14"><defs><style>.cls-1{fill:url(#linear-gradient-38);}.cls-1,.cls-2,.cls-3,.cls-4,.cls-5,.cls-6,.cls-7,.cls-8,.cls-9,.cls-10,.cls-11,.cls-12,.cls-13,.cls-14,.cls-15,.cls-16,.cls-17,.cls-18,.cls-19,.cls-20,.cls-21,.cls-22,.cls-23,.cls-24,.cls-25,.cls-26,.cls-27,.cls-28,.cls-29,.cls-30,.cls-31,.cls-32,.cls-33,.cls-34,.cls-35,.cls-36,.cls-37,.cls-38,.cls-39,.cls-40,.cls-41,.cls-42,.cls-43,.cls-44,.cls-45,.cls-46,.cls-47,.cls-48,.cls-49,.cls-50,.cls-51,.cls-52,.cls-53,.cls-54{stroke-width:0px;}.cls-2{fill:url(#linear-gradient-12);}.cls-3{fill:url(#linear-gradient-17);}.cls-4{fill:url(#linear-gradient-19);}.cls-5{fill:url(#linear-gradient-33);}.cls-6{fill:url(#linear-gradient);}.cls-7{fill:url(#linear-gradient-21);}.cls-8{fill:url(#linear-gradient-6);}.cls-9{fill:url(#linear-gradient-42);}.cls-10{fill:url(#linear-gradient-15);}.cls-11{fill:url(#linear-gradient-11);}.cls-12{fill:url(#linear-gradient-5);}.cls-13{fill:none;}.cls-14{fill:url(#linear-gradient-31);}.cls-15{fill:#90191c;}.cls-16{fill:url(#linear-gradient-34);}.cls-55{clip-path:url(#clippath-1);}.cls-17{fill:url(#linear-gradient-41);}.cls-18{fill:url(#linear-gradient-40);}.cls-19{fill:url(#linear-gradient-13);}.cls-20{fill:url(#linear-gradient-23);}.cls-21{fill:url(#linear-gradient-25);}.cls-22{fill:url(#linear-gradient-43);}.cls-23{fill:url(#linear-gradient-16);}.cls-24{fill:url(#linear-gradient-22);}.cls-25{fill:url(#linear-gradient-35);}.cls-26{fill:url(#linear-gradient-50);}.cls-27{fill:url(#linear-gradient-32);}.cls-28{fill:url(#linear-gradient-20);}.cls-29{fill:url(#linear-gradient-14);}.cls-30{fill:url(#linear-gradient-2);}.cls-31{fill:url(#linear-gradient-45);}.cls-32{fill:url(#linear-gradient-7);}.cls-33{fill:url(#linear-gradient-39);}.cls-34{fill:url(#linear-gradient-3);}.cls-56{clip-path:url(#clippath);}.cls-35{fill:url(#linear-gradient-9);}.cls-36{fill:url(#linear-gradient-27);}.cls-37{fill:url(#linear-gradient-36);}.cls-38{fill:url(#linear-gradient-48);}.cls-39{fill:url(#linear-gradient-49);}.cls-40{fill:url(#linear-gradient-8);}.cls-41{fill:url(#linear-gradient-47);}.cls-42{fill:url(#linear-gradient-24);}.cls-43{fill:url(#linear-gradient-26);}.cls-44{fill:url(#linear-gradient-18);}.cls-45{fill:url(#linear-gradient-51);}.cls-46{fill:url(#linear-gradient-30);}.cls-47{fill:#fff;}.cls-48{fill:url(#linear-gradient-44);}.cls-49{fill:url(#linear-gradient-29);}.cls-50{fill:url(#linear-gradient-46);}.cls-51{fill:url(#linear-gradient-28);}.cls-52{fill:url(#linear-gradient-10);}.cls-53{fill:url(#linear-gradient-4);}.cls-54{fill:url(#linear-gradient-37);}</style><clipPath id="clippath"><rect class="cls-13" width="1279.24" height="1080.14"/></clipPath><clipPath id="clippath-1"><rect class="cls-13" width="1279.24" height="1080.14"/></clipPath><linearGradient id="linear-gradient" x1="-5.36" y1="1064.92" x2="-5.36" y2="3.28" gradientUnits="userSpaceOnUse"><stop offset="0" stop-color="#4e1218"/><stop offset=".35" stop-color="#401214"/><stop offset=".73" stop-color="#371212"/></linearGradient><linearGradient id="linear-gradient-2" x1="37" x2="37" y2="3.93" xlink:href="#linear-gradient"/><linearGradient id="linear-gradient-3" x1="70" x2="70" y2="3.93" xlink:href="#linear-gradient"/><linearGradient id="linear-gradient-4" x1="98.5" x2="98.5" xlink:href="#linear-gradient"/><linearGradient id="linear-gradient-5" x1="5" x2="5" xlink:href="#linear-gradient"/><linearGradient id="linear-gradient-6" x1="140.86" x2="140.86" y2="3.93" xlink:href="#linear-gradient"/><linearGradient id="linear-gradient-7" x1="173.86" x2="173.86" y2="3.93" xlink:href="#linear-gradient"/><linearGradient id="linear-gradient-8" x1="202.36" x2="202.36" xlink:href="#linear-gradient"/><linearGradient id="linear-gradient-9" x1="108.86" x2="108.86" xlink:href="#linear-gradient"/><linearGradient id="linear-gradient-10" x1="244.71" x2="244.71" y2="3.93" xlink:href="#linear-gradient"/><linearGradient id="linear-gradient-11" x1="277.71" x2="277.71" y2="3.93" xlink:href="#linear-gradient"/><linearGradient id="linear-gradient-12" x1="306.21" x2="306.21" xlink:href="#linear-gradient"/><linearGradient id="linear-gradient-13" x1="212.71" x2="212.71" xlink:href="#linear-gradient"/><linearGradient id="linear-gradient-14" x1="348.57" x2="348.57" y2="3.93" xlink:href="#linear-gradient"/><linearGradient id="linear-gradient-15" x1="381.57" x2="381.57" y2="3.93" xlink:href="#linear-gradient"/><linearGradient id="linear-gradient-16" x1="410.07" x2="410.07" xlink:href="#linear-gradient"/><linearGradient id="linear-gradient-17" x1="316.57" x2="316.57" xlink:href="#linear-gradient"/><linearGradient id="linear-gradient-18" x1="452.43" x2="452.43" y2="3.93" xlink:href="#linear-gradient"/><linearGradient id="linear-gradient-19" x1="485.43" x2="485.43" y2="3.93" xlink:href="#linear-gradient"/><linearGradient id="linear-gradient-20" x1="513.93" x2="513.93" xlink:href="#linear-gradient"/><linearGradient id="linear-gradient-21" x1="420.43" x2="420.43" xlink:href="#linear-gradient"/><linearGradient id="linear-gradient-22" x1="556.29" x2="556.29" y2="3.93" xlink:href="#linear-gradient"/><linearGradient id="linear-gradient-23" x1="589.29" x2="589.29" y2="3.93" xlink:href="#linear-gradient"/><linearGradient id="linear-gradient-24" x1="617.79" x2="617.79" xlink:href="#linear-gradient"/><linearGradient id="linear-gradient-25" x1="524.29" x2="524.29" xlink:href="#linear-gradient"/><linearGradient id="linear-gradient-26" x1="660.14" x2="660.14" y2="3.93" xlink:href="#linear-gradient"/><linearGradient id="linear-gradient-27" x1="693.14" x2="693.14" y2="3.93" xlink:href="#linear-gradient"/><linearGradient id="linear-gradient-28" x1="721.64" x2="721.64" xlink:href="#linear-gradient"/><linearGradient id="linear-gradient-29" x1="628.14" x2="628.14" xlink:href="#linear-gradient"/><linearGradient id="linear-gradient-30" x1="764" x2="764" y2="3.93" xlink:href="#linear-gradient"/><linearGradient id="linear-gradient-31" x1="797" x2="797" y2="3.93" xlink:href="#linear-gradient"/><linearGradient id="linear-gradient-32" x1="825.5" x2="825.5" xlink:href="#linear-gradient"/><linearGradient id="linear-gradient-33" x1="732" x2="732" xlink:href="#linear-gradient"/><linearGradient id="linear-gradient-34" x1="867.86" x2="867.86" y2="3.93" xlink:href="#linear-gradient"/><linearGradient id="linear-gradient-35" x1="900.86" x2="900.86" y2="3.93" xlink:href="#linear-gradient"/><linearGradient id="linear-gradient-36" x1="929.36" x2="929.36" xlink:href="#linear-gradient"/><linearGradient id="linear-gradient-37" x1="835.86" x2="835.86" xlink:href="#linear-gradient"/><linearGradient id="linear-gradient-38" x1="971.71" x2="971.71" y2="3.93" xlink:href="#linear-gradient"/><linearGradient id="linear-gradient-39" x1="1004.71" x2="1004.71" y2="3.93" xlink:href="#linear-gradient"/><linearGradient id="linear-gradient-40" x1="1033.21" x2="1033.21" xlink:href="#linear-gradient"/><linearGradient id="linear-gradient-41" x1="939.71" x2="939.71" xlink:href="#linear-gradient"/><linearGradient id="linear-gradient-42" x1="1075.57" x2="1075.57" y2="3.93" xlink:href="#linear-gradient"/><linearGradient id="linear-gradient-43" x1="1108.57" x2="1108.57" y2="3.93" xlink:href="#linear-gradient"/><linearGradient id="linear-gradient-44" x1="1137.07" x2="1137.07" xlink:href="#linear-gradient"/><linearGradient id="linear-gradient-45" x1="1043.57" x2="1043.57" xlink:href="#linear-gradient"/><linearGradient id="linear-gradient-46" x1="1179.43" x2="1179.43" y2="3.93" xlink:href="#linear-gradient"/><linearGradient id="linear-gradient-47" x1="1212.43" x2="1212.43" y2="3.93" xlink:href="#linear-gradient"/><linearGradient id="linear-gradient-48" x1="1240.93" x2="1240.93" xlink:href="#linear-gradient"/><linearGradient id="linear-gradient-49" x1="1147.43" x2="1147.43" xlink:href="#linear-gradient"/><linearGradient id="linear-gradient-50" x1="1283.29" x2="1283.29" y2="3.93" xlink:href="#linear-gradient"/><linearGradient id="linear-gradient-51" x1="1251.29" x2="1251.29" xlink:href="#linear-gradient"/></defs><g id="Layer_4"><g id="_Mirror_Repeat_"><g class="cls-56"><g class="cls-55"><path class="cls-6" d="M1.14,3.28v1061.64h-13c.02-353.67.04-707.33.06-1061,4.31-.21,8.63-.43,12.94-.64Z"/><path class="cls-47" d="M-46.8,3.93c-2.37,0-4.75,0-7.12,0-8.63,0-17.25,0-25.88,0-4.71,0-9.41,0-14.12,0-3.31-.21-6.63-.43-9.94-.64.5-1.1,1-3.17,1.5-3.17,34-.15,68-.15,102,0,.5,0,1,2.07,1.5,3.17-4.31.21-8.63.43-12.94.64-3.04,0-6.08,0-9.12,0-8.63,0-17.25,0-25.88,0Z"/><path class="cls-30" d="M50,1064.92h-26c.02-353.67.04-707.33.06-1061,8.63,0,17.25,0,25.88,0,.02,7.71.06,15.42.06,23.13,0,345.95,0,691.91,0,1037.86Z"/><path class="cls-34" d="M83,1064.92h-26c.02-353.67.04-707.33.06-1061,8.63,0,17.25,0,25.88,0,.02,8.26.06,16.52.06,24.79,0,345.4,0,690.81,0,1036.21Z"/><path class="cls-15" d="M24.06,3.93c-.02,356.45-.04,712.91-.06,1069.36h-14c0-1.67,0-3.33,0-5-.02-354.79-.04-709.58-.05-1064.36,4.71,0,9.41,0,14.12,0Z"/><path class="cls-53" d="M105,3.28v1061.64h-13c.02-353.67.04-707.33.06-1061,4.31-.21,8.63-.43,12.94-.64Z"/><path class="cls-12" d="M9.94,3.92c.02,352.01.04,704.03.05,1056.04,0,1.65,0,3.31,0,4.96H0V3.28c3.31.21,6.63.43,9.94.64Z"/><path class="cls-15" d="M92.06,3.93c-.02,356.45-.04,712.91-.06,1069.36h-9c0-348.13,0-696.25,0-1044.38,0-8.33-.04-16.66-.06-24.98,3.04,0,6.08,0,9.12,0Z"/><path class="cls-15" d="M57.06,3.93c-.02,356.45-.04,712.91-.06,1069.36h-7c0-348.68,0-697.36,0-1046.04,0-7.77-.04-15.54-.06-23.32,2.37,0,4.75,0,7.12,0Z"/><path class="cls-47" d="M57.06,3.93c-2.37,0-4.75,0-7.12,0-8.63,0-17.25,0-25.88,0-4.71,0-9.41,0-14.12,0-3.31-.21-6.63-.43-9.94-.64C.5,2.18,1,.12,1.5.11c34-.15,68-.15,102,0,.5,0,1,2.07,1.5,3.17-4.31.21-8.63.43-12.94.64-3.04,0-6.08,0-9.12,0-8.63,0-17.25,0-25.88,0Z"/><path class="cls-8" d="M153.86,1064.92h-26c.02-353.67.04-707.33.06-1061,8.63,0,17.25,0,25.88,0,.02,7.71.06,15.42.06,23.13,0,345.95,0,691.91,0,1037.86Z"/><path class="cls-32" d="M186.86,1064.92h-26c.02-353.67.04-707.33.06-1061,8.63,0,17.25,0,25.88,0,.02,8.26.06,16.52.06,24.79,0,345.4,0,690.81,0,1036.21Z"/><path class="cls-15" d="M127.92,3.93c-.02,356.45-.04,712.91-.06,1069.36h-14c0-1.67,0-3.33,0-5-.02-354.79-.04-709.58-.05-1064.36,4.71,0,9.41,0,14.12,0Z"/><path class="cls-40" d="M208.86,3.28v1061.64h-13c.02-353.67.04-707.33.06-1061,4.31-.21,8.63-.43,12.94-.64Z"/><path class="cls-35" d="M113.8,3.92c.02,352.01.04,704.03.05,1056.04,0,1.65,0,3.31,0,4.96h-10V3.28c3.31.21,6.63.43,9.94.64Z"/><path class="cls-15" d="M195.92,3.93c-.02,356.45-.04,712.91-.06,1069.36h-9c0-348.13,0-696.25,0-1044.38,0-8.33-.04-16.66-.06-24.98,3.04,0,6.08,0,9.12,0Z"/><path class="cls-15" d="M160.92,3.93c-.02,356.45-.04,712.91-.06,1069.36h-7c0-348.68,0-697.36,0-1046.04,0-7.77-.04-15.54-.06-23.32,2.37,0,4.75,0,7.12,0Z"/><path class="cls-47" d="M160.92,3.93c-2.37,0-4.75,0-7.12,0-8.63,0-17.25,0-25.88,0-4.71,0-9.41,0-14.12,0-3.31-.21-6.63-.43-9.94-.64.5-1.1,1-3.17,1.5-3.17,34-.15,68-.15,102,0,.5,0,1,2.07,1.5,3.17-4.31.21-8.63.43-12.94.64-3.04,0-6.08,0-9.12,0-8.63,0-17.25,0-25.88,0Z"/><path class="cls-52" d="M257.71,1064.92h-26c.02-353.67.04-707.33.06-1061,8.63,0,17.25,0,25.88,0,.02,7.71.06,15.42.06,23.13,0,345.95,0,691.91,0,1037.86Z"/><path class="cls-11" d="M290.71,1064.92h-26c.02-353.67.04-707.33.06-1061,8.63,0,17.25,0,25.88,0,.02,8.26.06,16.52.06,24.79,0,345.4,0,690.81,0,1036.21Z"/><path class="cls-15" d="M231.77,3.93c-.02,356.45-.04,712.91-.06,1069.36h-14c0-1.67,0-3.33,0-5-.02-354.79-.04-709.58-.05-1064.36,4.71,0,9.41,0,14.12,0Z"/><path class="cls-2" d="M312.71,3.28v1061.64h-13c.02-353.67.04-707.33.06-1061,4.31-.21,8.63-.43,12.94-.64Z"/><path class="cls-19" d="M217.65,3.92c.02,352.01.04,704.03.05,1056.04,0,1.65,0,3.31,0,4.96h-10V3.28c3.31.21,6.63.43,9.94.64Z"/><path class="cls-15" d="M299.77,3.93c-.02,356.45-.04,712.91-.06,1069.36h-9c0-348.13,0-696.25,0-1044.38,0-8.33-.04-16.66-.06-24.98,3.04,0,6.08,0,9.12,0Z"/><path class="cls-15" d="M264.77,3.93c-.02,356.45-.04,712.91-.06,1069.36h-7c0-348.68,0-697.36,0-1046.04,0-7.77-.04-15.54-.06-23.32,2.37,0,4.75,0,7.12,0Z"/><path class="cls-47" d="M264.77,3.93c-2.37,0-4.75,0-7.12,0-8.63,0-17.25,0-25.88,0-4.71,0-9.41,0-14.12,0-3.31-.21-6.63-.43-9.94-.64.5-1.1,1-3.17,1.5-3.17,34-.15,68-.15,102,0,.5,0,1,2.07,1.5,3.17-4.31.21-8.63.43-12.94.64-3.04,0-6.08,0-9.12,0-8.63,0-17.25,0-25.88,0Z"/><path class="cls-29" d="M361.57,1064.92h-26c.02-353.67.04-707.33.06-1061,8.63,0,17.25,0,25.88,0,.02,7.71.06,15.42.06,23.13,0,345.95,0,691.91,0,1037.86Z"/><path class="cls-10" d="M394.57,1064.92h-26c.02-353.67.04-707.33.06-1061,8.63,0,17.25,0,25.88,0,.02,8.26.06,16.52.06,24.79,0,345.4,0,690.81,0,1036.21Z"/><path class="cls-15" d="M335.63,3.93c-.02,356.45-.04,712.91-.06,1069.36h-14c0-1.67,0-3.33,0-5-.02-354.79-.04-709.58-.05-1064.36,4.71,0,9.41,0,14.12,0Z"/><path class="cls-23" d="M416.57,3.28v1061.64h-13c.02-353.67.04-707.33.06-1061,4.31-.21,8.63-.43,12.94-.64Z"/><path class="cls-3" d="M321.51,3.92c.02,352.01.04,704.03.05,1056.04,0,1.65,0,3.31,0,4.96h-10V3.28c3.31.21,6.63.43,9.94.64Z"/><path class="cls-15" d="M403.63,3.93c-.02,356.45-.04,712.91-.06,1069.36h-9c0-348.13,0-696.25,0-1044.38,0-8.33-.04-16.66-.06-24.98,3.04,0,6.08,0,9.12,0Z"/><path class="cls-15" d="M368.63,3.93c-.02,356.45-.04,712.91-.06,1069.36h-7c0-348.68,0-697.36,0-1046.04,0-7.77-.04-15.54-.06-23.32,2.37,0,4.75,0,7.12,0Z"/><path class="cls-47" d="M368.63,3.93c-2.37,0-4.75,0-7.12,0-8.63,0-17.25,0-25.88,0-4.71,0-9.41,0-14.12,0-3.31-.21-6.63-.43-9.94-.64.5-1.1,1-3.17,1.5-3.17,34-.15,68-.15,102,0,.5,0,1,2.07,1.5,3.17-4.31.21-8.63.43-12.94.64-3.04,0-6.08,0-9.12,0-8.63,0-17.25,0-25.88,0Z"/><path class="cls-44" d="M465.43,1064.92h-26c.02-353.67.04-707.33.06-1061,8.63,0,17.25,0,25.88,0,.02,7.71.06,15.42.06,23.13,0,345.95,0,691.91,0,1037.86Z"/><path class="cls-4" d="M498.43,1064.92h-26c.02-353.67.04-707.33.06-1061,8.63,0,17.25,0,25.88,0,.02,8.26.06,16.52.06,24.79,0,345.4,0,690.81,0,1036.21Z"/><path class="cls-15" d="M439.49,3.93c-.02,356.45-.04,712.91-.06,1069.36h-14c0-1.67,0-3.33,0-5-.02-354.79-.04-709.58-.05-1064.36,4.71,0,9.41,0,14.12,0Z"/><path class="cls-28" d="M520.43,3.28v1061.64h-13c.02-353.67.04-707.33.06-1061,4.31-.21,8.63-.43,12.94-.64Z"/><path class="cls-7" d="M425.37,3.92c.02,352.01.04,704.03.05,1056.04,0,1.65,0,3.31,0,4.96h-10V3.28c3.31.21,6.63.43,9.94.64Z"/><path class="cls-15" d="M507.49,3.93c-.02,356.45-.04,712.91-.06,1069.36h-9c0-348.13,0-696.25,0-1044.38,0-8.33-.04-16.66-.06-24.98,3.04,0,6.08,0,9.12,0Z"/><path class="cls-15" d="M472.49,3.93c-.02,356.45-.04,712.91-.06,1069.36h-7c0-348.68,0-697.36,0-1046.04,0-7.77-.04-15.54-.06-23.32,2.37,0,4.75,0,7.12,0Z"/><path class="cls-47" d="M472.49,3.93c-2.37,0-4.75,0-7.12,0-8.63,0-17.25,0-25.88,0-4.71,0-9.41,0-14.12,0-3.31-.21-6.63-.43-9.94-.64.5-1.1,1-3.17,1.5-3.17,34-.15,68-.15,102,0,.5,0,1,2.07,1.5,3.17-4.31.21-8.63.43-12.94.64-3.04,0-6.08,0-9.12,0-8.63,0-17.25,0-25.88,0Z"/><path class="cls-24" d="M569.29,1064.92h-26c.02-353.67.04-707.33.06-1061,8.63,0,17.25,0,25.88,0,.02,7.71.06,15.42.06,23.13,0,345.95,0,691.91,0,1037.86Z"/><path class="cls-20" d="M602.29,1064.92h-26c.02-353.67.04-707.33.06-1061,8.63,0,17.25,0,25.88,0,.02,8.26.06,16.52.06,24.79,0,345.4,0,690.81,0,1036.21Z"/><path class="cls-15" d="M543.35,3.93c-.02,356.45-.04,712.91-.06,1069.36h-14c0-1.67,0-3.33,0-5-.02-354.79-.04-709.58-.05-1064.36,4.71,0,9.41,0,14.12,0Z"/><path class="cls-42" d="M624.29,3.28v1061.64h-13c.02-353.67.04-707.33.06-1061,4.31-.21,8.63-.43,12.94-.64Z"/><path class="cls-21" d="M529.23,3.92c.02,352.01.04,704.03.05,1056.04,0,1.65,0,3.31,0,4.96h-10V3.28c3.31.21,6.63.43,9.94.64Z"/><path class="cls-15" d="M611.35,3.93c-.02,356.45-.04,712.91-.06,1069.36h-9c0-348.13,0-696.25,0-1044.38,0-8.33-.04-16.66-.06-24.98,3.04,0,6.08,0,9.12,0Z"/><path class="cls-15" d="M576.35,3.93c-.02,356.45-.04,712.91-.06,1069.36h-7c0-348.68,0-697.36,0-1046.04,0-7.77-.04-15.54-.06-23.32,2.37,0,4.75,0,7.12,0Z"/><path class="cls-47" d="M576.35,3.93c-2.37,0-4.75,0-7.12,0-8.63,0-17.25,0-25.88,0-4.71,0-9.41,0-14.12,0-3.31-.21-6.63-.43-9.94-.64.5-1.1,1-3.17,1.5-3.17,34-.15,68-.15,102,0,.5,0,1,2.07,1.5,3.17-4.31.21-8.63.43-12.94.64-3.04,0-6.08,0-9.12,0-8.63,0-17.25,0-25.88,0Z"/><path class="cls-43" d="M673.14,1064.92h-26c.02-353.67.04-707.33.06-1061,8.63,0,17.25,0,25.88,0,.02,7.71.06,15.42.06,23.13,0,345.95,0,691.91,0,1037.86Z"/><path class="cls-36" d="M706.14,1064.92h-26c.02-353.67.04-707.33.06-1061,8.63,0,17.25,0,25.88,0,.02,8.26.06,16.52.06,24.79,0,345.4,0,690.81,0,1036.21Z"/><path class="cls-15" d="M647.2,3.93c-.02,356.45-.04,712.91-.06,1069.36h-14c0-1.67,0-3.33,0-5-.02-354.79-.04-709.58-.05-1064.36,4.71,0,9.41,0,14.12,0Z"/><path class="cls-51" d="M728.14,3.28v1061.64h-13c.02-353.67.04-707.33.06-1061,4.31-.21,8.63-.43,12.94-.64Z"/><path class="cls-49" d="M633.08,3.92c.02,352.01.04,704.03.05,1056.04,0,1.65,0,3.31,0,4.96h-10V3.28c3.31.21,6.63.43,9.94.64Z"/><path class="cls-15" d="M715.2,3.93c-.02,356.45-.04,712.91-.06,1069.36h-9c0-348.13,0-696.25,0-1044.38,0-8.33-.04-16.66-.06-24.98,3.04,0,6.08,0,9.12,0Z"/><path class="cls-15" d="M680.2,3.93c-.02,356.45-.04,712.91-.06,1069.36h-7c0-348.68,0-697.36,0-1046.04,0-7.77-.04-15.54-.06-23.32,2.37,0,4.75,0,7.12,0Z"/><path class="cls-47" d="M680.2,3.93c-2.37,0-4.75,0-7.12,0-8.63,0-17.25,0-25.88,0-4.71,0-9.41,0-14.12,0-3.31-.21-6.63-.43-9.94-.64.5-1.1,1-3.17,1.5-3.17,34-.15,68-.15,102,0,.5,0,1,2.07,1.5,3.17-4.31.21-8.63.43-12.94.64-3.04,0-6.08,0-9.12,0-8.63,0-17.25,0-25.88,0Z"/><path class="cls-46" d="M777,1064.92h-26c.02-353.67.04-707.33.06-1061,8.63,0,17.25,0,25.88,0,.02,7.71.06,15.42.06,23.13,0,345.95,0,691.91,0,1037.86Z"/><path class="cls-14" d="M810,1064.92h-26c.02-353.67.04-707.33.06-1061,8.63,0,17.25,0,25.88,0,.02,8.26.06,16.52.06,24.79,0,345.4,0,690.81,0,1036.21Z"/><path class="cls-15" d="M751.06,3.93c-.02,356.45-.04,712.91-.06,1069.36h-14c0-1.67,0-3.33,0-5-.02-354.79-.04-709.58-.05-1064.36,4.71,0,9.41,0,14.12,0Z"/><path class="cls-27" d="M832,3.28v1061.64h-13c.02-353.67.04-707.33.06-1061,4.31-.21,8.63-.43,12.94-.64Z"/><path class="cls-5" d="M736.94,3.92c.02,352.01.04,704.03.05,1056.04,0,1.65,0,3.31,0,4.96h-10V3.28c3.31.21,6.63.43,9.94.64Z"/><path class="cls-15" d="M819.06,3.93c-.02,356.45-.04,712.91-.06,1069.36h-9c0-348.13,0-696.25,0-1044.38,0-8.33-.04-16.66-.06-24.98,3.04,0,6.08,0,9.12,0Z"/><path class="cls-15" d="M784.06,3.93c-.02,356.45-.04,712.91-.06,1069.36h-7c0-348.68,0-697.36,0-1046.04,0-7.77-.04-15.54-.06-23.32,2.37,0,4.75,0,7.12,0Z"/><path class="cls-47" d="M784.06,3.93c-2.37,0-4.75,0-7.12,0-8.63,0-17.25,0-25.88,0-4.71,0-9.41,0-14.12,0-3.31-.21-6.63-.43-9.94-.64.5-1.1,1-3.17,1.5-3.17,34-.15,68-.15,102,0,.5,0,1,2.07,1.5,3.17-4.31.21-8.63.43-12.94.64-3.04,0-6.08,0-9.12,0-8.63,0-17.25,0-25.88,0Z"/><path class="cls-16" d="M880.86,1064.92h-26c.02-353.67.04-707.33.06-1061,8.63,0,17.25,0,25.88,0,.02,7.71.06,15.42.06,23.13,0,345.95,0,691.91,0,1037.86Z"/><path class="cls-25" d="M913.86,1064.92h-26c.02-353.67.04-707.33.06-1061,8.63,0,17.25,0,25.88,0,.02,8.26.06,16.52.06,24.79,0,345.4,0,690.81,0,1036.21Z"/><path class="cls-15" d="M854.92,3.93c-.02,356.45-.04,712.91-.06,1069.36h-14c0-1.67,0-3.33,0-5-.02-354.79-.04-709.58-.05-1064.36,4.71,0,9.41,0,14.12,0Z"/><path class="cls-37" d="M935.86,3.28v1061.64h-13c.02-353.67.04-707.33.06-1061,4.31-.21,8.63-.43,12.94-.64Z"/><path class="cls-54" d="M840.8,3.92c.02,352.01.04,704.03.05,1056.04,0,1.65,0,3.31,0,4.96h-10V3.28c3.31.21,6.63.43,9.94.64Z"/><path class="cls-15" d="M922.92,3.93c-.02,356.45-.04,712.91-.06,1069.36h-9c0-348.13,0-696.25,0-1044.38,0-8.33-.04-16.66-.06-24.98,3.04,0,6.08,0,9.12,0Z"/><path class="cls-15" d="M887.92,3.93c-.02,356.45-.04,712.91-.06,1069.36h-7c0-348.68,0-697.36,0-1046.04,0-7.77-.04-15.54-.06-23.32,2.37,0,4.75,0,7.12,0Z"/><path class="cls-47" d="M887.92,3.93c-2.37,0-4.75,0-7.12,0-8.63,0-17.25,0-25.88,0-4.71,0-9.41,0-14.12,0-3.31-.21-6.63-.43-9.94-.64.5-1.1,1-3.17,1.5-3.17,34-.15,68-.15,102,0,.5,0,1,2.07,1.5,3.17-4.31.21-8.63.43-12.94.64-3.04,0-6.08,0-9.12,0-8.63,0-17.25,0-25.88,0Z"/><path class="cls-1" d="M984.71,1064.92h-26c.02-353.67.04-707.33.06-1061,8.63,0,17.25,0,25.88,0,.02,7.71.06,15.42.06,23.13,0,345.95,0,691.91,0,1037.86Z"/><path class="cls-33" d="M1017.71,1064.92h-26c.02-353.67.04-707.33.06-1061,8.63,0,17.25,0,25.88,0,.02,8.26.06,16.52.06,24.79,0,345.4,0,690.81,0,1036.21Z"/><path class="cls-15" d="M958.77,3.93c-.02,356.45-.04,712.91-.06,1069.36h-14c0-1.67,0-3.33,0-5-.02-354.79-.04-709.58-.05-1064.36,4.71,0,9.41,0,14.12,0Z"/><path class="cls-18" d="M1039.71,3.28v1061.64h-13c.02-353.67.04-707.33.06-1061,4.31-.21,8.63-.43,12.94-.64Z"/><path class="cls-17" d="M944.65,3.92c.02,352.01.04,704.03.05,1056.04,0,1.65,0,3.31,0,4.96h-10V3.28c3.31.21,6.63.43,9.94.64Z"/><path class="cls-15" d="M1026.77,3.93c-.02,356.45-.04,712.91-.06,1069.36h-9c0-348.13,0-696.25,0-1044.38,0-8.33-.04-16.66-.06-24.98,3.04,0,6.08,0,9.12,0Z"/><path class="cls-15" d="M991.77,3.93c-.02,356.45-.04,712.91-.06,1069.36h-7c0-348.68,0-697.36,0-1046.04,0-7.77-.04-15.54-.06-23.32,2.37,0,4.75,0,7.12,0Z"/><path class="cls-47" d="M991.77,3.93c-2.37,0-4.75,0-7.12,0-8.63,0-17.25,0-25.88,0-4.71,0-9.41,0-14.12,0-3.31-.21-6.63-.43-9.94-.64.5-1.1,1-3.17,1.5-3.17,34-.15,68-.15,102,0,.5,0,1,2.07,1.5,3.17-4.31.21-8.63.43-12.94.64-3.04,0-6.08,0-9.12,0-8.63,0-17.25,0-25.88,0Z"/><path class="cls-9" d="M1088.57,1064.92h-26c.02-353.67.04-707.33.06-1061,8.63,0,17.25,0,25.88,0,.02,7.71.06,15.42.06,23.13,0,345.95,0,691.91,0,1037.86Z"/><path class="cls-22" d="M1121.57,1064.92h-26c.02-353.67.04-707.33.06-1061,8.63,0,17.25,0,25.88,0,.02,8.26.06,16.52.06,24.79,0,345.4,0,690.81,0,1036.21Z"/><path class="cls-15" d="M1062.63,3.93c-.02,356.45-.04,712.91-.06,1069.36h-14c0-1.67,0-3.33,0-5-.02-354.79-.04-709.58-.05-1064.36,4.71,0,9.41,0,14.12,0Z"/><path class="cls-48" d="M1143.57,3.28v1061.64h-13c.02-353.67.04-707.33.06-1061,4.31-.21,8.63-.43,12.94-.64Z"/><path class="cls-31" d="M1048.51,3.92c.02,352.01.04,704.03.05,1056.04,0,1.65,0,3.31,0,4.96h-10V3.28c3.31.21,6.63.43,9.94.64Z"/><path class="cls-15" d="M1130.63,3.93c-.02,356.45-.04,712.91-.06,1069.36h-9c0-348.13,0-696.25,0-1044.38,0-8.33-.04-16.66-.06-24.98,3.04,0,6.08,0,9.12,0Z"/><path class="cls-15" d="M1095.63,3.93c-.02,356.45-.04,712.91-.06,1069.36h-7c0-348.68,0-697.36,0-1046.04,0-7.77-.04-15.54-.06-23.32,2.37,0,4.75,0,7.12,0Z"/><path class="cls-47" d="M1095.63,3.93c-2.37,0-4.75,0-7.12,0-8.63,0-17.25,0-25.88,0-4.71,0-9.41,0-14.12,0-3.31-.21-6.63-.43-9.94-.64.5-1.1,1-3.17,1.5-3.17,34-.15,68-.15,102,0,.5,0,1,2.07,1.5,3.17-4.31.21-8.63.43-12.94.64-3.04,0-6.08,0-9.12,0-8.63,0-17.25,0-25.88,0Z"/><path class="cls-50" d="M1192.43,1064.92h-26c.02-353.67.04-707.33.06-1061,8.63,0,17.25,0,25.88,0,.02,7.71.06,15.42.06,23.13,0,345.95,0,691.91,0,1037.86Z"/><path class="cls-41" d="M1225.43,1064.92h-26c.02-353.67.04-707.33.06-1061,8.63,0,17.25,0,25.88,0,.02,8.26.06,16.52.06,24.79,0,345.4,0,690.81,0,1036.21Z"/><path class="cls-15" d="M1166.49,3.93c-.02,356.45-.04,712.91-.06,1069.36h-14c0-1.67,0-3.33,0-5-.02-354.79-.04-709.58-.05-1064.36,4.71,0,9.41,0,14.12,0Z"/><path class="cls-38" d="M1247.43,3.28v1061.64h-13c.02-353.67.04-707.33.06-1061,4.31-.21,8.63-.43,12.94-.64Z"/><path class="cls-39" d="M1152.37,3.92c.02,352.01.04,704.03.05,1056.04,0,1.65,0,3.31,0,4.96h-10V3.28c3.31.21,6.63.43,9.94.64Z"/><path class="cls-15" d="M1234.49,3.93c-.02,356.45-.04,712.91-.06,1069.36h-9c0-348.13,0-696.25,0-1044.38,0-8.33-.04-16.66-.06-24.98,3.04,0,6.08,0,9.12,0Z"/><path class="cls-15" d="M1199.49,3.93c-.02,356.45-.04,712.91-.06,1069.36h-7c0-348.68,0-697.36,0-1046.04,0-7.77-.04-15.54-.06-23.32,2.37,0,4.75,0,7.12,0Z"/><path class="cls-47" d="M1199.49,3.93c-2.37,0-4.75,0-7.12,0-8.63,0-17.25,0-25.88,0-4.71,0-9.41,0-14.12,0-3.31-.21-6.63-.43-9.94-.64.5-1.1,1-3.17,1.5-3.17,34-.15,68-.15,102,0,.5,0,1,2.07,1.5,3.17-4.31.21-8.63.43-12.94.64-3.04,0-6.08,0-9.12,0-8.63,0-17.25,0-25.88,0Z"/><path class="cls-26" d="M1296.29,1064.92h-26c.02-353.67.04-707.33.06-1061,8.63,0,17.25,0,25.88,0,.02,7.71.06,15.42.06,23.13,0,345.95,0,691.91,0,1037.86Z"/><path class="cls-15" d="M1270.35,3.93c-.02,356.45-.04,712.91-.06,1069.36h-14c0-1.67,0-3.33,0-5-.02-354.79-.04-709.58-.05-1064.36,4.71,0,9.41,0,14.12,0Z"/><path class="cls-45" d="M1256.23,3.92c.02,352.01.04,704.03.05,1056.04,0,1.65,0,3.31,0,4.96h-10V3.28c3.31.21,6.63.43,9.94.64Z"/><path class="cls-47" d="M1303.35,3.93c-2.37,0-4.75,0-7.12,0-8.63,0-17.25,0-25.88,0-4.71,0-9.41,0-14.12,0-3.31-.21-6.63-.43-9.94-.64.5-1.1,1-3.17,1.5-3.17,34-.15,68-.15,102,0,.5,0,1,2.07,1.5,3.17-4.31.21-8.63.43-12.94.64-3.04,0-6.08,0-9.12,0-8.63,0-17.25,0-25.88,0Z"/></g></g></g></g></svg>