
<svg xmlns="http://www.w3.org/2000/svg" version="1.1" xmlns:xlink="http://www.w3.org/1999/xlink" preserveAspectRatio="none" x="0px" y="0px" width="2560px" height="1440px" viewBox="0 0 2560 1440">
<defs>
<g id="Layer2_0_FILL">
<path fill="#FFFFFF" stroke="none" d="
M 613.9 977.05
Q 603.85 974.7 609.1 984.6 608 992.25 605.05 996.9 596.55 994.15 582.25 989.35 585.05 996.05 587.7 1004.1
L 582.8 1025.65 611.1 1031.6 613.9 977.05
M 532.6 369.55
Q 524 374.8 526.65 378.95 514.8 389.1 511.4 403.05 504.75 403.4 505.15 409.15
L 420.65 416.2 391.1 423.1 391.4 445.2 380.45 554.55
Q 376.7 556.35 375.75 559.5 372.85 558.25 367.55 556.75
L 342.15 595.7 334.85 623
Q 328.85 625.15 328.65 628.45
L 284.9 714.8 289.8 802.5 305.15 830.45 297.9 843.45 339.7 867.5 373.6 922.15
Q 378.7 932.8 385.4 932.45 384.35 936.8 388.85 936.75
L 416.45 998.75
Q 430.64140625 993.706640625 441.65 982.65
L 457.1 944 458.7 938.35
Q 458 929.85 463.3 931.5
L 469.35 917.6 469.5 910.5 472.35 910.7 473.4 908.3
Q 475.974609375 884.7826171875 485.5 873.75
L 485.5 873.65
Q 478.0892578125 877.5009765625 485.55 873.4
L 485.5 873.65
Q 485.608984375 873.597265625 485.7 873.55 485.6048828125 873.6578125 485.5 873.75
L 480.95 911.25 522.5 914.1
Q 531.5 915.75 538.9 912.45 535.35 911.95 537.95 909.5 542.85 909.85 545.25 905.65
L 555.15 1062.1 567.25 1093.5 581.95 1111.7 637.65 1119.45 566.15 1052.25 556.65 965.4 556.65 927.05
Q 567.5 932.55 581.3 945.1 583.95 955.05 605.1 962.65
L 613.9 977.05 655.2 994 669.7 1010.25
Q 671.6 1008.25 666.3 998.1
L 649.4 984.7
Q 648.15 978.85 644.6 972.55
L 643.15 950.25 680.55 872.55 707.95 764.2 629.8 604.2 609.75 577.2 598.45 573.55 586.3 559.8 601.8 551.85 646.25 551.85 609 527.8
Q 593.7 517.8 609.8 510.45
L 617.55 508.3 578 499.75 617.55 508.3
Q 632.85 493.25 635.25 495.05
L 630.3 350 564.6 341.25 532.6 369.55 Z"/>
</g>

<g id="Layer1_0_FILL">
<path fill="#9900CC" stroke="none" d="
M 1438.25 1641.25
Q 1440.65 1638.9 1442.5 1635.55
L 1437.7 1634.6 1437.7 1635.6
Q 1436.45 1635.15 1435 1635.8 1433.8 1636.35 1432.75 1637.5 1431.95 1638.35 1431.65 1639.2 1431.6 1639.35 1431.35 1640.25 1431.2 1640.9 1430.95 1641.3 1430.5 1642 1429.15 1643 1427.85 1644.3 1428.1 1646.2 1428.45 1648.1 1430.1 1648.9 1431.4 1647.3 1434.05 1645 1437.25 1642.3 1438.25 1641.25
M 639.45 962.6
L 636.7 963.55
Q 635.4 966.2 637.5 969.5 638.55 971.25 642.05 974.85 644.9 977.8 649.4 984.7
L 656.25 995.35
Q 659.45 1000.3 661.65 1002.1 662.05 1002.45 663.55 1003.6 664.8 1004.5 665.45 1005.2 666.9 1006.65 669.7 1010.25 672.25 1012.95 674.65 1012.1 674.35 1014 675.45 1015.95 676.4 1017.7 678.15 1018.9 679.65 1019.9 681.8 1020.6 683 1021 685.7 1021.6 686.15 1019.9 685.55 1018.25 685.15 1017.3 684.25 1016.25 684 1015.95 682.55 1014.5 671.4 1003.9 664.4 989.85 657.4 975.85 655.6 960.55 654.05 947.55 657.15 937.7 658.9 932.85 659.5 930.4 660.6 926.15 659.65 923.05 656.65 925 654.8 930.75 649.35 947.7 652.45 965.8 655.55 983.95 666.3 998.1 663.55 998.75 660.35 994.35
L 644.6 972.55
Q 642.4 969.5 641.45 967.8 639.9 965.05 639.45 962.6
M 369.1 211.15
L 371.7 205.7
Q 370.7 204.4 368.8 204.65 366.95 204.9 365.95 206.3 364.15 208.85 365.45 212.75 365.8 213.9 366.75 215.85 367.75 218 368.1 218.95 369.2 222.2 369.15 228.3 369.1 235.15 369.65 237.8 370.3 240.8 372.9 246.25 375.55 251.8 376.2 254.7 377 258.1 376.65 263.25 376.5 266.1 376.05 271.85 375.9 276.15 376.6 281.5 377 284.75 378.15 291.05 381.05 306.6 382.35 316.2 386.45 346.65 383.5 377.65 382.65 386.6 381.3 393.05 380.3 398.15 379.1 401.95 378.5 404 377.15 408 376.1 411.55 375.9 414.2 375.5 420.05 378.3 425.25 380.35 424 381.35 423.1 382.9 421.75 383.5 420.2 384.2 418.45 383.35 416.6 382.5 414.65 380.7 414.6 379.8 412.1 380.55 408.75 380.9 407.2 382.4 402.95 384.8 396.65 386.15 389.85 387.65 382.3 388.1 372.75 388.4 367 388.4 355.45 388.4 344.15 388.25 339.2 388 330.1 387.1 323 386.65 319.4 382.8 298.1 380.05 283 380.25 273.15 380.55 266.6 380.6 263.3 380.65 257.6 379.6 253.65 378.9 251.05 376 244.8 373.45 239.3 372.9 235.85 372.5 233.3 372.75 229.45 373.1 225.15 373.15 223 373.25 214.85 369.1 211.15
M 675.25 691.7
L 650.6 656.95
Q 639.35 652.7 627.1 652.4 614.8 652.15 603.4 655.95 601.1 656.7 599.7 657.9 597.95 659.4 598.15 661.2 596.3 662.6 592.5 665.2 589.15 667.6 587.2 669.65 584.6 672.35 583.3 675.45 581.85 678.9 582.4 682.15 582.8 684.7 584.75 687.9 585.8 689.7 588.1 693.25 589.4 695.55 591 699.65 592.9 704.5 593.7 706.15 596.95 712.85 602.9 718.25 608.45 723.35 615.7 726.65 630 733.2 646.45 731 662.8 728.8 674.9 718.65 680 714.45 681.3 710.3 682.6 705.95 680.45 700.65 679 697 675.25 691.7
M 657.15 671.55
Q 658.4 673.35 661.05 677.35
L 671.6 693.45
Q 674.95 698.65 676.15 702.2 677.9 707.4 676.15 711.35 674.6 714.95 669.25 718.3 660.25 723.9 649.4 726 638.75 728 628 726.35 614.15 724.25 606.25 716.65 603.25 713.75 600.45 709.25 598.85 706.6 595.95 700.9
L 590.15 689.35
Q 588.55 686.15 587.95 684.45 586.95 681.6 587.05 679.2 587.25 674.5 591.55 671.4 595.85 668.3 600.4 669.6
L 607 665.05
Q 614.85 665.1 622.2 668.45 629.6 671.8 634.75 677.7 636.4 677.15 636.15 674.95 635.95 672.95 634.55 671.35 630.2 666.35 623.85 663.75 617.45 661.2 610.9 661.8 616.7 657.55 624.35 656.55 631.75 655.6 638.85 657.9 646.85 660.45 652.6 666.2 654.8 668.4 657.15 671.55
M 652.25 596.2
Q 658.05 600.9 663.65 607.9 667.75 613.1 673.05 621.35 686.15 641.55 696.8 662.55 698.75 661.45 698.35 658.6 698.05 656.3 696.45 653.75
L 674.45 618.6
Q 668.05 608.3 664 603.1 657.6 594.95 650.7 590.35 645.4 587.2 642.8 585.55 638.15 582.65 635.8 579.75 634 577.2 633.05 575.95 631.4 573.7 629.85 572.65 627.8 571.3 625.3 571.75 622.65 572.25 622.1 574.45 625.45 574.35 629 577.2 629.6 577.7 634.75 582.85 637.75 585.85 643.3 589.75 650.5 594.8 652.25 596.2
M 654.25 190.35
Q 649.45 188.3 648.05 187.5 644.65 185.7 642.7 183.45 640.55 180.95 639.85 177.6 639.15 174.25 640.1 171.15 637.95 171.55 636.55 173.5 635.15 175.45 635.5 177.65 597.1 164.1 566.3 136.9 564.1 134.95 563 133.65 561.3 131.7 560.65 129.75 559.85 127.5 560.5 125.15 561.15 122.65 563.15 121.65
L 558.45 120.45
Q 556.55 124.8 552.1 128.75 549.15 131.3 543.4 135 533.4955078125 141.271875 524.4 146.85 518.8806640625 150.2541015625 513.65 153.4 496.95 163.5 471.15 178.35 448.75 191.25 435.75 196.85 415.45 205.6 397.8 206.95 389.45 207.55 383.1 205.75 375.3 203.55 371.6 197.95 370.2 198 369.45 199.45 368.7 200.85 369.15 202.3 369.8 204.35 373.1 206.35 381.3 211.35 391.9 212.55 401.55 213.65 412 211.5 420.85 209.7 431.05 205.4 438 202.5 449.2 196.7 490.1603515625 175.51484375 528.8 150.8 542.280859375 142.2158203125 555.45 133.2 581.25 159.9 615.2 175.35 620.9 177.95 622.8 178.95 627 181.15 629.65 183.7 632.15 186.1 634.6 190.05 636.05 192.4 638.65 197.15 644.029296875 206.3890625 650.4 211.6 649.7380859375 212.2837890625 649.2 213.15 650.1 215.15 649.15 217.7 648.5 219.5 646.7 222
L 640.4 230.8
Q 636.85 235.75 636.05 238.85 635.75 240.1 635.55 243.45 635.35 246.4 634.75 248 634.1 249.85 631.75 253.05 629.4 256.2 628.75 258.05 628.3 259.45 628.05 262.85 627.8 266 627.15 267.6 626.5 269.15 624.55 271.4 622.35 273.9 621.7 275.05 620.55 277.1 620.05 280.65 619.25 286.4 619.2 286.55 618.15 291.3 614.55 296.15 612.45 299 607.2 304.5 600.9158203125 311.119921875 597.9 316.35 594.6005859375 317.1412109375 591.25 318.2 581.05 321.45 570.15 327.5 561.35 332.4 550.7 340.05 544.15 344.8 540.25 348.35 534.8 353.3 531.55 358.4 527.75 364.35 526.7 370.85 526.0115234375 375.1009765625 526.6 378.9 524.5484375 382.108203125 523.05 383.95 517.35 390.95 507 397.2 502.6 399.75 500.45 401.05 498.9287109375 401.970703125 497.6 402.8
L 483.45 402.6
Q 482.8955078125 402.590234375 482.35 402.55 477.843359375 402.268359375 472.8 402.45 463.25 402.8 446.2 405.25 427.65 407.95 419.65 408.5 412.05 409 410.7 409.15 405.6 409.75 402 411.15 397.55 412.9 394.55 416.2 391.6404296875 419.4181640625 391.05 423.1 387.48359375 422.8322265625 385.9 423.95 384.45 425.05 383.45 428.05 383.005078125 429.34375 382.55 430.65 381.7212890625 430.01640625 380.4 430.2 378.6 430.45 377.65 431.75 376.2 433.65 376.3 437.85 376.4 441.45 376.85 448.7 377.1 455.05 376 459.35 375.25 462.35 373 467.2 370.45 472.65 369.7 474.9 367.690234375 481.01875 367.8 491.05 366.330078125 492.6115234375 365.2 494.1 362.1 498.2 359.6 504.1 358.05 507.8 355.75 515.05 353.4140625 522.2638671875 352.35 527.6 351.903515625 530.015625 351.7 532.05 350.75 541.7 354.65 548.3 355.65 550 358.5 553.5
L 364.45 560.7
Q 364.6314453125 560.919140625 364.8 561.1 361.8361328125 565.8171875 357.75 572
L 342.15 595.7
Q 336.7 604 333.25 608 331.05 610.5 330.2 612.7 329.15 615.55 330.85 617.2 333.0607421875 616.9736328125 334.95 616.65 326.2880859375 627.498046875 315.6 630.6 308.55 632.55 308.8 636.05 314.60859375 634.3162109375 321.5 636.95 319.9841796875 639.1177734375 318.35 641.85 318.2259765625 641.4626953125 318.1 641.05 314.35 645.3 310.85 651.45 308.7 655.3 305.15 662.9 297.2529296875 679.6384765625 293.2 689.7 291.719921875 692.2185546875 290.25 694.75 288.05 698.55 287 700.85 285.4 704.3 284.8 707.35 284.1 710.9 284.75 714.25 284.803125 714.526953125 284.85 714.8 284.11796875 717.421875 283.35 720.2 283.078125 720.9482421875 282.8 721.7 278.05 734.45 276.9 742.85 275.94140625 749.4234375 276.7 755.05 276.5419921875 759.9640625 277 764.4 277.55 769.55 279.4 777.3 281.635546875 786.601171875 282.2 789.15 278.533984375 793.269140625 277.25 799.5 275.65 807.15 278.15 814.9 280.3 821.4 285.3 828.4 287.4724609375 831.42734375 291.55 836.2 298.2234375 856.187109375 311.45 876.2 326.75 899.45 352.65 925.1 363 935.35 370.85 941.7 373.2392578125 943.6205078125 375.6 945.35 388.3994140625 959.174609375 398.35 975.6 398.7689453125 976.2900390625 399.15 976.95 399.159765625 980.7017578125 398.95 983.1 398.4 989.6 396.25 994.35 395.6 995.8 394.1 998.65 392.9 1001.2 392.6 1003.15 392.3 1005.7 393.55 1007.9 394.9 1010.2 397.2 1010.4 402.6 999.95 404.25 988.05 404.32265625 987.525390625 404.4 987 406.5306640625 991.8181640625 407.75 996.25 411 1008.2 407.85 1017.95
L 413.6 1018.9
Q 416.7 1011.25 422.85 1002.3 424.1 1000.5 434.2 986.9 446.846484375 969.9853515625 456.65 952.65 456.646484375 952.994921875 456.65 953.35 456.65 959.65 457.75 962.85 458.05 963.6 459.05 965.85 459.9 967.75 460.25 968.95 460.85 971.05 460.8 974.4 460.75 979.65 460.75 980 460.95 983.1 462.1 986.75 462.8 989.05 464.45 993.2 467.45 1000.85 469.45 1004.7 472.2953125 1010.1681640625 475.7 1013.85 475.7724609375 1014.2201171875 475.8 1014.55
L 474.8 1077.1
Q 474.6068359375 1090.1853515625 474.75 1096.95 473.93671875 1097.5064453125 472.7 1097.8 469 1098.25 467.3 1098.45 464.45 1098.85 460.5 1100.75 454.5 1103.7 453.95 1103.9 451.328125 1104.9560546875 446.55 1105.85 446.51953125 1105.361328125 446.6 1104.75 446.75 1103.5 447.65 1101.35 448.1 1100.2 449.05 1097.3 449.85 1094.7 450.5 1093.3 452.7 1088.55 456.05 1087
L 454.1 1084.1
Q 451.85 1083.95 450.15 1086.5 449.7 1087.2 449 1088.65 448.3 1090.1 447.85 1090.75 447.5 1091.25 446.75 1092.2 446.1 1093.1 445.8 1093.8 445.4 1094.85 445.45 1097.3 445.5 1099.7 445 1100.8 444.7 1101.5 443.75 1102.55 442.75 1103.7 442.45 1104.25 441.8240234375 1105.3880859375 441.85 1106.7
L 425.05 1109.3
Q 422.3 1109.75 420.9 1110.25 418.7 1111.05 417.55 1112.55 418.8 1115.55 422.3 1117.55 424.7 1118.95 429.15 1120.3 437.45 1122.8 441.3 1123.85 448.1 1125.65 453.6 1126.45 459.6 1127.35 464.4 1127.05 470.2 1126.7 474.75 1124.6 474.85 1124.55 478.95 1122.4 481.45 1121.05 483.25 1120.55 485.3 1120 489.65 1119.25 493.3 1118.35 494.55 1116 495.35 1114.5 495.25 1110.9 495.2 1107.4 496.1 1105.9
L 489.55 1110
Q 488.75 1104.85 485.1 1100.7 484.5072265625 1100.0259765625 483.85 1099.4 483.913671875 1096.554296875 483.65 1093.65 485.948046875 1091.6572265625 486.6 1090.4 487.25 1089.25 487.45 1087.6 487.55 1086.75 487.6 1084.6
L 487.65 1073.25
Q 487.7396484375 1072.424609375 487.8 1071.5 487.8953125 1073.103125 488 1074.75
L 488.85 1088.25
Q 490.568359375 1082.521875 491.2 1076.8 491.8412109375 1084.033203125 492.35 1091.3 496.5 1080.9 496.1 1066.9 495.9458984375 1060.1208984375 494.3 1048.8 499.594921875 1039.945703125 500.65 1037.5 503.95 1029.75 504.3 1018.05 504.6 1009 502.65 1003.35 501.65 1000.5 497.8 993.55 494.45 987.5 493.6 983.6 489.2 985.35 484.45 985.5 484.1287109375 987.369140625 484.55 989.4 484.373828125 989.3638671875 484.15 989.25 480.24296875 968.0638671875 476.15 950.3 474.651171875 940.3451171875 472.75 933.95 471.5064453125 929.7181640625 469.85 926.05 472.548046875 919.8142578125 474.85 913.55 477.031640625 914.750390625 478.6 915.45 483.8 917.85 488.35 918.4 490.3 918.65 494.25 918.65
L 497.95 918.65
Q 499.882421875 919.5029296875 502.85 920.45 507.15 921.8 509.1 922.25 512.65 923.1 515.5 923.1 517.85 923.05 521.25 922.5 528.4 921.45 532.45 920.4 538.55 918.85 542.9 916.25 543.480078125 915.911328125 544.05 915.55 545.990625 917.4140625 548.1 919.35 549.821875 920.9490234375 552.5 923.35
L 552.65 961.75
Q 552.65 966.85 552.55 968.95 552.4 973 551.8 976.1 551.45 977.8 550.6 981.05 549.7 984.4 549.35 986 548.6 989.65 548.45 994.3 548.35 997.1 548.45 1002.7 548.5 1007.5 548.75 1010.05 549.15 1014.15 550.2 1017.25 551.1099609375 1016.7951171875 551.9 1016.2
L 551.8 1017.95
Q 551.5 1024.8 551.5 1027.85 551.5 1033.4 552.2 1037.75 552.85 1042.05 556.3 1053.45 559.2 1063.25 559.5 1069.2 559.5 1069.5 558.7 1084.5 558.2 1093.6 560.75 1099.05 560.936328125 1099.4408203125 561.1 1099.8 560.713671875 1099.6716796875 560.3 1099.55 558.05 1098.85 555.9 1099.45 553.55 1100.15 553.35 1102.15
L 563.1 1105.1
Q 562.3 1106.45 563.15 1108.1 563.9 1109.6 565.45 1110.5 566.15 1110.9 568.5 1111.85 568.832421875 1111.98125 569.1 1112.1 569.2591796875 1112.305859375 569.4 1112.5 570.85 1114.45 573.65 1116.1 573.8392578125 1116.2119140625 574 1116.3 575.0671875 1117.5501953125 575.9 1118.05 576.9 1118.65 578.6 1119 578.6599609375 1119.009375 578.7 1119 581.818359375 1120.741796875 583.95 1121.75 589.8 1124.5 594.95 1125.4 595.5861328125 1125.516796875 596.25 1125.6 600.975 1126.509765625 607.45 1126.2 609.2666015625 1126.1177734375 610.9 1126.05 620.3087890625 1125.7083984375 623.75 1126.05 624.07734375 1126.108984375 624.35 1126.15 624.355859375 1126.112109375 624.35 1126.05
L 644.15 1126.1
Q 647.8 1126.1 648.7 1124.35 649.5 1122.75 647.75 1120.05 637.2 1103.9 613.45 1095.25 608.81796875 1093.57578125 604.45 1092.5 602.7904296875 1091.207421875 599.85 1090.1 583.9 1083.9 566.75 1084.05 565.8552734375 1084.05 565.05 1084.3 564.6712890625 1079.2115234375 565.8 1073.5
L 568.9 1079.45
Q 571.2 1078.5 571.9 1075.6 572.55 1072.9 571.55 1070.25 570.9 1068.45 569.05 1065.6 567.05 1062.45 566.4 1061.05 565.1 1058.1 564.6 1053.05 563.9 1045.85 563.7 1044.7 563.15 1041.7 561.5 1037.4 558.9 1030.45 558.85 1030.25 555.8 1021.25 555.95 1011.95 555.978515625 1010.4240234375 556.15 1009.1
L 564.35 1001.2
Q 568.35 997.35 570.2 994.8 573.05 990.9 573.5 987.1 573.9 983.3 572.1 979.05 570.7 975.85 567.75 971.75 565.4 968.45 564.9 966.75 564.45 965.3 564.45 963.35 564.45 962.35 564.65 959.9 565.1 954.7 565.1 942.45
L 565.05 934.8 597.3 970.1
Q 598.7318359375 971.6970703125 600.1 972.8 601.244921875 975.7142578125 601.35 976.45 601.55 977.7 601.35 980.45 601.15 983.05 601.45 984.4 601.65 985.35 604.35 990.8 606.2 994.55 605.05 996.9 599.65 998.15 594.25 995.7 588.8 993.2 586.2 988.3
L 582.25 989.35
Q 581.9275390625 999.40078125 582.1 1009.4 580.669921875 1007.84921875 579.45 1006.2 577.75 1004 576.45 1004.65 575.75 1005.25 575.65 1006.75 575.45 1008.65 575.3 1009.1 575.05 1009.8 574.35 1010.6 573.95 1011.05 573.15 1011.95 572.3 1013 571.85 1014.7 571.6 1015.6 571.3 1017.7 571 1019.7 571.15 1020.7 571.4 1022.35 572.75 1023.95 573.6 1024.95 575.5 1026.55 579.1537109375 1025.860546875 582.75 1025.65 582.8162109375 1026.1763671875 582.85 1026.7 590.2 1027.55 594.25 1027.7 596.576171875 1027.8099609375 598.7 1027.75 598.7119140625 1028.3427734375 598.65 1028.95 598.5 1030.4 598 1033.25 597.3 1038.95 600.3 1041.05 601.5 1040.3 602.05 1038.9 602.6 1037.5 602.25 1036.15 607.45 1035.65 613.55 1034.45 614.6 1030.9 614.65 1028.6 614.75 1025.3 612.95 1023.4 612.8822265625 1023.3322265625 612.75 1023.2 612.7765625 1023.15859375 612.8 1023.1 613.5 1021.4 612.85 1018.9 611.9 1016.05 611.5 1014.65 611.44765625 1014.469921875 611.4 1014.25 612.1671875 1012.9158203125 612.35 1012.55 613.05 1011.1 614.3 1006.6 615.35 1002.85 616.7 1000.95 614 1000.7 612.15 1002.7 611.478125 1003.427734375 610.9 1004.65 610.991015625 1003.256640625 611.1 1001.25 611.65 991.25 609.1 984.6 607.4 980.7 606.9 978.7 606.616796875 977.4818359375 606.5 975 606.8958984375 974.95078125 607.25 974.8 616.2119140625 982.97265625 624.25 989.75 628.6 993.35 631.35 995.15 635.45 997.85 639.3 998.85 643.8 1000.05 648.15 998.85 652.85 997.55 655.2 994 643.55 995.8 632.9 990.85 627.9 988.5 622.5 984.15 619.1 981.4 613.2 975.8 609.764453125 972.525390625 606.35 969.3 606.2376953125 965.0130859375 605.1 962.65
L 600.35 961.65
Q 600.3 962.35 599.75 962.9
L 599.7 962.9
Q 590.291015625 953.85234375 581.25 945.1 577.980078125 941.5791015625 573.9 937.95 571.2517578125 935.38984375 568.65 932.85 566.7857421875 931.040234375 565 929.3
L 565 925.75
Q 565 922.6 564.2 921.25 563.6 920.2 562.5 919.7 561.3 919.2 560.3 919.75 558.9412109375 920.73515625 558.05 922.25 557.1412109375 921.28984375 556.25 920.35
L 556.15 909.1
Q 555.6 908.5 554.6 908.7 553.65 908.85 553.15 909.6 552.5 910.55 552.5 913
L 552.5 916.3
Q 550.45546875 914.0830078125 548.6 911.95 552.5986328125 908.272265625 555.15 903.2
L 553.05 900.2
Q 550.2861328125 905.2890625 545.8 908.65 544.9810546875 907.66875 544.2 906.7
L 545.25 905.65
Q 547.8 903 548.55 901.1 549.05 899.7 548.9 898.25 548.65 896.75 547.7 895.8 546.2 895.55 545.05 896.7 544.6017578125 900.8375 542.4 904.35 541.7224609375 903.5 541.1 902.65 527.7 884.45 524.85 866.6 522.1 868.1 522 872.1 521.95 875.35 523.55 879.15 526.2310546875 885.4669921875 530.05 891.9 526.38515625 887.49140625 523.55 883.75 518.3802734375 876.9001953125 513.8 869.4
L 516.85 865.9
Q 519.05 863.3 520.55 862.05 522.8 860.15 525.1 859.6 525.8 859.45 527.45 859.3 529 859.15 529.8 858.9 531.05 858.55 531.85 857.65 532.75 856.65 532.65 855.55 531.7 855.55 528.3 855.05 525.7 854.65 524.1 855.1 522.25 855.65 519.4 858.2
L 511.5 865.4
Q 511.2755859375 864.930078125 511.05 864.45 505.703515625 853.0869140625 502.1 841.4 502.028515625 840.6841796875 502 839.95 501.831640625 839.9908203125 501.65 840.05 499.35703125 832.3267578125 497.8 824.45 502.310546875 818.858203125 506.55 813.05 508.080859375 816.355078125 509.25 819.85 509.98203125 814.7517578125 508.9 809.8 521.423828125 792.30625 531.55 773.3 538.86796875 759.5953125 544.75 745.45 549.88828125 734.6283203125 553.1 724.4 555.0255859375 718.4353515625 556.8 710.85 557.0365234375 710.1169921875 557.25 709.35 558.0453125 706.5169921875 558.75 703.75 559.359375 702.6845703125 560.15 701.15 561.65 698.3 562.85 696.8 562.30234375 694.995703125 561.1 693.55 562.58359375 686.5869140625 563.4 680.2 564.25390625 673.6193359375 564.5 667.35 581.443359375 666.7390625 589.05 663.5 601.4 658.2 611.95 641.2 622.8 621.05 629.4 612.15 630.0169921875 611.337109375 630.5 610.65 636.2673828125 615.111328125 641.95 620.9 662.2 641.55 676.55 667 690.85 692.5 697.95 720.55 700 728.85 701 731.65 702.6427734375 736.4607421875 704.95 739.85 707.1154296875 751.9078125 707.95 764.2 710.71328125 747.8931640625 707.4 729.75 708.926171875 735.112890625 710.1 740 715.1 760.75 714.9 777.4 714.7015625 791.789453125 710.9 805.35 709.5765625 770.7740234375 699.1 737.3 697.351171875 741.692578125 697.7 747.45 696.537109375 746.7048828125 694.45 745.6 690.8 743.65 689.55 743.05 686.7 741.7 684.35 741.1 680.1 740.05 674.65 740.75 671.3 741.15 664.95 742.7 656.05 744.95 651.65 746.65 644.5 749.4 640 753.55 635.15 758.05 631.75 765.65 629.65 770.4 626.85 779.85 625.5 784.5 625.15 787.05 624.55 791.1 625.5 794.2 625.85 795.25 626.55 795.9 627.4 796.65 628.2 796.25 628.4431640625 792.9458984375 628.9 789.7
L 628.9 791.5
Q 628.9 794.45 629.05 795.9 629.25 798.3 629.95 800.1
L 631.9 800.1
Q 632.9 797.95 632.9 793.45 633.1 786.4 632 782.9 630.75 782.721484375 630.15 782.95 632.1755859375 773.6736328125 636.1 764.8 639.25 757.8 642.95 755.1 645.55 753.25 651.4 751.55 668.7 746.65 677.55 745.1 679.65 744.7 680.9 744.65 682.75 744.55 684.25 745 686.1 745.6 690.95 749.5 694.9 752.7 697.8 752.2 697.55 755.4 698.8 757.95 699.2322265625 757.855078125 699.6 757.65 700.2349609375 760.1890625 701.1 763.35 707 784.9 707.55 807.5 707.6462890625 811.445703125 707.55 815.35 706.8734375 817.1935546875 706.1 819 703.7 824.55 699.4 832.55 685.31328125 859.13046875 668.25 884.15 667.7748046875 883.3544921875 667.15 882.4 662.95 876.1 660.45 873.15 656.35 868.3 652 865.8 646.45 862.6 639.55 862.4 632.95 862.25 626.75 864.9 622.4 866.75 617.55 870.4 615.55 871.85 611.65 875.05 608.75 877.45 607.7 878.7 606.25 880.5 605.05 883.15 604.35 884.8 603.25 888.05
L 608.1 889
Q 608.85 883.55 613.85 878.9 617.6 875.4 624.2 872.1 630.8 868.75 635.8 867.6 642.45 866.1 647.7 867.95 651.3 869.25 654.75 872.4 657.3 874.8 660.3 878.8 664.15 883.9 665.65 887.85 665.6666015625 887.89453125 665.65 887.95 663.66171875 890.8537109375 661.6 893.75 664.2068359375 892.9037109375 666.6 890.9 667.5130859375 893.91171875 668.55 898.5 670.45 904.65 674.2 906.85 675.25 906.65 675.45 905.4 675.65 904.2 675.05 903.25 674.65 902.65 673.6 901.65 672.5 900.65 672.1 900 671.1 898.55 671.1 895.9 671.3 892.85 671.15 891.4 670.9767578125 889.4947265625 670 887.35 671.859375 885.0205078125 674.25 881.15
L 699.35 840.45
Q 702.85 834.8 704.25 832.4 705.784375 829.68515625 707 827.25 706.006640625 839.701171875 703.35 851.95 699.9 867.65 693.8 882.55 680.65 914.55 656.85 939.4 668.8 932.5 678.55 918.25 684.8 909.15 693.65 890.85 698.5 880.8 700.75 875.5 704.45 866.9 706.45 859.65 709.7 847.8 710.65 831.05 711.0513671875 824.1853515625 711.1 817.35 713.7123046875 809.505859375 715.3 799.6 720.65 766.9 713.05 734.35 710.85 724.9 707 713.55 704.5 706.2 699.6 693.2 695.35 681.8 693 675.95 689.2 666.5 685.5 659.1 681.75 651.45 675.55 641 668.5 629.2 665 623.25 657.8 610.85 656.2 608.3 650.95 600 645.85 594.5 635.35 583.15 620.7 577.45 615.7609375 575.6099609375 612.6 576.05 610.0701171875 574.182421875 608.3 572.95 601.6 568.35 595.75 565.55 593.35 564.45 592.15 563.85 590.15 562.85 588.8 561.9 587.5806640625 561.0599609375 586.3 559.8 595.8544921875 559.109765625 605.1 556.45 613.65 554.05 617.7 550.05 620.35 547.4 621.35 543.95 622.3009765625 540.7083984375 621.45 537.9 621.326171875 537.476953125 621.15 537.05 620.55 535.65 619.05 533.65 617.05 531.05 616.65 530.4 614.8 527.5 614.35 524 613.9 520.5 614.9 517.25 615.9 516.5 619.2 514.65 621.95 513.1 623.3 511.8 625.2 509.9 625.45 507.25 625.75 504.4 623.8 503.05 622.85 502.4 621.45 502.2 620.6 502.1 618.85 502.15 608.9 502.45 601.1 501.15 591.7 499.55 584.55 495.45 581.143359375 493.508984375 579.8 491.3 579.8166015625 491.2583984375 579.8 491.2 580.40625 491.5923828125 581.05 491.95 582.8 492.9 586.15 494.15 594.75 497.3 601.05 498.65 609.3 500.45 616.35 499.85 620.7 499.45 625.95 498 629.25 497.1 635.35 495.05 642.2 492.75 645.25 490.7 648 488.85 650.7 485.6 652.3 483.7 655.2 479.55 658.6 474.75 660.25 471.85 662.8 467.4 663.75 463.4 664.55 460 664.55 455.3 664.4 449.85 664.3 447.1 664.3 446.8 664.65 425 664.85 411.75 663 403.15 661.45 396.15 656.8 385 651.7 372.55 647.1 365.5 640.5 355.5 632 350.85 631.1794921875 350.420703125 630.3 350 637.32265625 352.6787109375 643.7 356.6 659.05 366 668.45 381.55 678.1 397.5 678.45 415 678.55 420.65 677.25 431.85
L 675.05 450.85
Q 682.15 435.95 682.5 419 682.9 402.05 676.45 386.85 670 371.65 657.55 360.15 645.1 348.6 629.45 343.4 620.05 340.2 604.75 338.3 598.3 337.5 594.1 337.45 588.3 337.45 583.7 338.75 579.103125 340.0818359375 575.55 342.95 574.7634765625 343.1232421875 573.95 343.3 561.3 346.05 550.45 352.6 541.2 358.2 535.65 365.2 534.355078125 366.825390625 532.55 369.5 533.4416015625 367.6857421875 534.45 365.9 539.25 357.45 546.5 351.25 551.35 347.1 561.75 340.9
L 572.25 334.55
Q 582.25 328.55 587.85 326.1 604.15 319.15 622.55 321.65 640.9 324.15 654.7 335.2 663.2 342 670.9 352.95 676.15 360.4 683.5 373.75 684.95 374.55 685.4 372.5 685.8 370.5 684.85 368.95 672.85 349.05 664.45 339.2 651.4 324.05 636.6 318.3 626.2 314.3 614.05 314.45 609.6515625 314.4890625 605.2 315.05 605.4494140625 314.743359375 605.7 314.4 608.55 310.6 614.5 303.15 619.7 296.4 622.5 291.4 624.55 287.7 627.4 281.1
L 651.85 224.25
Q 653.85 219.6 654.6 216.9 654.8908203125 215.825 655.05 214.8 657.0197265625 215.894140625 659.05 216.65 665.65 219.1 677 218.8 691.65 218.35 695.45 218.8 699.1 219.25 706.45 220.55 712.8 221.25 716.95 219.3 717.2 214.75 708.35 213.35 696.7 211.5 680.8 203.6 663.3 194.2 654.25 190.35
M 650.45 194.25
Q 653.9 195.1 655.95 196.95 656.25 197.2 657.7 198.75 658.75 199.85 659.55 200.4 660.95 201.25 664 201.65 667.25 202.05 668.6 202.75 669.45 203.2 670.5 204.15 671.1 204.7 672.25 205.8 674.75 208 677.9 209.15 681.1 210.3 684.4 210.1 672.7 213.35 660.5 211.2 658.25 210.8 657.55 209.95 657.1 209.45 656.8 208.45 656.4 207.1 656.25 206.8 655.5 205 653.3 204 651.8 203.3 649.05 202.75 649.9 200.5 647.65 197.65 647.55 197.55 645.8 195.6 644.7 194.35 644.2 193.35 648.35 193.7 650.45 194.25
M 657.85 404
Q 658.6 408.35 658.85 413.9 658.95 417.25 658.9 423.95
L 658.75 452.25
Q 658.7 456.45 658.55 458.5 658.25 461.95 657.4 464.6 656.6 467 655 469.75 654.1 471.25 651.85 474.6 649.6 477.85 648.4 479.35 646.35 481.9 644.3 483.55 640.6 486.5 633.25 488.85 620.5 493.05 610.7 493.3 600.125390625 493.697265625 590.25 490 592.194921875 489.2728515625 594.85 487.75 596.4 486.85 597.2 486.25 598.45 485.25 598.9 484.1 599.3 483.15 599.35 481.5 599.4 479.35 599.5 478.8 599.95 476.3 602.55 473.65 604 472.15 607 469.15 610.55 464.75 610.15 458.3 609.8 452.25 606.25 447.15 603.7 443.5 599.4 440 596.8 437.9 591.2 434.15 586.4 431 583.75 430.05 581.2763671875 431.9052734375 579.75 434.7 579.816015625 434.5734375 579.85 434.45 580.2 433.1 580.3 431 580.45 427.95 580.5 427.55 580.9 424.5 582.9 420.2 586.05 413.45 586.15 413.15 587.3 410.25 587.05 408.1 586.85 406.4 585.5 404.3 583.25 401.1 580.45 400.95 578 400.9 576.25 403.35 574.7 405.55 574.5 408.45
L 574.6 413.75
Q 574.6 416.9 573.9 418.9 573.25 420.65 569.75 424.95 566.85 428.5 566.75 431.2 564.4 431.95 563.2 432.55 561.35 433.45 560.35 434.75 560.053515625 435.12734375 559.45 436.35
L 559.45 436.35
Q 557.7 433.45 553.95 428.3 549.2 421.7 546.7 418.5 542.6 413.15 538.85 409.2 534.9 405.1 531.75 404 529.65 403.3 525.6 403.3
L 511.4 403.05
Q 519.0501953125 398.072265625 524.2 392.5 527.8 388.55 534.25 379.15
L 538.6 372.75
Q 541.2 369 542.45 367.35 544.7 364.4 546.9 362.4 551.95 357.85 561.25 354.4 565.341015625 352.8912109375 569.5 351.75 569.3544921875 352.2998046875 569.25 352.85
L 573.6 353.7
Q 574.9 352.5 575.35 350.75 575.4060546875 350.553515625 575.45 350.35 582.7484375 348.87734375 590.25 348.55 605.5 347.85 619.55 352 628.6 354.65 633.9 358.7 639.55 363 645.05 372.05 650.65 381.35 654.45 391.7 656.8 398.25 657.85 404
M 655.5 614.7
L 666.9 633.3
Q 673.2 643.6 676.2 648.85 681.15 657.55 684.5 664.85 686.95 670.15 689.6 677.1 690.95 680.65 694.15 689.6 694.623828125 690.9326171875 695.05 692.2 689.0388671875 678.9970703125 680.25 664.1 666.05 640.15 652.85 625.15 643.4388671875 614.4767578125 633.35 606.75 635.0943359375 604.085546875 635.75 601.65 636.6 598.5 635.6 595.5 634.55 592.25 631.8 591.1 630.45 590.6 630.5 592.55 630.5 594.2 631.3 596 632.3 598.2 631.25 601.1 630.7791015625 602.4453125 629.75 604.15 626.5244140625 601.899609375 623.2 599.9 622.7517578125 598.0669921875 623 596.9 623.25 595.9 624.35 593.95 625.4 592.1 625.6 591 626.15 588.5 624.25 585.85 623.0005859375 584.0916015625 620.4 582 622.2462890625 582.4796875 624.1 583.15 632.25 586.05 639 592.45 643.5 596.7 647.95 603 650.7 606.9 655.5 614.7
M 319.45 650.95
Q 319.5185546875 648.869921875 319.3 646.8 322.0125 641.641796875 324.3 638.15 325.944921875 639.0111328125 327.95 640.25 327.4009765625 640.9650390625 327 641.45 323.2716796875 645.9486328125 319.45 650.95
M 315.25 654.9
Q 315.3490234375 655.121484375 315.45 655.35 315.5806640625 655.6388671875 315.7 655.9 314.44375 657.6537109375 313.15 659.45
L 314.25 657.05
Q 314.761328125 655.94765625 315.25 654.9
M 317.75 658.5
Q 317.9599609375 658.653515625 318.15 658.8 318.3447265625 658.145703125 318.5 657.5 320.29140625 655.0611328125 321.8 653.1 325 649.05 327.45 646.9 330.1224609375 644.57109375 332.85 643.55 333.5994140625 644.058984375 334.35 644.6 334.2728515625 645.875390625 334.55 647.2 334.95 649.35 336.25 651 337.603125 649.483203125 338.65 647.8 354.4755859375 659.50390625 372.25 668.2 382.8 673.3 391 675.4 401.6 678.1 410.6 676.5 420.85 674.65 427.95 666.75 435.35 658.5 434 648.95 432.8 647.65 431.6 649.65 430.5 651.5 430.55 653.65 430.55 657.85 428 661.75 425.6 665.4 421.75 667.7 415.1 671.55 405 671.2 393.1 670.85 379.35 665.05 370.65 661.4 355.45 652.65 346.0884765625 647.2587890625 340.65 643.9 341.5783203125 641.5099609375 342.05 638.85 343.3 631.75 340.75 625.4
L 336.35 630.5
Q 332.8654296875 634.5412109375 330.55 637.2 328.678515625 635.884765625 326.9 634.55 333.1216796875 626.5533203125 340.6 622.75 342.55 624.15 345.1 624.25 346.05 622.55 345.8 620.5 345.6 618.45 344.3 617 339.245703125 619.6150390625 334.8 623 337.2044921875 620.3982421875 339.5 617.05 340.041796875 616.1501953125 340.55 615.25 340.6861328125 615.2427734375 340.8 615.2 346.05 613.2 348.05 609.25 348.4 608.55 349.6 605.1 350.45 602.55 351.65 601.35 352.45 600.55 354.25 599.45 356.2 598.3 356.95 597.6 358 596.55 359 594.45 360.5 591.3 360.7 590.95 361.85 589.1 364.05 587.2 366.7 585.05 368 583.95 373 579.65 373 575.5 373.05 572.85 370.85 571 368.65 569.1 366.4 570.15
L 369.55 566.5
Q 370.1203125 567.091015625 370.6 567.55 374.0986328125 570.9541015625 377.55 572.7 377.80625 573.874609375 378.1 575.05 378.7392578125 574.33359375 379.2 573.45 380.907421875 574.129296875 383.5 574.9 387.4 576.1 389.1 576.85 389.6 577.1 396 580.65 400.15 582.95 403.2 583.3 408.25 583.85 412.45 580.2 415.049609375 577.9099609375 416.05 575.1 417.1921875 575.2861328125 418.2 575.45 420.993359375 577.383984375 424.7 579.05 427.45 580.3 432.85 582.2
L 452.05 589.1
Q 456 590.5 458.2 590.85 461.65 591.45 464.3 590.5 467.005078125 589.480078125 468.15 586.7 469.2416015625 586.7568359375 470.25 586.8 469.8380859375 587.433203125 469.4 588.1 467.445703125 591.07578125 464.7 596.35 464.5400390625 593.8826171875 463.65 591.7
L 460.7 592.75
Q 461.45 593.95 461.25 595.65 461.05 597.1 460.2 598.6 459.8 599.3 458.45 601.15 457.3 602.75 456.8 603.8 456.1 605.35 455.35 608.75 455.05 609.8 453.45 613.45 452.2 616.4 451.95 618.3 451.7232421875 619.9921875 452 621.55
L 447.8 630
Q 445.5 634.55 444.5 636.95 442.85 640.9 442.3 644.25 441.9 646.65 441.25 651.6 440.35 655.8 438.05 657.8 438.5849609375 659.6423828125 438.4 661.5 438.315234375 662.3947265625 438.05 663.25 437.949609375 663.6837890625 437.8 664.1 436.65 667.35 434 669.15
L 437.1 670.2 437.75 669.1
Q 437.8029296875 669.632421875 437.85 670.15 438.15 672.7 439.1 673.75 439.85 674.65 441.75 675.4 443.9 676.25 444.6 676.8 444.45 678.75 444.65 679.85 444.9 681.5 445.95 682.35 446.75 683 448.5 683.3 450.6 683.65 451.25 683.95 451.5 684.05 452.9 684.95 454.114453125 685.8001953125 455.95 686.75 455.95 686.9875 455.95 687.2 455.95 691.05 455.85 692.05 455.6 694.6 454.6 698.45 454.5330078125 698.705859375 454.45 699 454.0478515625 699.32734375 453.7 699.95 452.9 701.4 452.95 703.25 452.9677734375 703.7365234375 453 704.3 452.9203125 704.5509765625 452.85 704.8 451.075 712.0916015625 453.05 716.55 452.9248046875 718.262890625 452.65 719.7 452.3642578125 721.19453125 451.75 723.35 451.1830078125 722.9330078125 450.8 722.55 450.1 721.8 449.5 720.5 448.8 719.05 448.45 718.3 448.15 717.7 443.7 710.65 440.8 706.1 440.75 702.6
L 430.2 700.7
Q 429.95 698.75 428.3 697.8
L 429.25 694.95 425.6 694.2
Q 425.377734375 692.73828125 425.15 691.25 424.0486328125 690.378125 422.55 690.35 422.2095703125 688.5177734375 421.5 686.8 419.7 687.7 419.15 690.3 418.9 691.55 418.85 695.1 418.6 704.15 411.1 712.15 404.9 718.75 394.75 723.8 383.05 729.6 372.35 731.05 359.7 732.8 349.95 728.15 347.466015625 726.964453125 344.9 725.2
L 341.1 718.25
Q 338.1 712.85 336.85 709.7 332.7 699.25 334.95 688.1 336.3 681.3 340.5 673.7 343.15 668.9 349 660.55 346.3 659.55 343.45 660.75 340.55 661.95 339.4 664.6 338.85 665.8 338.6 667.85 338.15 670.7 338.05 671.15 337.45 673.5 335.4 677.05 332.9 681.25 332.25 682.8 331.1 685.55 330.75 689.25 330.55 691.5 330.55 696 330.45 702.5 331.5 706 331.85 707.2 332.6 709.1 333.5 711.35 333.8 712.2 334 712.85 334.6 714.9 334.8240234375 715.746484375 335 716.4 323.771484375 704.27265625 323.25 692.8 322.9 685.85 326.4 677.95 328.6 672.8 334.1 664.25 324.95 669.25 321 679.75 317.1 690.3 320.75 700.05 322.55 704.75 327.3 711.4 332.45 718.55 337.05 723.2 342.95 729.05 349.25 732.1 362.05 738.3 378.25 734.55 392.45 731.25 405.7 721.3 415.5 714 419.65 706.55 421.1703125 703.8015625 422 700.9
L 428.6 726.9
Q 432.55 742.4 435.3 750.4 437.018359375 755.34296875 438.95 759.7 436.7875 755.6611328125 434.75 751.55 430.9 743.9 424.5 729.3 422.6 731.4 422.25 734.4 421.9 737.35 423.25 739.85 424.3 741.7 427.2 744.8 428.45 746.35 430.7 750.75 439.9 768.6 450.6 785.45 457.3 796.05 470.45 814.95
L 487.65 839.8
Q 487.7240234375 840.9904296875 487.55 842.8 487.6 843.85 488.05 844.7 488.0884765625 844.7728515625 488.1 844.85 487.2599609375 853.8755859375 484.55 863.25 484.2201171875 863.198046875 483.85 863.1 481.95 862.5 480.95 862.3 479.4 862 478 862.85 476.55 863.8 477 865.1
L 483.15 867.8
Q 479.31796875 879.397265625 472.75 891.5 463.65 908.2 442.4 936.35
L 412.4 976.05
Q 409.896875 979.2818359375 408.5 982.4 406.78125 978.8125 404.85 975.3 404.6296875 969.9068359375 403.55 964.6 402.25 958.1 399.9 953.1 398.735546875 950.51640625 397 947.75 399.3513671875 948.3978515625 401.7 948.45 398.9513671875 945.9912109375 396.2 943.5 397.7123046875 940.5169921875 398.6 938.65 401.15 933.3 402.35 929.3 403.9 924.05 403.75 919.25 403.55 913.8 401.25 909.6 401 909.15 398.45 905.3 396.75 902.7 396.2 900.75 395.8 898.65 395.6 897.6 395.25 895.75 394.45 894.75 393.8 893.95 392.4 893.1 390.4 891.9 390.1 891.7 388.75 890.6 387.45 888.35 386.05 885.7 385.25 884.5 383.45 881.8 380.15 879.4 378.15 877.95 373.95 875.6
L 363.8 870
Q 360.95 868.4 359.1 867.65 356.4 866.6 354.1 866.65 351.4 866.7 349.25 868.45 346.95 870.25 347 872.75 348.9 873.85 351.25 873.25 353.55 872.7 354.75 870.85 356.3 872.7 361.25 873.25 366.3 873.8 367.9 875.5 368.4 876.05 369.2 877.4 369.9 878.7 370.45 879.25 371.65 880.5 374.3 881.15 378.05 882.05 378.7 882.35 380.7 883.2 382.45 885.35 383.55 886.75 385.2 889.55
L 394.2 905
Q 398 911.4 399.1 915.3 400.4 919.9 399.8 924.7 399.2 929.55 396.75 933.6 396.7 933.7 394.55 936.95 393.3021484375 938.8697265625 392.75 940.3 390.7923828125 938.5328125 388.85 936.7
L 385.4 932.45
Q 382.65 928.9 381.85 927.5 381.15 926.3 380.25 924.05 379.2 921.55 378.7 920.6 375.25 915.45 373.7 912.85 371 908.25 371.85 904.65 370 905.9 369.3 908.3 368.6 910.55 369.05 912.95 369.45 914.95 370.65 917.25 371.35 918.65 373 921.25
L 373.55 922.15
Q 341.3837890625 890.671875 312.6 855.95
L 345.6 842.05
Q 354.95 838.15 359.7 835.1 367 830.4 370.3 824.25 371.6 821.85 372.9 817.8 374.8 812.05 375.1 811.2 375.6 809.95 378.4 804.05 380.5 799.65 381.25 796.7 382.55 791.75 381.9 785.75 381.4 781 379.55 774.85 372.35 750.95 357.05 743.5 351.4 740.75 341.9 739.55 327.3 737.7 315.1 740.7 300.95 744.1 292.85 753.55 289.6 757.35 288.75 761.7 287.8 766.7 290.8 769.6
L 296.45 753.75
Q 314.4 744.85 338.15 745.6 344.95 745.9 348.8 747 360 750.35 368.8 763.25 373.5 770.15 375.05 776.1 377.3 784.6 374.75 795.35 373.1 802.35 368.05 814.15 366.2 818.4 365.2 820.3 363.5 823.7 361.6 826 357.75 830.65 350.55 834.3 341.8 838.1 337.5 839.95 323.6865234375 845.9677734375 312.05 855.3 303.1435546875 844.541015625 294.55 833.45 291.8818359375 824.3697265625 289.5 811.95 286.6 795.25 284.95 786.95 282.55 774.55 282.5 774.3 281.2 767.05 280.95 761.5 280.4 750 283.85 733.15 285.155078125 726.7564453125 286.7 720.65 286.878125 720.1509765625 287.05 719.6 287.334765625 719.9990234375 287.65 720.35 287.7634765625 718.6400390625 287.95 716.95 288.07734375 716.599609375 288.2 716.25 292 705.3 301.4 684.95
L 305.3 676.45
Q 305.4294921875 676.280859375 305.55 676.1 312.6986328125 665.49921875 317.75 658.5
M 574 442.7
Q 574.319921875 442.3919921875 574.65 442.05 576.75 439.85 577.75 438.5 578.3029296875 437.76875 578.7 437.05 577.8119140625 439.5892578125 577.85 442.25 577.85 442.3 578.4 447.7 578.75 450.9 578 452.95 577.65 453.8 576.45 455.75 576.1119140625 456.2880859375 575.85 456.75 575.5814453125 455.246484375 575.55 454.65 575.45 453.6 575.6 450.7 575.75 448.2 575.5 446.75 575.193359375 444.5650390625 574 442.7
M 587.55 439.6
Q 589.25 440.85 589 442.7 588.9 443.4 588.35 444.3 587.7 445.25 587.4 445.75 586.2 447.7 586 451.5 585.95 452.5 585.8 454.5 585.6 456.25 585.2 457.45 584.7 458.95 583.75 460.05 582.65 461.3 581.25 461.6
L 580.25 459.8
Q 580.65 459 582.2 457.05 583.5 455.35 583.85 454.15 584.15 453.15 584.15 451.1
L 584.1 438.75
Q 586.2 438.65 587.55 439.6
M 599.4 447.7
Q 600.75 448.55 602.6 450.4 605.15 452.95 605.8 454.75 606.2 456.05 606.2 458.3 606.1 460.55 605.9 461.25 605.5 462.9 603.4 465.85 601.7 468.1 600.35 467.45 599.55 465.8 599.4 463.5 599.3 462.15 599.45 459.4 599.55 456.95 599.15 455.8 598.8 454.95 597.55 453.35 594.75 449.5 595.6 446.45 597.45 446.4 599.4 447.7
M 591.8 455.05
Q 592.2 454.85 592.7 455.05 593.15 455.25 593.4 455.7 593.75 456.35 593.65 457.55
L 593.6 462.95
Q 593.6 465.25 593.85 466.4 594.3 468.35 595.6 469.3
L 592.7 471.25
Q 591.45 471 590.8 469.95 590.65 469.7 590.2 468.55 589.35 466.35 587.9 464.6 591.05 460.3 591.8 455.05
M 570 445.7
Q 572.0451171875 448.57109375 571.75 453.7 571.415625 458.7154296875 569.05 463.25 568.6671875 462.5662109375 568.4 462 566.95 459 565.75 453.65 564.6216796875 448.4365234375 563.95 446.1 567.8037109375 446.615234375 570 445.7
M 573.45 469.75
Q 575.2330078125 467.6216796875 576 465.5 576.305078125 466.3697265625 576.7 467.5 577.0390625 468.460546875 577.8 472.1 577.1193359375 473.1138671875 576.55 474.15 575.4724609375 472.4298828125 573.95 470.4 573.708203125 470.0767578125 573.45 469.75
M 579.05 479
Q 578.933984375 478.6712890625 578.8 478.3 578.7845703125 477.8416015625 578.8 477.35 579.0041015625 478.30390625 579.2 479.35 579.2193359375 479.4541015625 579.25 479.55 579.148828125 479.276171875 579.05 479
M 528.6 409.15
Q 531.05 412.85 535.35 413.8
L 535.35 415.65
Q 529.95 415.2 521.5 413.8 512.113671875 412.2564453125 508.75 411.75 508.7158203125 411.7021484375 508.65 411.65 507.0072265625 410.30234375 505.15 409.15
L 528.6 409.15
M 542.4 431.35
Q 541.1 429.6 541.1 427.35 542.5 427.3 543.95 428.55 544.75 429.3 545.85 431 547.3 433.2 547.95 434.7 548.8 436.8 549.15 437.2 549.6 437.8 550.75 438.8 551.4 439.55 551.65 440.6 551.85 441.6 551.55 442.55 550.7 443 549.7 442.35 549.15 441.95 548.45 440.85 546.65 438.3 545.8 436.4 544.85 434.2 544.7 434 544.35 433.45 543.6 432.7 542.7 431.7 542.4 431.35
M 531.35 430.2
Q 531.1611328125 429.9640625 530.9 429.7 531.4796875 429.155859375 531.9 428.5 533.0521484375 429.58671875 534.95 431.2 537.6 433.5 538.8 435.05 539.9 436.45 541.4 439.05
L 546.75 448.3
Q 545.3 448.85 543.75 448.3 542.703515625 447.9625 541.95 447.25 541.31640625 444.6701171875 540.95 443.8 540.1 441.75 538.35 440.6 536.9341796875 439.6560546875 535.6 439.8 534.5390625 438.3232421875 533.6 435.25 532.5 431.55 531.35 430.2
M 528.15 424.35
Q 528.304296875 424.48984375 528.45 424.65 527.42890625 425.0287109375 526.45 425.45 526.123046875 424.9779296875 525.95 424.45
L 528.15 424.35
M 528.65 439.7
L 527.55 442.45
Q 527.1619140625 442.457421875 526.75 442.6 525.4 443.85 525.85 446 526.25 447.9 527.7 449.5 528.6 450.45 530.6 452.15 532.25 453.75 532.85 455.2 533.1 455.75 533.4 457.05 533.65 458.25 533.95 458.85 534.55 460.25 536.55 462.15 538.459375 463.820703125 539.5 465.15 540.17734375 467.739453125 540.8 470.4 539.74609375 470.9720703125 538.1 471.15 535.9 471.2 534.85 471.3 533.05 471.5 531.8 472.5 530.35 473.65 530.5 475.1
L 542.05 475.95
Q 542.149609375 476.4666015625 542.25 476.95
L 542.2 476.95
Q 540.9 477.7 540.6 479.45 540.35 481.05 541 482.65 541.3 483.45 542.5 485.5 543.5 487.25 543.8 488.4 544.15 489.7 543.95 493.9 543.8501953125 496.16015625 544.3 497.65 544.26953125 498.7041015625 544.2 499.7 544.1 501.7 543.75 505.7 543.6541015625 509.0091796875 544.25 511.45 544.1748046875 511.5419921875 544.1 511.65 543.6 512.45 543.35 512.7 542.25 513.75 540.45 513.3 538.95 512.95 537.4 511.8 535.65 510.45 534.6 510 532.9 509.2 531.55 509.65 531.65 510.2 530.95 510.4 530.35 510.6 529.65 510.4 527.7 514 521.85 517.45 514.5 521.7 512.7 523.4 510.5 525.5 509.8 528.2 509.5861328125 529.001953125 509.55 529.7 508.815234375 529.6802734375 508.35 530 507.55 530.55 507.35 532.55 506.8505859375 537.543359375 504.65 542 504.1326171875 541.8234375 503.5 541.95 503.5716796875 543.704296875 503.25 546.1 502.4103515625 545.5873046875 501.9 544.85
L 497.95 545.85
Q 497.35 549.75 500.4 553.55 501.037109375 554.3431640625 501.8 555.1 501.2669921875 561.2900390625 504 564.7 499.45078125 567.2939453125 495.6 569.9 493.1328125 571.5642578125 490.95 573.25 483.9138671875 578.6408203125 480.95 584.15 481.0869140625 582.942578125 480.8 582 480.4 580.65 479.05 579.9 477.7 579.2 476.55 579.9 474.608984375 581.4833984375 472.75 583.6
L 468.75 583
Q 468.489453125 581.578515625 467.25 580.55
L 462.6 579.25
Q 461.7173828125 580.485546875 462.1 582.05
L 447.9 580.05
Q 440.1 578.95 436.4 577.65 434.55 577.05 430.9 575.4 427.3 573.8 425.35 573.15 422.8634765625 572.3099609375 418.9 571.6 418.6080078125 571.4140625 418.3 571.2 423.776953125 571.255859375 429.6 571 439.445703125 570.537109375 457.3 568.65 460.6966796875 568.3041015625 464.35 567.9 466.35 564 463.75 559.7 461.2 555.35 456.85 555.25 457.8 552.9 456.4 550.45 454.95 548.05 452.45 547.7 451.35 552.1 453.85 556.35 456.4 560.6 460.8 561.7
L 422.5 563.95
Q 413.2 564.55 408.2 564.55 408.0470703125 564.5509765625 407.9 564.55 407.669921875 564.4697265625 407.45 564.4 406.2 564 403.6 563.6 401 563.2 399.75 562.8 397.7 562.1 396.35 560.7 394.85 559.15 394.9 557.3 387.45 556.6 380.45 554.55 380.686328125 553.0728515625 380.3 551.6 380.613671875 550.105859375 381.1 548.35 381.276171875 547.80625 381.45 547.25 383 542.8 383.65 540.55 384.7939453125 536.5576171875 384.65 533.3 385.4314453125 533.3560546875 386.2 533.25 387.8 531.9 388.35 529.8 388.95 527.65 388.25 525.7 387.50078125 526.3689453125 386.6 526.8 386.977734375 525.953125 387.25 525 388.3 521.35 388.55 515.7 388.9 507.85 388.6 494.5 388.25 478.75 388.35 473.2 388.571875 457.3892578125 391.35 445.2 392.4044921875 444.9359375 393.25 444.45 393.3412109375 444.569140625 393.4 444.7 393.525390625 444.4587890625 393.65 444.2 394.501953125 443.6736328125 395.2 442.9
L 394.5 442.6
Q 396.475 439.044140625 398 437.05 399.95234375 434.512109375 402.15 432.95 405.1431640625 432.32734375 409.3 431.85
L 423.9 431.35
Q 422.9857421875 433.1642578125 422.25 435.3 421.3 438 420 443.6 417.9 453.05 417.05 457.3 415.55 464.95 414.95 471.1 412.6 494.75 419.85 517.1
L 424.95 517.95
Q 416.7 495.2 418.65 471.4 419.35 462.55 421.75 451.75 423.15 445.2 426.6 432.4 427.0943359375 431.8021484375 427.65 431.25
L 438.95 430.85
Q 438.78984375 431.0275390625 438.6 431.2 435.1 434.3 430.25 440.05 427.55 443.25 426.65 446.25 425.45 450.05 427.65 452.25 432.05 446.45 434.25 439.6 437.15 439.7 439.45 437.55 441.75 435.45 441.85 432.6 448.6125 431.1453125 452.95 430.35
L 466.7 429.9
Q 468.55 429.85 469.8 429.25 470.390625 428.9546875 470.75 428.55 484.7982421875 428.6876953125 494.65 434.45 494.8369140625 434.5630859375 495.05 434.7
L 468.75 434.1
Q 463.5 434 460.9 434.15 456.55 434.4 453.2 435.35 449.7 436.4 445.75 438.75 443.45 440.1 438.9 443.3 436.15 445.25 434.85 446.4 432.7 448.25 431.5 450.2 430.470703125 451.8912109375 430.1 453.75 426.995703125 455.1685546875 425.6 458
L 426.45 461.2
Q 431.05 459.9 435.75 461.7 440.45 463.5 442.95 467.55
L 470.55 470.75
Q 474.5 471.15 476.15 472.3 477.5 473.25 478.6 475.1 478.85 475.5 480.35 478.45 481.3619140625 480.4298828125 482.6 482.2 482.6365234375 499.312890625 483.5 515.2 483.7 519.65 485.65 520.9 486.9 521.1 488.1 520.2 489.15 519.4 489.8 518.1 490.2 517.3 490.75 515.55 491.25 513.85 491.65 513.05 492.15 512.05 493.5 510.25 494.85 508.45 495.35 507.4 496.3 505.4 496.3 502.45 496.35 502 496.05 497.25 495.97265625 495.831640625 496 493.4 500.4509765625 495.59609375 504.3 495.95 508 496.35 511.55 495.15 515.15 494 517.9 491.5 522 487.95 522.05 483.65 522.15 481.35 520.7 479.35 519.25 477.35 517.05 477 518.45 475.75 518.65 473.6 518.8 471.6 517.8 469.85 516.1 466.85 511.7 465.35 507.5 463.9 500.25 463.9 491.25 463.9 488.6 463.5 485.3 462.95 480.8 461.4 475.7 459.5 473.15 458.6 466.65 456.4 458.5 454.85 452.45 453.7 443.45 452.65 438.79609375 452.082421875 435.25 452.45 435.3447265625 452.290625 435.4 452.15 437.4 447.2 444.1 443.9 450.05 440.95 458.25 439.85 463.35 439.15 473.15 438.9
L 500.8 438.15
Q 504.002734375 439.75 506.65 439.75 506.25 441 506.75 442.3 507.3 443.6 508.45 444.25 510.35 443.3 510.8 440.9 511.25 438.6 510.15 436.6 509.9734375 436.274609375 509.75 435.95 509.853515625 435.4986328125 509.55 435
L 509 435
Q 508.2658203125 434.1552734375 507.25 433.4 505.85 432.35 503.4 431.15 498.044140625 428.464453125 492.45 426.55
L 513.65 425.2
Q 516.6720703125 428.4568359375 518.55 430.95 517.644140625 431.8501953125 516.8 432.85 518.5767578125 433.1859375 520.2 433.25 521.8958984375 435.69140625 522.9 436.8
L 522.9 436.85 522.9 436.85
Q 523.1884765625 437.147265625 523.4 437.35 525.95 439.9 528.65 439.7
M 506.25 417.65
Q 506.8025390625 418.162109375 507.45 418.8 487.08203125 419.41953125 466.55 420.45 464.384375 420.08046875 461.85 419.75 450.569140625 418.328125 443 419.3 443.7958984375 418.930859375 444.35 418.7 445.95 418.1 448.15 417.9 449.25 417.75 452.05 417.65
L 481.15 417.05
Q 494.8 416.75 501.85 417.2 504.05625 417.3439453125 506.15 417.55 506.205078125 417.6091796875 506.25 417.65
M 487.35 409.15
Q 488.0748046875 409.2291015625 488.75 409.3 488.232421875 409.5982421875 487.7 409.75 484.903125 409.6248046875 480.9 409.45 480.382421875 409.314453125 479.8 409.15
L 487.35 409.15
M 503.7 489.3
Q 502.8 489.3 502.6 489.25 502.25 489.1 501.95 488.7 501.45 488.05 501.4 488 500.9 487.45 499.95 487.05 498.8 486.7 498.2 486.5 497.258984375 486.1357421875 496.25 485.45 496.32421875 483.621484375 496.3 482.05
L 498.4 483.3
Q 499.8 483.95 503.3 484.9 504.7 485.3 505.35 485.6 506.6 486.2 508.55 488.5 505.45 489.1 503.7 489.3
M 533.2 448
Q 533.3638671875 448.2123046875 533.5 448.4 531.6900390625 446.7615234375 530.95 445.8 532.1384765625 446.63515625 533.2 448
M 561.75 484.55
Q 559.6029296875 480.7376953125 558.9 479.25 559.4599609375 479.1357421875 560 478.95 561.812890625 483.1052734375 563.15 487.3 562.5671875 486.0337890625 561.75 484.55
M 555.45 503.75
L 554.8 503.65 554.2 500.2 556.05 500.4
Q 556.997265625 502.503125 557.65 505.05
L 556.1 506.25
Q 555.5103515625 504.9390625 555.45 503.75
M 565.55 496.75
Q 565.274609375 496.636328125 565 496.5 564.9701171875 494.7869140625 564.8 493.35 565.225 495.044921875 565.55 496.75
M 545.25 521.15
Q 545.8830078125 521.6455078125 546.7 521.7 547.65859375 521.2041015625 548.6 520.65 549.7423828125 523.2154296875 549.95 525.05 550.8791015625 524.0443359375 551.55 522.75 551.758984375 524.4544921875 551.95 526.1 551.7 528.03359375 551.7 529.55 551.7 532.940234375 552.75 535.55 552.8896484375 538.1072265625 552.95 540.5 550.5369140625 541.7720703125 547.7 543.15
L 533.3 550.1
Q 532.90234375 549.67734375 532.35 549.35 531.2 548.7 529.6 548.4 528.65 548.25 526.7 548.15
L 508.35 547.25
Q 507.5173828125 547.196875 506.8 547.1 506.82890625 545.3771484375 506.25 543.95 508.3357421875 543.93515625 509.5 543.45 511.1 542.75 512.85 540.85 514.75 538.6 515.75 537.55 517.55 535.7 519.25 535 519.35 534.95 521.75 534.2 523.2 533.75 524 533.1 524.95 532.25 525.5 530.65
L 526.15 528.3
Q 526.75 526.5 529.3 523.7 531.6921875 523.25 535.05 523.25 541.9 523.2 544.7 521.5 544.948828125 521.3578125 545.25 521.15
M 558.6 520.9
Q 559.6123046875 525.225 559.7 532.35 559.540234375 530.9607421875 559.25 529.3
L 556.95 516.15
Q 557.977734375 518.2974609375 558.6 520.9
M 510 561.5
Q 509.3455078125 560.8298828125 508.8 559.95 509.8560546875 560.5330078125 510.9 561.05 510.4423828125 561.29765625 510 561.5
M 493.5 592.6
Q 492.15 589.55 490.4 587.8 489.9216796875 587.3107421875 489.4 586.95
L 530.65 567.4
Q 535.2982421875 568.17734375 540.1 568.3
L 540.1 564.95 539.35 564.7
Q 547.4505859375 563.4111328125 552.15 561.55 554.3447265625 560.6603515625 556.15 559.55 557.481640625 560.431640625 558.9 561.3 560.379296875 562.2560546875 561.95 563.2 576.15 571.7 580.35 575 587.5125 580.6703125 596.35 591.2 594.9455078125 591.409765625 593.55 591.8 587.2 593.55 583.7 598.2 591.932421875 595.36015625 600.95 596.7 611.1337890625 608.8337890625 611.3 609 613.15 611.05 614.5 612.1 616.35 613.65 618.25 614.25 620.4 614.95 622.6 614.3 622.8859375 614.206640625 623.15 614.1
L 605.8 639.8
Q 601.3 646.45 598.55 649.7 594.1 654.85 589.4 657.5 581.648828125 661.8939453125 564.55 662.15 564.5603515625 656.1861328125 563.95 650.55 561.212890625 655.171484375 560.3 662.2 553.984375 662.3388671875 550.95 662.65 543.65 663.4 538.45 665.85 533.05 668.45 532.85 668.5 529.6 669.75 527.1 669 525.5443359375 666.10234375 524 663.2 525.008203125 662.495703125 526.15 661.85 527.66484375 662.4294921875 529.2 662.8 530.6 663.1 531.95 662.3 533.35 661.5 532.5 660.55 531.3689453125 660.2162109375 530.25 659.75 530.635546875 659.5595703125 530.95 659.35 532.1 658.6 535.8 654.65 538.65 651.65 541.1 651
L 540.1 648.1 531.5 647.15
Q 531.6 647.9 530.75 648.15 529.95 648.35 529.05 648.1 529.35 650.85 528.4 653.5 527.5193359375 655.8775390625 525.9 657.6 521.56484375 655.043359375 517.6 650.75 508.696484375 633.083203125 500.6 614.85 499.40625 616.2896484375 499.1 618.2 497.3783203125 615.9658203125 496.75 614.35 495.8 611.9 496.05 607.5 496.35 602.1 496.15 600.5 495.8 597.7 493.5 592.6
M 563.15 555.75
Q 562.387890625 555.3548828125 561.25 555.1 561.8984375 554.3466796875 562.4 553.5
L 562.55 553.5
Q 565.0650390625 556.612109375 569.75 558.3 569.834765625 558.3296875 569.9 558.35 571.906640625 559.0419921875 574.1 559.45 574.5228515625 560.2515625 574.5 561.1 573.8 561 571.75 561.15 570 561.25 569.05 560.9 568.1 560.55 567.2 559.6 567.0283203125 559.4037109375 566.85 559.2 566.0681640625 558.3017578125 565.65 557.8 564.3 556.35 563.15 555.75
M 617.55 508.3
L 609.8 510.45
Q 608.25 519.2 609 527.8 601.05 527.5 597.1 530.4 594.5 532.3 593.75 535.55 592.95 538.95 594.9 541.2 599.6 541.6 604.1 539.85 608.6 538.05 611.7 534.55 615.35 534.65 616.55 538.9 616.73515625 539.5765625 616.8 540.2 617.3134765625 543.583203125 615.3 546.1 613.2 548.7 609.25 550.15 606.65 551.05 601.8 551.85
L 582.7 554.9
Q 582.3783203125 554.9552734375 582.05 555 581.9271484375 554.81328125 581.75 554.6 575.5466796875 546.6400390625 572.05 537.1 572.0517578125 536.5234375 571.95 535.9 571.9412109375 535.8439453125 571.9 535.8 574.04453125 529.4685546875 570.65 520 568.5 514.5 567.45 511.7 566.66484375 509.5623046875 566.15 507.65 566.5869140625 507.247265625 567 506.8 567.5544921875 510.3576171875 568.4 512.8 569.15 514.95 572.35 521.1 575 526.15 575.6 529.55 577 530.4 578.45 528.9 579.7 527.55 580.05 525.6 580.9 520.45 579.6 515.45 578.6 512.35 578.1 510.8 577.2 508 577.1 506.1 577 504.2 577.5 501.8 577.59453125 501.295703125 577.95 499.75 580.0599609375 501.00546875 582.6 502.15 599.1 509.7 617.55 508.3
M 567.8 553.7
Q 568.06796875 553.8072265625 568.5 554.15 568.4861328125 554.16875 568.45 554.15 567.96640625 553.908203125 567.5 553.6 567.6791015625 553.6560546875 567.8 553.7
M 598.45 573.55
Q 600.05 574.65 604.6 575.45 608.0521484375 575.9841796875 609.75 577.2 609.1630859375 577.5869140625 608.65 578.1 607.05 579.8 607.1 581.85 609.790234375 581.2228515625 612.55 581.15 613.1388671875 582.2333984375 613.35 582.55 614.1 583.65 615.85 585.25 617.75 586.95 618.45 587.85 616.95 588.95 614.55 588.5 612.95 588.15 610.75 586.95 608.2 585.65 607 584.9 605 583.65 603.7 582.25 602.85 581.15 602.4 580.6 601.6 579.65 600.9 579.15 600 578.55 599.55 578.25 598.8 577.65 598.55 577.05 598.3 576.45 598.45 575.3 598.6 574.1 598.45 573.55
M 610.1 592.8
Q 610.9568359375 593.1115234375 611.4 593.4 610.078125 592.85390625 608.75 592.4 609.4248046875 592.584765625 610.1 592.8
M 408.85 417.7
L 420.6 416.15
Q 418.3771484375 417.1404296875 416.35 418.2 412.95 420 407.25 423.65 406.6232421875 424.048828125 406.05 424.4 401.9765625 424.100390625 397.9 423.7 399.265625 420.9166015625 402.25 419.3 404.5 418.2 408.85 417.7
M 383.35 462.65
L 383.35 469.15
Q 383.1412109375 470.051953125 382.9 470.95 382.361328125 473.0240234375 381.4 476.2 381.5 474.6021484375 381.5 471.85
L 381.4 465.55
Q 381.3 464.25 381.65 463.55 382.3 462.35 383.35 462.65
M 376.55 514.3
Q 376.46328125 516.4259765625 376.7 518.5 375.6556640625 517.4626953125 375.1 516.55 374.40546875 515.416796875 374.05 513.9
L 376.55 514.3
M 376.6 528
Q 376.759765625 528.338671875 376.95 528.65 376.6443359375 529.88671875 376.8 531.6 376.9 532.85 377.15 535.3 377.2 538 376.1 541.1 375.6091796875 542.419140625 374.75 544.15 374.1955078125 545.2748046875 373.5 546.55
L 373.05 547.3
Q 372.2216796875 544.97578125 371.55 542.25 371.5123046875 542.099609375 371.45 541.95 368.83359375 531.2689453125 368.7 520.45 369.3001953125 521.4580078125 370.2 522.05 370.75 522.4 372.4 523 373.85 523.55 374.5 524.1 375.2 524.7 375.75 525.9 376.05 526.6 376.6 528
M 365.45 527.65
Q 365.920703125 533.616015625 366.95 538.8 368.38046875 545.6888671875 370.8 551.15
L 369.1 554.2
Q 368.39296875 555.387890625 367.55 556.75 366.896484375 556.1796875 366.35 555.65 361.1 550.6 359.15 545.15 357.0857421875 539.4978515625 358 532.1 358.0330078125 531.978515625 358.05 531.85 358.7 526.8 361.3 518.4 363.635546875 510.69765625 365.45 506.25 364.6298828125 517.063671875 365.45 527.65
M 387.4 567.85
Q 387.2712890625 567.9041015625 387.15 567.95 385.4 568.601171875 385.25 569.9
L 380.7 566.7
Q 380.733984375 565.99375 380.7 565.25 380.6462890625 564.798828125 380.6 564.35 381.9294921875 565.379296875 383.35 566.15 385.0841796875 567.1111328125 387.4 567.85
M 394.55 563.45
Q 394.7103515625 563.5748046875 394.85 563.7 394.4041015625 563.625 393.95 563.55 385.0587890625 562.1365234375 380 558.1 380.0296875 558.013671875 380 557.9 380.7744140625 558.47734375 381.65 558.85 383.05 559.45 386 559.9 389.05 560.3 390.4 560.85 392 561.5 394.55 563.45
M 375.75 559.45
Q 375.8466796875 559.6189453125 375.95 559.75 376.0126953125 561.5943359375 376.15 563.45 374.9173828125 562.55546875 373.75 561.7
L 375.75 559.45
M 401.45 578.15
Q 397.5 577.5 393.1 575.05 390.689453125 573.7310546875 386.35 570.7
L 413.15 574.65
Q 413.7552734375 574.737890625 414.35 574.8 412.7380859375 576.309765625 410.4 577.25 406.1 579 401.45 578.15
M 456.5 585.7
Q 454.330859375 585.415625 451.05 584.5 456.186328125 585.38515625 459.55 585.85 458.1150390625 585.891015625 456.5 585.7
M 479.4 589.4
L 479.5 589.1 481.75 590.6 482.45 590.25
Q 482.1572265625 592.43359375 482.5 594.95
L 479.4 589.4
M 477 596.15
L 477 596.05
Q 477.722265625 597.0138671875 478.75 597.65 479.1 597.85 480.35 598.5 481.35 599 481.85 599.45 482.95 600.4 483.55 602.3 483.6 602.45 484.4 605.7 485.15 608.85 486.95 612.45 488.05 614.75 490.5 618.8
L 490.6 618.95
Q 490.914453125 623.7392578125 489.5 630.2 477.504296875 626.2453125 465.35 624.1 467.2470703125 620.5931640625 468.7 617.45 472.15 610.15 477 596.15
M 455.7 640.35
Q 458.2953125 636.186328125 460.15 633.1 459.6357421875 635.81953125 459.7 639.45
L 460.05 658.5
Q 460.15 664.2 460 667.05 459.7 671.75 458.55 675.4 458.35 676.05 457.35 678.9 457.1998046875 679.2939453125 457.05 679.65 454.586328125 678.5546875 452.95 678 449.9 676.9 449 676.25 448.05 675.55 446.75 673.85 445.35 672.05 444.6 671.4 443.75 670.8 443.35 670.45 442.6 669.9 442.25 669.4 441.4 668.2 441.55 664.9 441.59765625 663.897265625 441.5 663.1
L 455.7 640.35
M 470.6 638.5
Q 470.921875 637.559375 471.15 636.8
L 488.05 637.3
Q 488.009765625 637.473828125 487.95 637.65 487.05 640.25 487.15 643.3 487.25 645.65 488.05 648.9 488.45 650.75 489.35 654.45 491 662.35 490.5 676.95 489.95 692.85 490.85 699.55 491.55 704.85 495.3 718.15 498.6 729.85 498.9 736.8 499.15 742.6 502 743.05 504.4 729.6 500.95 716.05 497.75 705.85 496.75 700.75 495 691.9 497.85 685.95 497.85 695 500.5 703.8 503.2 712.6 508.2 720.15 510.2 718.65 511.05 715.95 511.396484375 714.81796875 511.5 713.6 514.35 721.619921875 514.35 726.3 514.3939453125 728.584765625 514.25 733.1 514.169140625 733.321875 514.05 733.55 513 735.6 512.1 736.5 511.35 737.25 509.8 738.15 508 739.2 507.4 739.7 506.2 740.7 505.65 742.05 505.1 743.55 505.75 744.7 502.9 744.4 500.65 746.75 498.4 749.1 498.8 751.95 491.1 756.5 484.85 763.15 483.6982421875 764.4244140625 483.15 765.5 479.3556640625 762.6328125 474.25 759.8 471.05 758 467.65 756.35 465.53828125 755.3130859375 463.6 754.5 462.357421875 753.310546875 460.9 752 460.0318359375 751.1939453125 459.25 750.6 460.6001953125 748.213671875 461.05 745.1 461.6 741.2 460.75 736.65 460.6744140625 736.244140625 460.55 735.7 462.1484375 736.366015625 463.3 736.15 464.45 736 465.15 735.1 465.95 734.1 465.6 733.1 462.85 733 459.75 729.95 459.3142578125 729.5142578125 458.9 729.1 458.83359375 728.8134765625 458.75 728.5 457.35 723.4 457 720.25 456.8837890625 719.1349609375 456.85 716.7 457.8140625 716.7876953125 458.95 716.95 462.55 717.45 464 716.05 464.9 715.2 465.2 713.65 465.35 712.65 465.3 710.75
L 464.35 689.75
Q 464.329296875 689.195703125 464.3 688.65 464.7810546875 688.0193359375 465 687.1 465.4794921875 685.086328125 464.3 683.65 464.4595703125 680.36953125 465.25 677.85 465.6 676.8 466.6 674.5 467.55 672.4 467.9 671.15 468.7 668.25 468.55 664.2 468.15 659.45 468 657.1 467.45 647.6 470.6 638.5
M 328.6 628.45
Q 326.5693359375 630.5138671875 324.65 632.8 323.7095703125 632.0533203125 322.8 631.3 325.7751953125 630.3587890625 328.6 628.45
M 446.35 722.1
Q 448.1017578125 725.3341796875 450.4 728 450.12578125 728.9359375 449.8 729.95 448.3 736 449.65 740.05 449.95 740.9 451.4 743.8 452.55 746.1 452.8 747.65 452.866015625 748.079296875 452.8 750.15 452.037890625 750.8888671875 452 751.95 452 752.9478515625 452.75 753.85 452.8833984375 756.0646484375 453.8 757.3 455.25 759.15 459.8 759.65 459.922265625 759.6625 460.05 759.65 463.6875 763.3845703125 465.7 768.4 466.4 770.2 467.55 773.85 468.6 777.1 469.95 779 471.7 781.5 474.55 782.45 477.6 783.45 479.85 781.9 478.9068359375 778.740234375 483.8 775.5 484.569921875 776.47265625 485.85 778.15 487.15 779.85 488.35 780.7 489.85 781.8 491.7 781.95 493.7 782.1 494.9 780.9 493.2345703125 775.4974609375 488.9 770.7 489.29375 769.5640625 488.9 768.4 490.05 771.2 493.75 771.3 497.25 771.35 499.7 769.05 501.55 767.3 503.2 763.85 504.9 759.9 505.9 758 507.55 754.85 514.95 745.9 521 738.7 522.2 733.15 522.7 730.95 521.9 729.75 520.95 728.35 519 728.75 518.5623046875 728.819140625 518.15 728.95 518.1796875 728.65390625 518.2 728.35 518.7 719.7 518.25 716.55 517.65 712.55 514.4 705 511.2 697.45 510.65 693.4 510.45 692.05 510.35 689.6 510.2 686.95 510.05 685.75 509.8388671875 683.91015625 509.1 681.1 510.5984375 680.323828125 512.55 678.1 515.6 674.5 516.8 672.55 518.5 669.2 519.55 667.6 519.9431640625 667.02265625 520.4 666.45 520.7203125 667.1294921875 521.05 667.7 522.8 670.65 525.35 672.4 528.25 674.4 531.25 674.25 532.95 674.15 535.1 673.25 536.3 672.75 538.75 671.55 545.6458984375 668.4314453125 559.8 667.6 557.6337890625 667.91796875 556.25 669.45 558.64921875 670.19453125 559.55 672.9 559.458203125 675.282421875 559.4 678.05 559.234765625 680.7076171875 558.9 683.5
L 557.2 690.65
Q 555.85390625 690.127734375 554.35 690.05 552.25 694.3 551.85 699.1 551.75 700.45 551.7 703.1 551.55 705.5 551.05 707.05 550.15 710.05 546.8 713.7 542.05 718.85 541.35 719.85 539.9 722 538.3 725.9 536.35 730.75 535.6 732.15 535 733.35 533.1 736.45 531.45 739.1 530.75 740.75 528.35 746.4 530.65 750.3 531.65 751.35 533.2 751.4 534.75 751.45 535.6 750.35 536.5 749.2 535.9 747.7 535.3 746.15 533.9 746.15
L 542.65 727.1
Q 545 721.8 546.8 718.9 548.65 715.85 551.45 712.75 551.9181640625 712.24921875 552.3 711.8 551.1837890625 715.4486328125 549.8 719.55 542.7783203125 740.4724609375 535.8 756.7 533.7447265625 760.269921875 531.25 764.1 528.2 768.8 522 777.6
L 507.35 798.5
Q 511.85 796.7 515.95 792.25 518.7 789.3 522.55 783.5 522.997265625 782.8302734375 523.45 782.15 516.1232421875 795.2751953125 507.85 806.15 506.921484375 803.5392578125 505.45 800.95 500.3 791.85 491.2 788.05 490.6306640625 804.6912109375 493.4 821 491.0337890625 822.1888671875 488.65 822.35
L 487.65 820.45
Q 487.7046875 815.1125 486.8 809.65 486.3 809.2 485.5 809.4 484.7078125 809.598046875 484.3 810.2 483.9943359375 809.816796875 483.65 809.4 482.433203125 807.92109375 479.4 804.6
L 469.45 785.6
Q 470.159375 791.10390625 471.7 796.4 468.334375 792.8662109375 464.1 788.45 451.9 775.75 446.2 766.25 441.5 758.35 437.9 747.95 435.2 740.15 432.4 728.5 429.412890625 715.7798828125 427.15 703.35 427.5966796875 703.6138671875 428.05 703.85 430.05 704.9 432.85 705.55 434.45 705.9 437.9 706.35 437.3 707.6 437.65 709.2 437.95 710.6 438.9 711.85 439.55 712.7 440.9 714.05 442.4 715.5 442.95 716.15 443.85 717.25 444.8 719.05 445.3 720.05 446.35 722.1
M 458.6 791.35
Q 453.2310546875 783.64296875 448.55 776.25 451.615234375 780.33515625 455.75 784.9 459.4 788.95 466.9 796.8 471.9189453125 802.165625 475.7 807.05 476.416796875 808.59765625 477.2 810.1 480.08515625 815.5888671875 483.7 820.4
L 483.7 829.05
Q 483.7 829.2251953125 483.7 829.4 481.0470703125 823.7154296875 477.7 818.35 475.4 814.6 469.25 806.15 463.1 797.8 458.6 791.35
M 473.2 768
Q 474.1884765625 768.4451171875 475.6 769.05 476.479296875 769.462109375 477.3 769.9 475.5072265625 770.9640625 473.9 772.3 473.8419921875 770.15234375 473.2 768
M 613.35 600.35
Q 613.2017578125 600.35 613.15 600.35 611.4333984375 600.448046875 611 599.4 612.189453125 599.8388671875 613.35 600.35
M 626.25 609.5
Q 626.226953125 608.498046875 625.9 607.25 626.533203125 607.7072265625 627.15 608.15
L 626.25 609.5
M 496.65 637.55
Q 499.5546875 637.624609375 500.9 637 501.105078125 636.894140625 501.3 636.75 507.6431640625 647.101171875 512.85 652.6 514.7041015625 654.5630859375 516.6 656.15 517.347265625 658.1654296875 518.5 661.9 518.660546875 662.35625 518.8 662.8 517.1369140625 663.9818359375 516.25 665 515.1 666.25 513.85 668.6 512.05 671.95 511.75 672.4 510.45 674.4 508.75 675.55 508.2046875 675.9275390625 507.65 676.15 506.0716796875 670.940625 505.7 668.2
L 502.4 667.5
Q 501.094921875 658.721875 498.95 648.25 498.0837890625 644.0587890625 496.65 637.55
M 522.4 660.15
Q 522.53515625 660.2345703125 522.65 660.3 522.5857421875 660.3337890625 522.5 660.35 522.4763671875 660.2734375 522.4 660.15
M 496.15 662.45
L 497.1 662.45
Q 497 662.95 497.3 663.75 497.45 664.15 497.85 665 498.1 665.65 498.1 666.65 498.1 667.2 498 668.35 497.95 669.65 498.1 672.2 498.1 674.45 497.1 675.85 496.1 675.3 496.1 673.15
L 496.15 662.45
M 504.85 685.95
Q 504.558984375 683.6890625 504.3 681.65 504.4408203125 681.9552734375 504.6 682.25 505.6 684.15 505.95 685.1 506.75 687.2 506.75 690.55 506.75 692.113671875 506.65 695 505.6244140625 690.9119140625 504.85 685.95
M 494.65 795.9
Q 500.8482421875 802.283203125 504.95 809.9 503.4689453125 811.7611328125 501.95 813.55 499.15625 816.859375 496.75 818.8 494.92734375 807.48125 494.65 795.9
M 487.45 825.1
Q 487.455859375 825.031640625 487.45 824.95 490.025390625 827.8462890625 492.9 830.45 493.846484375 829.323828125 494.75 828.2 496.7408203125 837.2998046875 499.75 846.3 501.673828125 857.097265625 508.2 868.35
L 496.5 879.1
Q 495.95 876.85 493.4 874.45 489.5 870.7 489.2 870.35 488.251171875 869.135546875 487.65 867.8 488.6525390625 865.0068359375 489.35 862.5 492.6791015625 850.690234375 491.45 840.65 491.5337890625 837.866015625 491.35 836.35 490.95 833.7 489.7 832.05 488.3 830.55 487.85 829.65 487.15 828.3 487.45 825.1
M 491.4 885.05
Q 493.2 886.1 495.5 885.9 497.6 885.75 499.55 884.65 501.2 883.7 502.9 882 503.95 881 505.8 878.85
L 510.95 872.8
Q 511.49296875 873.6357421875 512.05 874.45 512.1099609375 874.5388671875 512.15 874.6 521.462890625 891.518359375 534.5 905.85 536.1212890625 907.6279296875 537.9 909.5 534.305078125 912.5048828125 529.75 913.5 527.4 914 522.5 914.1
L 499.55 914.65
Q 499.388671875 914.6541015625 499.2 914.65 498.5931640625 914.3201171875 497.95 913.95 494.75 912.1 488.9 907.8
L 485.1 905
Q 483.8 905.7 483.8 907.4 483.8 909.05 484.85 910.25 485.7 911.2 487.25 912 488.15 912.5 490 913.4 490.7611328125 913.8302734375 491.85 914.6 489.4220703125 914.534765625 487.65 914.3 481.15 913.4 476.85 910.4
L 476.15 909.9
Q 482.56015625 891.7294921875 485.65 873.5 485.9744140625 874.0234375 486.3 874.5 488.4 877.45 491.45 879.3 490.65 880.6 490.65 882.2 490.6 883.8 491.4 885.05
M 540.05 907.45
Q 539.954296875 907.5544921875 539.85 907.65 536.5287109375 904.033203125 533.4 900.2
L 540.05 907.45
M 538.85 912.4
L 539.8 911.4
Q 540.03203125 911.633203125 540.25 911.85 539.576953125 912.13984375 538.85 912.4
M 542.85 910.55
Q 542.7732421875 910.59375 542.65 910.65 542.1328125 910.0873046875 541.6 909.5
L 541.75 909.35 542.85 910.55
M 556.3 926.75
Q 556.461328125 926.8916015625 556.6 927 556.5470703125 927.948828125 556.6 928.9 556.7 931.1 557.45 934 557.9 935.65 558.9 938.95 560.2 943.65 558.05 945.35 557.58359375 945.6998046875 556.45 946.1
L 556.3 926.75
M 555.55 976
Q 556.35 972.2 556.55 967.35 556.5923828125 966.47265625 556.6 965.4
L 560.05 966.45
Q 561.95 972.8 557.3 983.15 553.65 991.25 553.55 991.55 552.8171875 993.39140625 552.3 995.05 551.818359375 991.5177734375 552.8 986.9 554.8 979.6 555.55 976
M 565 978.85
L 565.95 978.85
Q 566.6 979.8 566.85 981.2 566.95 982.05 566.95 983.8
L 566.9 987.7
Q 566.9 988.8 566.7 989.3 566.45 989.8 566.15 990.1 564.2 992.55 561.15 993.2 560.8 991.6 562.1 989.7 563.65 987.8 564.25 986.7 564.75 985.85 564.85 985.2 565.15 984.1 565 982.05 564.85 979.75 565 978.85
M 363.4 926.3
Q 360.9 924.3 358.25 923.8 356.93984375 923.546484375 355.95 923.75 344.0427734375 912.498046875 335 902.3 309.1447265625 873.2185546875 297.9 843.45
L 309.95 857.05
Q 309.91171875 857.09765625 309.85 857.15
L 310 857.05 377 932.5
Q 383.5 939.85 388.1 943.2 389.769921875 944.443359375 391.4 945.4 391.5595703125 946.31484375 391.3 947.65 390.8 949.85 390.8 950.55 390.85 952.5 392.65 954.6 393.7 955.85 395.9 958.2 397.75 960.65 398.5 964.45 398.518359375 964.548046875 398.5 964.65 396.66171875 961.76796875 394.65 958.95 381.3 940.2 363.4 926.3
M 470.5 908.65
Q 469.4 909.4 469.5 910.5 470.7671875 911.258203125 471.9 911.9 469.864453125 916.8927734375 467.7 921.8 466.032421875 918.8779296875 464.05 916.4 463 915.7 461.85 916.8 461.7015625 916.9416015625 461.55 917.1 464.9232421875 912.3453125 467.5 908.2 471.15 902.35 476.8 891.65 482.17578125 881.50234375 485.5 873.35 480.201171875 891.213671875 473.35 908.3 473.08046875 908.208984375 472.8 908.15 471.6 907.95 470.5 908.65
M 461.3 917.45
Q 460.823828125 918.2341796875 461 919.15 461.15 920.25 462.05 921.45 462.55 922.15 463.7 923.5 464.709765625 924.792578125 465.55 926.55 464.4306640625 929.027734375 463.25 931.45 462.2677734375 932.488671875 460.8 932.95 461.0107421875 934.6927734375 460.9 936.35 460.358984375 937.53125 459.75 938.65 459.2498046875 938.501171875 458.7 938.35 457.586328125 940.816015625 457.05 944 445.151953125 967.1359375 430.2 988.8 426.75 993.75 423.75 996.2 419.55 999.6 415.3 999.15 413.6041015625 994.155078125 411.55 989.3 418.575 971.89296875 435.55 950.3 446.65 936.55 452.15 929.65 457.2849609375 923.1244140625 461.3 917.45
M 467.05 932.35
Q 467.225390625 931.9701171875 467.4 931.6 467.424609375 931.6693359375 467.45 931.75 467.9234375 933.3505859375 468.35 935 467.449609375 935.197265625 466.9 935.9
L 466 934.55
Q 466.537109375 933.459765625 467.05 932.35
M 465.45 938.75
L 467.05 937.2 467.65 942.45
Q 466.633984375 940.570703125 465.45 938.75
M 465.8 955.45
Q 466.85 957.1 467.2 958.1 467.8 959.8 467.5 962.85 467.15 966.55 467.3 967.75 467.4833984375 969.15546875 468.15 970.8 468.5802734375 977.626953125 470.2 984.25
L 471.8 979.15 474.85 1006.25
Q 473.6453125 1005.8 472.3 1005.8 473.2 1001.5 469.7 994.95 465.4 986.8 464.85 984.1 464.4 981.85 464.6 977.15 464.85 972.5 464.35 970.2 464.05 968.7 463.2 966.4 462.1 963.5 461.85 962.7 460.7 959 460.6 954.1 460.55 951.15 461 945.35 462.158984375 945.813671875 463.15 946.5 463.1884765625 946.57890625 463.2 946.65 463.4 947.7 463.6 949.8 463.8 951.65 464.3 952.85 464.65 953.7 465.8 955.45
M 480.6 1014.15
Q 480.6052734375 1014.1943359375 480.6 1014.25 480.3482421875 1014.31328125 480.1 1014.4 480.0935546875 1014.1591796875 480.05 1013.9 480.107421875 1013.390234375 480.05 1012.85 480.003125 1010.7537109375 479.95 1008.6
L 480.6 1014.15
M 481.5 1033.8
L 480.25 1020.3
Q 480.2083984375 1018.9333984375 480.15 1017.55 480.6171875 1017.82265625 481.05 1018 482.8244140625 1033.149609375 484.85 1052.55 483.6654296875 1054.722265625 483.15 1056.55 482.35 1059.4 482.9 1068.35 483.3365234375 1075.48046875 480.95 1079 480.9359375 1055.5109375 480.5 1032.05 480.975390625 1032.9662109375 481.5 1033.8
M 480.95 1079.2
L 483.8 1079.75
Q 483.775 1081.178515625 483.75 1082.3 483.7 1085.2 483.45 1086.75 483.29375 1087.8431640625 483 1088.8
L 483 1088.75
Q 481.8703125 1088.75 480.9 1089.15 480.9484375 1084.195703125 480.95 1079.2
M 467 1104
L 473.1 1104
Q 474.221484375 1104 475.1 1104.05 475.3892578125 1108.4275390625 475.85 1112.4 472.10390625 1111.0505859375 467 1110.8 461.05 1110.75 458.1 1110.7 456.2494140625 1110.6650390625 454.6 1110.5 454.9703125 1110.2814453125 455.55 1109.75 456.1 1109.15 456.45 1108.9 457.25 1108.3 459.45 1107.9 461.55 1107.5 462.4 1106.75 462.7 1106.5 463.3 1105.6 463.85 1104.85 464.3 1104.55 465.15 1104 467 1104
M 481.15 1107.6
Q 481.2796875 1107.451171875 481.4 1107.3 482.89921875 1109.387890625 482.85 1111.8 481.62421875 1111.7763671875 480.2 1112.4 480.66328125 1110.618359375 480.75 1108.05 480.9419921875 1107.8310546875 481.15 1107.6
M 449.8 1113.95
Q 451.45 1114.25 454.55 1114.4
L 469.4 1115.05
Q 472.15 1115.15 473.5 1115.5 474.22578125 1115.7041015625 475.3 1116.05 472.5083984375 1118.388671875 471.25 1118.9 469.45 1119.55 466.1 1119.65
L 454.2 1120.1
Q 452.35 1120.2 451.45 1120.05 450.9 1119.95 447.85 1118.8 445.15 1117.65 441.55 1116.85 439.45 1116.35 435 1115.6 435.4 1112.7 440.95 1112.15
L 444.5 1111.8
Q 444.915625 1112.12734375 445.35 1112.4 447.15 1113.5 449.8 1113.95
M 595.55 1005.6
L 605.1 1005.6
Q 605.5 1009.8 604.6 1011.95 603.9 1013.65 601.25 1016.3 599.7 1017.9 598.65 1018.65 597.1 1019.75 595.55 1019.95
L 595.55 1005.6
M 582.3 1015.45
Q 582.3390625 1016.6341796875 582.35 1017.8
L 575.5 1017.1 575.5 1016.15 582.3 1015.45
M 602.3 1027.6
Q 604.053125 1027.487109375 605.65 1027.25 606.35859375 1027.141015625 607 1027 607.39921875 1027.878125 607.95 1028.6
L 602.25 1029.5
Q 602.37890625 1028.5486328125 602.3 1027.6
M 486.95 994.95
Q 487.986328125 996.6810546875 489.5 998.8
L 491.6 996.8
Q 496.35 1003.15 497.85 1011.25 499.35 1019.35 497.15 1027 496.25 1030.1 493.55 1036.1 493.0685546875 1037.1619140625 492.6 1038.15 490.736328125 1026.93125 489.15 1017.75 489.3345703125 1017.69296875 489.5 1017.6 493.1 1015.55 494.05 1011.9 491.1134765625 1012.1197265625 488.25 1012.55 486.6810546875 1003.2087890625 485.45 996.3 486.3828125 995.8681640625 486.95 994.95
M 565.75 1088.9
Q 565.5544921875 1088.0380859375 565.4 1087.15 570.958203125 1087.325 574.25 1087.7 580.4 1088.4 585.05 1090.15 585.505859375 1090.3208984375 586.05 1090.55 581.9919921875 1090.7736328125 577.35 1091.5 573.6859375 1092.069921875 567.25 1093.45 566.3072265625 1091.38515625 565.75 1088.9
M 609.3 1100.55
Q 609.231640625 1100.39140625 609.15 1100.25 617.401953125 1103.072265625 625 1107.8 633.7 1113.2 637.65 1119.45 633.7525390625 1118.9447265625 623.35 1119.5 623.0380859375 1118.8087890625 622.65 1118.1 621 1115.15 617.35 1111.15 614.15 1107.6 612.95 1106.1 610.6 1103.2 609.3 1100.55
M 612.05 1115.1
Q 614.4 1117.05 614.5 1119.05 609.1 1120.75 602.8 1120.15 597.05 1119.65 591.25 1117.3 589.125 1116.4712890625 586.9 1115.35 587.4201171875 1114.1501953125 587.25 1112.4 586.9 1109 584.45 1106.9 582.7 1105.4 579.1 1103.8 574.95 1101.95 573.55 1101 572.1302734375 1100.08125 570.95 1098.9 572.3529296875 1097.6798828125 575.4 1097.15 587.95 1095 601.1 1097.95 601.1294921875 1097.956640625 601.15 1097.95
L 605.2 1107.2
Q 606.75 1110.6 607.95 1111.85 609.1 1113.1 612.05 1115.1
M 583.15 1112.5
Q 583.028515625 1112.9099609375 583 1113.3 581.8359375 1112.669921875 580.65 1111.95 580.594140625 1111.916015625 580.5 1111.85 581.7705078125 1112.183984375 583.15 1112.5
M 286.9 818.45
Q 287.519921875 821.7318359375 288.3 825 285.5802734375 821.003125 284 817.9 279.9 809.9 280.25 802.75 280.4 799 281.85 794.6 282.2033203125 793.4982421875 282.75 791.95 283.6732421875 796.6521484375 284.7 804.25 286.05 814.1 286.9 818.45
M 571.7 641.45
Q 572.55 639.5 572.8 636.8 572.9 635.2 572.8 632 572.7 628 571.5 626.35 569.95 624.25 565.2 623.35 563.6 620.4 560.7 618.55 557.75 616.7 554.45 616.6 554.6 617.1 554.1 617.4 553.6 617.65 552.95 617.65 549.75 617.2 548.15 617.45 546.9 617.65 545.95 618.45 544.9 619.3 544.85 620.45 546.3 622 548.8 622.65 550.5 623.1 553.5 623.3 547.45 624.4 543.15 628.85 541 630.9 541.05 632.95 541.1 634.75 543.45 637.3 545.8 639.85 547.2 641.05 549.45 642.95 551.65 643.8 552 643.95 553.85 644.5 555.2 644.9 556 645.35 556.5 645.65 557.6 646.5 558.6 647.3 559.25 647.6 560.8 648.35 564.35 648.15 565.7 648.15 566.5 647.8 567.5 647.4 568.85 645.75 571.05 642.9 571.7 641.45
M 558.3 625.2
Q 558.9 625.45 559.25 626.35 559.45 626.85 559.8 627.95 560.55 629.55 563.05 630.3 563.7 630.55 565.05 630.95 566.2 631.35 566.9 631.85 566.8 632.6 566.95 634.45 567.05 636.1 566.8 637 566.35 638.6 564.45 640 563.4 640.85 561.15 642.35 556.95 640.45 552.55 639.55 552.6 638.8 551.85 638.1 550.85 637.35 550.35 637 548.95 636.05 548.2 634.35 547.5 632.65 547.75 630.9 548.6 630.45 551.6 629.85 554.05 629.35 555.1 628.25 556.05 626.9 556.5 626.3 557.35 625.2 558.3 625.2
M 539.15 529.6
L 539.15 530.55 538.2 530.55
Q 537.45 531.7 537.25 533.4 537.15 534.4 537.2 536.5 537.3 537.75 537.45 538.1 537.75 538.95 539.15 540.05 540.35 539.4 540.9 538 541.45 536.65 541.1 535.3
L 544.9 534.35 545.85 536.25 547.75 536.25
Q 548.55 534.45 548.55 533.4 548.55 532.35 547.75 530.55
L 539.15 529.6
M 449.3 537.65
Q 448.95 536.25 447.95 534.8 447.25 533.85 445.8 532.3 443.3 529.7 441.45 529 440.6 528.7 439.05 528.45 437.3 528.2 436.6 527.95 435.85 527.7 434.8 527.15 433.2 526.35 433 526.25 431.25 525.5 428.8 525.2 427.4 525 424.45 524.9
L 424.45 525.75 421.7 526.75
Q 421.4 527.7 422.15 528.65 422.8 529.55 423.9 529.95 424.4 530.15 426 530.5 427.3 530.8 428.05 531.2 429 531.7 430.1 532.95
L 431.9 535.05
Q 433.35 536.5 436.85 538.25 440.45 540.1 441.85 541.35 442.2 541.65 443.2 542.7 444.05 543.6 444.65 544.05 446.65 545.5 448.35 544.8 449.1 542.45 449.35 541.25 449.7 539.25 449.3 537.65
M 462.7 526.7
L 461.75 526.7 461.75 528.6 468.45 530.55
Q 468.2 533.6 469.4 536.25
L 474.15 537.25 475.1 535.3
Q 474.8 534.85 473.6 533.85 472.6 532.95 472.35 532.2 472.25 531.75 472.25 530.8 472.15 528.6 471.3 526.7
L 462.7 525.75 462.7 526.7
M 486.6 536.25
Q 487.15 534.85 487.3 534.05 487.55 532.75 487.15 531.8 486.6 530.5 484.85 529.7 482.65 528.95 481.6 528.45 480.25 527.8 478.2 526.05 473.65 522.2 471.95 520.15 471.4 519.45 470.95 519.2 470 518.85 468.5 520.05 468.05 521.25 468.6 522.6 469.15 523.8 470.3 524.65 471.1 525.3 472.6 526 474.5 526.85 475 527.15 476.95 528.25 479.25 530.7 482.95 534.7 483.05 534.8 485.1 536.65 486.6 536.25
M 419.9 628.9
Q 418.3 627 417.4 626.45 416.05 625.65 413.45 625.55 410.2 625.5 409.25 625.25
L 404.2 630.05
Q 401.45 632.7 400.55 634.3 399.8 635.7 398.7 638.85 397.55 641.45 395.8 642.25 399.7 645.8 400.5 651 405.3 651.25 413.95 651.85 416.15 651.95 417.05 651.45 417.7 651.05 418.35 650.1 419.05 648.95 419.45 648.4 420.2 647.35 422.9 645.3 425.3 643.45 426 641.9 426.75 640.25 426.4 638.2 426.05 636.4 424.95 634.65 424.1 633.35 422.55 631.7 420.75 629.85 419.9 628.9
M 410.1 629.95
L 414.85 630
Q 417.6 634.15 421.6 637.55 421.55 639.2 420.1 640.85 419.3 641.85 417.4 643.65 416.35 644.85 416.2 645 415.45 645.7 414.75 646 414.2 646.25 412.55 646.45
L 403.5 647.15
Q 402.9 641.85 404.3 636.6 406.7 636.35 408.15 635.85 410.15 635.15 411.1 633.75 410.25 631.9 410.1 629.95
M 667.3 169
Q 664.95 167.5 662.75 167.25 660.05 166.95 659.05 168.8 695.95 193.45 735.1 214 751.65 222.75 762.6 226.35 781.5 232.55 801.4 231.25 804.65 231 806.7 230.55 806.9435546875 230.4978515625 807.15 230.45 807.2884765625 230.521875 807.4 230.6 807.85 230.9 809.3 231.65 810.55 232.25 811.15 232.8 811.85 233.4 812.55 234.5 812.95 235.1 813.7 236.4 816.15 240.25 820.45 241.8 818.3 245.7 819.25 250.75 820.15 255.35 823.25 259.3 825.65 262.35 829.9 265.85 832.3 267.85 837.25 271.75 837.4 271.9 844.85 278.8 849.45 283 852.9 285.2 857.6 288.2 862.55 289.05 868.05 289.95 872.5 287.9 875.05 286.7 876.65 284.55 878.35 282.15 878.05 279.65 877.6 275.8 871.9 272.15 868.5 269.9 860.4 265.25 852.9 260.95 848.95 258.25 843.65 254.6 837.6 249.35 833.95 246.15 826.95 239.55
L 813.65 226.9
Q 814.533203125 225.984375 815.15 224.8 816.45 222.2 815.75 219.75 808.65 218 801.85 220.8 802.3 222.65 804 223.9 804.2474609375 224.0798828125 804.5 224.2 804.4494140625 224.911328125 804.55 225.6 793.239453125 227.6958984375 780.7 226.2 767.9 224.7 754.4 219.55 743.15 215.25 730 207.85 722.1 203.45 706.75 193.8
L 667.3 169
M 831.35 250.1
Q 832.5 251 833.9 252.5 834.7 253.35 836.2 255.15 839.35 258.55 842.75 261 843.65 261.65 848.4 264.65 855.75 269.1 859.35 271.65 865.2 275.85 869.05 280.1 866.55 281.7 863.15 281.4 860.05 281.15 857.15 279.45 854.95 278.2 852.2 275.7 849.1 272.85 847.5 271.5 845.25 269.55 840.95 266.5 836.2 263.15 834.35 261.65 826.65 255.45 824.75 248.6 827.95 247.6 831.35 250.1 Z"/>

<path fill="#FFFFFF" stroke="none" d="
M 658.85 413.9
Q 658.6 408.35 657.85 404 656.8 398.25 654.45 391.7 650.65 381.35 645.05 372.05 639.55 363 633.9 358.7 628.6 354.65 619.55 352 605.5 347.85 590.25 348.55 582.7484375 348.87734375 575.45 350.35 575.4060546875 350.553515625 575.35 350.75 574.9 352.5 573.6 353.7
L 569.25 352.85
Q 569.3544921875 352.2998046875 569.5 351.75 565.341015625 352.8912109375 561.25 354.4 551.95 357.85 546.9 362.4 544.7 364.4 542.45 367.35 541.2 369 538.6 372.75
L 534.25 379.15
Q 527.8 388.55 524.2 392.5 519.0501953125 398.072265625 511.4 403.05
L 525.6 403.3
Q 529.65 403.3 531.75 404 534.9 405.1 538.85 409.2 542.6 413.15 546.7 418.5 549.2 421.7 553.95 428.3 557.7 433.45 559.45 436.35
L 559.45 436.35
Q 560.053515625 435.12734375 560.35 434.75 561.35 433.45 563.2 432.55 564.4 431.95 566.75 431.2 566.85 428.5 569.75 424.95 573.25 420.65 573.9 418.9 574.6 416.9 574.6 413.75
L 574.5 408.45
Q 574.7 405.55 576.25 403.35 578 400.9 580.45 400.95 583.25 401.1 585.5 404.3 586.85 406.4 587.05 408.1 587.3 410.25 586.15 413.15 586.05 413.45 582.9 420.2 580.9 424.5 580.5 427.55 580.45 427.95 580.3 431 580.2 433.1 579.85 434.45 579.816015625 434.5734375 579.75 434.7 581.2763671875 431.9052734375 583.75 430.05 586.4 431 591.2 434.15 596.8 437.9 599.4 440 603.7 443.5 606.25 447.15 609.8 452.25 610.15 458.3 610.55 464.75 607 469.15 604 472.15 602.55 473.65 599.95 476.3 599.5 478.8 599.4 479.35 599.35 481.5 599.3 483.15 598.9 484.1 598.45 485.25 597.2 486.25 596.4 486.85 594.85 487.75 592.194921875 489.2728515625 590.25 490 600.125390625 493.697265625 610.7 493.3 620.5 493.05 633.25 488.85 640.6 486.5 644.3 483.55 646.35 481.9 648.4 479.35 649.6 477.85 651.85 474.6 654.1 471.25 655 469.75 656.6 467 657.4 464.6 658.25 461.95 658.55 458.5 658.7 456.45 658.75 452.25
L 658.9 423.95
Q 658.95 417.25 658.85 413.9 Z"/>
</g>

<path id="Layer2_0_1_STROKES" stroke="#000000" stroke-width="1" stroke-linejoin="round" stroke-linecap="round" fill="none" d="
M 564.625 341.275
L 561.75 340.9
Q 565.85 336 572.25 334.55
L 564.625 341.275 630.3 350
Q 642.45 351.9 656.6 359.25
L 630.3 350 635.25 495.05
Q 632.85 493.25 617.55 508.3
L 609.8 510.45
Q 593.7 517.8 609 527.8
L 646.25 551.85 601.8 551.85 586.3 559.8 598.45 573.55 609.75 577.2 629.8 604.2 707.95 764.2 680.55 872.55 643.15 950.25 644.6 972.55
Q 648.15 978.85 649.4 984.7
L 666.3 998.1
Q 671.6 1008.25 669.7 1010.25
L 655.2 994 613.9 977.05 611.1 1031.6 582.8 1025.65 587.7 1004.1
Q 585.05 996.05 582.25 989.35 596.55 994.15 605.05 996.9 608 992.25 609.1 984.6 603.85 974.7 613.9 977.05
L 605.1 962.65
Q 583.95 955.05 581.3 945.1 567.5 932.55 556.65 927.05
L 556.65 965.4 566.15 1052.25 637.65 1119.45 581.95 1111.7 567.25 1093.5 555.15 1062.1 545.25 905.65
Q 542.85 909.85 537.95 909.5 535.35 911.95 538.9 912.45 531.5 915.75 522.5 914.1
L 480.95 911.275 476.2 950.35
M 564.625 341.275
L 532.6 369.55
Q 524 374.8 526.65 378.95 514.8 389.1 511.4 403.05 504.75 403.4 505.15 409.15
L 420.65 416.2 391.1 423.1 391.4 445.2 380.45 554.55
Q 376.7 556.35 375.75 559.5 372.85 558.25 367.55 556.75
L 342.15 595.7 334.85 623
Q 328.85 625.15 328.65 628.45
L 284.9 714.8 289.8 802.5 305.15 830.45 297.9 843.45 339.7 867.5 373.6 922.15
Q 378.7 932.8 385.4 932.45 384.35 936.8 388.85 936.75
L 416.45 998.75
Q 430.64140625 993.706640625 441.65 982.65
L 457.1 944 458.7 938.35
Q 458 929.85 463.3 931.5
L 469.35 917.625 469.5 910.5 472.35 910.7 473.4 908.3
Q 475.974609375 884.7826171875 485.5 873.775
L 485.525 873.65
Q 478.0892578125 877.5009765625 485.55 873.4
L 485.525 873.65
Q 485.608984375 873.597265625 485.7 873.55 485.6048828125 873.6578125 485.5 873.775
L 480.95 911.275 472.35 910.7 469.35 917.625 468.15 970.85 488.3 1012.6
Q 491.4 1011.35 494.05 1011.9
L 489.55 1110
Q 481.35 1121.95 466.1 1119.65
L 425.05 1109.3 446.6 1105.9
Q 452.55 1106.85 467 1104 470.8 1103.6 472.7 1097.8
M 617.55 508.3
L 578 499.75
M 416.45 998.75
L 420.925 1008.825
Q 418.96328125 1004.9017578125 415.3 999.15 415.874609375 998.9572265625 416.45 998.75 Z"/>
</defs>

<g transform="matrix( 1, 0, 0, 1, 0,0) ">
<use xlink:href="#Layer2_0_FILL"/>

<use xlink:href="#Layer2_0_1_STROKES"/>
</g>

<g transform="matrix( 1, 0, 0, 1, 0,0) ">
<use xlink:href="#Layer1_0_FILL"/>
</g>
</svg>
